solid CATIA STL
  facet normal  0.000000e+000  0.000000e+000  1.000000e+000
    outer loop
      vertex  4.924039e+001 -4.131759e+001 -1.000000e+001
      vertex  2.130458e+001 -3.441633e+001 -1.000000e+001
      vertex  1.977167e+001 -3.594925e+001 -1.000000e+001
    endloop
  endfacet
  facet normal  0.000000e+000  0.000000e+000  1.000000e+000
    outer loop
      vertex  4.924039e+001 -4.131759e+001 -1.000000e+001
      vertex  1.977167e+001 -3.594925e+001 -1.000000e+001
      vertex  1.767767e+001 -3.651033e+001 -1.000000e+001
    endloop
  endfacet
  facet normal  0.000000e+000  -0.000000e+000  1.000000e+000
    outer loop
      vertex -1.767767e+001 -2.813433e+001 -1.000000e+001
      vertex -1.558367e+001 -2.869542e+001 -1.000000e+001
      vertex  1.558367e+001 -2.869542e+001 -1.000000e+001
    endloop
  endfacet
  facet normal  0.000000e+000  -0.000000e+000  1.000000e+000
    outer loop
      vertex -1.767767e+001 -2.813433e+001 -1.000000e+001
      vertex  1.558367e+001 -2.869542e+001 -1.000000e+001
      vertex  1.767767e+001 -2.813433e+001 -1.000000e+001
    endloop
  endfacet
  facet normal  0.000000e+000  -0.000000e+000  9.999999e-001
    outer loop
      vertex -1.767767e+001 -2.813433e+001 -1.000000e+001
      vertex  1.767767e+001 -2.813433e+001 -1.000000e+001
      vertex  2.500000e+001 -6.698730e+000 -1.000000e+001
    endloop
  endfacet
  facet normal  0.000000e+000  0.000000e+000  9.999999e-001
    outer loop
      vertex -1.767767e+001 -2.813433e+001 -1.000000e+001
      vertex  2.500000e+001 -6.698730e+000 -1.000000e+001
      vertex  1.710101e+001 -3.015369e+000 -1.000000e+001
    endloop
  endfacet
  facet normal  0.000000e+000  0.000000e+000  1.000000e+000
    outer loop
      vertex -1.767767e+001 -2.813433e+001 -1.000000e+001
      vertex  1.710101e+001 -3.015369e+000 -1.000000e+001
      vertex -1.710101e+001 -3.015369e+000 -1.000000e+001
    endloop
  endfacet
  facet normal  0.000000e+000  0.000000e+000  1.000000e+000
    outer loop
      vertex -1.767767e+001 -2.813433e+001 -1.000000e+001
      vertex -1.710101e+001 -3.015369e+000 -1.000000e+001
      vertex -2.500000e+001 -6.698730e+000 -1.000000e+001
    endloop
  endfacet
  facet normal  0.000000e+000  0.000000e+000  1.000000e+000
    outer loop
      vertex -1.767767e+001 -2.813433e+001 -1.000000e+001
      vertex -2.500000e+001 -6.698730e+000 -1.000000e+001
      vertex -3.213938e+001 -1.169778e+001 -1.000000e+001
    endloop
  endfacet
  facet normal  0.000000e+000  0.000000e+000  1.000000e+000
    outer loop
      vertex -1.767767e+001 -2.813433e+001 -1.000000e+001
      vertex -3.213938e+001 -1.169778e+001 -1.000000e+001
      vertex -3.830222e+001 -1.786062e+001 -1.000000e+001
    endloop
  endfacet
  facet normal  0.000000e+000  0.000000e+000  1.000000e+000
    outer loop
      vertex -1.767767e+001 -2.813433e+001 -1.000000e+001
      vertex -3.830222e+001 -1.786062e+001 -1.000000e+001
      vertex -4.330127e+001 -2.500000e+001 -1.000000e+001
    endloop
  endfacet
  facet normal  0.000000e+000  0.000000e+000  9.999999e-001
    outer loop
      vertex -4.698463e+001 -3.289899e+001 -1.000000e+001
      vertex -4.924039e+001 -4.131759e+001 -1.000000e+001
      vertex -2.130458e+001 -3.441633e+001 -1.000000e+001
    endloop
  endfacet
  facet normal  0.000000e+000  0.000000e+000  1.000000e+000
    outer loop
      vertex -4.698463e+001 -3.289899e+001 -1.000000e+001
      vertex -2.130458e+001 -3.441633e+001 -1.000000e+001
      vertex -2.186567e+001 -3.232233e+001 -1.000000e+001
    endloop
  endfacet
  facet normal  0.000000e+000  -0.000000e+000  1.000000e+000
    outer loop
      vertex -4.698463e+001 -3.289899e+001 -1.000000e+001
      vertex -2.186567e+001 -3.232233e+001 -1.000000e+001
      vertex -2.130458e+001 -3.022833e+001 -1.000000e+001
    endloop
  endfacet
  facet normal  0.000000e+000  -0.000000e+000  1.000000e+000
    outer loop
      vertex -4.698463e+001 -3.289899e+001 -1.000000e+001
      vertex -2.130458e+001 -3.022833e+001 -1.000000e+001
      vertex -1.977167e+001 -2.869542e+001 -1.000000e+001
    endloop
  endfacet
  facet normal  0.000000e+000  -0.000000e+000  9.999999e-001
    outer loop
      vertex -4.698463e+001 -3.289899e+001 -1.000000e+001
      vertex -1.977167e+001 -2.869542e+001 -1.000000e+001
      vertex -1.767767e+001 -2.813433e+001 -1.000000e+001
    endloop
  endfacet
  facet normal  0.000000e+000  0.000000e+000  1.000000e+000
    outer loop
      vertex -4.698463e+001 -3.289899e+001 -1.000000e+001
      vertex -1.767767e+001 -2.813433e+001 -1.000000e+001
      vertex -4.330127e+001 -2.500000e+001 -1.000000e+001
    endloop
  endfacet
  facet normal  0.000000e+000  0.000000e+000  1.000000e+000
    outer loop
      vertex  1.767767e+001 -2.813433e+001 -1.000000e+001
      vertex  4.698463e+001 -3.289899e+001 -1.000000e+001
      vertex  4.330127e+001 -2.500000e+001 -1.000000e+001
    endloop
  endfacet
  facet normal  0.000000e+000  0.000000e+000  1.000000e+000
    outer loop
      vertex  1.767767e+001 -2.813433e+001 -1.000000e+001
      vertex  4.330127e+001 -2.500000e+001 -1.000000e+001
      vertex  3.830222e+001 -1.786062e+001 -1.000000e+001
    endloop
  endfacet
  facet normal  0.000000e+000  0.000000e+000  1.000000e+000
    outer loop
      vertex  1.767767e+001 -2.813433e+001 -1.000000e+001
      vertex  3.830222e+001 -1.786062e+001 -1.000000e+001
      vertex  3.213938e+001 -1.169778e+001 -1.000000e+001
    endloop
  endfacet
  facet normal  0.000000e+000  0.000000e+000  1.000000e+000
    outer loop
      vertex  1.767767e+001 -2.813433e+001 -1.000000e+001
      vertex  3.213938e+001 -1.169778e+001 -1.000000e+001
      vertex  2.500000e+001 -6.698730e+000 -1.000000e+001
    endloop
  endfacet
  facet normal  0.000000e+000  0.000000e+000  9.999999e-001
    outer loop
      vertex  4.698463e+001 -3.289899e+001 -1.000000e+001
      vertex  1.767767e+001 -2.813433e+001 -1.000000e+001
      vertex  1.977167e+001 -2.869542e+001 -1.000000e+001
    endloop
  endfacet
  facet normal  0.000000e+000  0.000000e+000  9.999999e-001
    outer loop
      vertex  4.698463e+001 -3.289899e+001 -1.000000e+001
      vertex  1.977167e+001 -2.869542e+001 -1.000000e+001
      vertex  2.130458e+001 -3.022833e+001 -1.000000e+001
    endloop
  endfacet
  facet normal  0.000000e+000  0.000000e+000  1.000000e+000
    outer loop
      vertex  4.698463e+001 -3.289899e+001 -1.000000e+001
      vertex  2.130458e+001 -3.022833e+001 -1.000000e+001
      vertex  2.186567e+001 -3.232233e+001 -1.000000e+001
    endloop
  endfacet
  facet normal  0.000000e+000  0.000000e+000  1.000000e+000
    outer loop
      vertex  4.698463e+001 -3.289899e+001 -1.000000e+001
      vertex  2.186567e+001 -3.232233e+001 -1.000000e+001
      vertex  2.130458e+001 -3.441633e+001 -1.000000e+001
    endloop
  endfacet
  facet normal  -0.000000e+000  0.000000e+000  9.999999e-001
    outer loop
      vertex  4.698463e+001 -3.289899e+001 -1.000000e+001
      vertex  2.130458e+001 -3.441633e+001 -1.000000e+001
      vertex  4.924039e+001 -4.131759e+001 -1.000000e+001
    endloop
  endfacet
  facet normal  0.000000e+000  0.000000e+000  1.000000e+000
    outer loop
      vertex  5.000000e+001 -5.000000e+001 -1.000000e+001
      vertex  4.924039e+001 -4.131759e+001 -1.000000e+001
      vertex  0.000000e+000 -5.000000e+001 -1.000000e+001
    endloop
  endfacet
  facet normal  0.000000e+000  0.000000e+000  1.000000e+000
    outer loop
      vertex  0.000000e+000 -5.000000e+001 -1.000000e+001
      vertex  4.924039e+001 -4.131759e+001 -1.000000e+001
      vertex  1.767767e+001 -3.651033e+001 -1.000000e+001
    endloop
  endfacet
  facet normal  0.000000e+000  0.000000e+000  1.000000e+000
    outer loop
      vertex  0.000000e+000 -5.000000e+001 -1.000000e+001
      vertex  1.767767e+001 -3.651033e+001 -1.000000e+001
      vertex -5.000000e+001 -5.000000e+001 -1.000000e+001
    endloop
  endfacet
  facet normal  0.000000e+000  0.000000e+000  9.999999e-001
    outer loop
      vertex -5.000000e+001 -5.000000e+001 -1.000000e+001
      vertex  1.767767e+001 -3.651033e+001 -1.000000e+001
      vertex -1.767767e+001 -3.651033e+001 -1.000000e+001
    endloop
  endfacet
  facet normal  0.000000e+000  0.000000e+000  1.000000e+000
    outer loop
      vertex -5.000000e+001 -5.000000e+001 -1.000000e+001
      vertex -1.767767e+001 -3.651033e+001 -1.000000e+001
      vertex -4.924039e+001 -4.131759e+001 -1.000000e+001
    endloop
  endfacet
  facet normal  0.000000e+000  0.000000e+000  1.000000e+000
    outer loop
      vertex -4.924039e+001 -4.131759e+001 -1.000000e+001
      vertex -1.767767e+001 -3.651033e+001 -1.000000e+001
      vertex -1.977167e+001 -3.594925e+001 -1.000000e+001
    endloop
  endfacet
  facet normal  0.000000e+000  0.000000e+000  1.000000e+000
    outer loop
      vertex -4.924039e+001 -4.131759e+001 -1.000000e+001
      vertex -1.977167e+001 -3.594925e+001 -1.000000e+001
      vertex -2.130458e+001 -3.441633e+001 -1.000000e+001
    endloop
  endfacet
  facet normal  0.000000e+000  0.000000e+000  1.000000e+000
    outer loop
      vertex -1.710101e+001 -3.015369e+000 -1.000000e+001
      vertex  1.710101e+001 -3.015369e+000 -1.000000e+001
      vertex -8.682409e+000 -7.596123e-001 -1.000000e+001
    endloop
  endfacet
  facet normal  -0.000000e+000  0.000000e+000  1.000000e+000
    outer loop
      vertex -8.682409e+000 -7.596123e-001 -1.000000e+001
      vertex  1.710101e+001 -3.015369e+000 -1.000000e+001
      vertex  8.682409e+000 -7.596123e-001 -1.000000e+001
    endloop
  endfacet
  facet normal  0.000000e+000  0.000000e+000  1.000000e+000
    outer loop
      vertex -8.682409e+000 -7.596123e-001 -1.000000e+001
      vertex  8.682409e+000 -7.596123e-001 -1.000000e+001
      vertex  3.061617e-015  0.000000e+000 -1.000000e+001
    endloop
  endfacet
  facet normal  -0.000000e+000  0.000000e+000  1.000000e+000
    outer loop
      vertex  1.558367e+001 -2.869542e+001 -1.000000e+001
      vertex -1.558367e+001 -2.869542e+001 -1.000000e+001
      vertex  1.405076e+001 -3.022833e+001 -1.000000e+001
    endloop
  endfacet
  facet normal  0.000000e+000  0.000000e+000  1.000000e+000
    outer loop
      vertex  1.405076e+001 -3.022833e+001 -1.000000e+001
      vertex -1.558367e+001 -2.869542e+001 -1.000000e+001
      vertex -1.405076e+001 -3.022833e+001 -1.000000e+001
    endloop
  endfacet
  facet normal  -0.000000e+000  0.000000e+000  1.000000e+000
    outer loop
      vertex  1.405076e+001 -3.022833e+001 -1.000000e+001
      vertex -1.405076e+001 -3.022833e+001 -1.000000e+001
      vertex  1.348967e+001 -3.232233e+001 -1.000000e+001
    endloop
  endfacet
  facet normal  0.000000e+000  0.000000e+000  1.000000e+000
    outer loop
      vertex  1.348967e+001 -3.232233e+001 -1.000000e+001
      vertex -1.405076e+001 -3.022833e+001 -1.000000e+001
      vertex -1.348967e+001 -3.232233e+001 -1.000000e+001
    endloop
  endfacet
  facet normal  -0.000000e+000  0.000000e+000  1.000000e+000
    outer loop
      vertex  1.348967e+001 -3.232233e+001 -1.000000e+001
      vertex -1.348967e+001 -3.232233e+001 -1.000000e+001
      vertex  1.405076e+001 -3.441633e+001 -1.000000e+001
    endloop
  endfacet
  facet normal  0.000000e+000  0.000000e+000  1.000000e+000
    outer loop
      vertex  1.405076e+001 -3.441633e+001 -1.000000e+001
      vertex -1.348967e+001 -3.232233e+001 -1.000000e+001
      vertex -1.405076e+001 -3.441633e+001 -1.000000e+001
    endloop
  endfacet
  facet normal  -0.000000e+000  0.000000e+000  1.000000e+000
    outer loop
      vertex  1.405076e+001 -3.441633e+001 -1.000000e+001
      vertex -1.405076e+001 -3.441633e+001 -1.000000e+001
      vertex  1.558367e+001 -3.594925e+001 -1.000000e+001
    endloop
  endfacet
  facet normal  0.000000e+000  0.000000e+000  1.000000e+000
    outer loop
      vertex  1.558367e+001 -3.594925e+001 -1.000000e+001
      vertex -1.405076e+001 -3.441633e+001 -1.000000e+001
      vertex -1.558367e+001 -3.594925e+001 -1.000000e+001
    endloop
  endfacet
  facet normal  -0.000000e+000  0.000000e+000  1.000000e+000
    outer loop
      vertex  1.558367e+001 -3.594925e+001 -1.000000e+001
      vertex -1.558367e+001 -3.594925e+001 -1.000000e+001
      vertex  1.767767e+001 -3.651033e+001 -1.000000e+001
    endloop
  endfacet
  facet normal  0.000000e+000  0.000000e+000  1.000000e+000
    outer loop
      vertex  1.767767e+001 -3.651033e+001 -1.000000e+001
      vertex -1.558367e+001 -3.594925e+001 -1.000000e+001
      vertex -1.767767e+001 -3.651033e+001 -1.000000e+001
    endloop
  endfacet
  facet normal  2.588187e-001 -9.659259e-001  0.000000e+000
    outer loop
      vertex  1.767767e+001 -2.813433e+001 -3.000000e+001
      vertex  1.558367e+001 -2.869542e+001 -1.000000e+001
      vertex  1.558367e+001 -2.869542e+001 -3.000000e+001
    endloop
  endfacet
  facet normal  7.071071e-001 -7.071066e-001  0.000000e+000
    outer loop
      vertex  1.558367e+001 -2.869542e+001 -3.000000e+001
      vertex  1.558367e+001 -2.869542e+001 -1.000000e+001
      vertex  1.405076e+001 -3.022833e+001 -1.000000e+001
    endloop
  endfacet
  facet normal  7.071071e-001 -7.071066e-001  0.000000e+000
    outer loop
      vertex  1.558367e+001 -2.869542e+001 -3.000000e+001
      vertex  1.405076e+001 -3.022833e+001 -1.000000e+001
      vertex  1.405076e+001 -3.022833e+001 -3.000000e+001
    endloop
  endfacet
  facet normal  9.659258e-001 -2.588191e-001  0.000000e+000
    outer loop
      vertex  1.405076e+001 -3.022833e+001 -3.000000e+001
      vertex  1.405076e+001 -3.022833e+001 -1.000000e+001
      vertex  1.348967e+001 -3.232233e+001 -1.000000e+001
    endloop
  endfacet
  facet normal  9.659258e-001 -2.588191e-001  0.000000e+000
    outer loop
      vertex  1.405076e+001 -3.022833e+001 -3.000000e+001
      vertex  1.348967e+001 -3.232233e+001 -1.000000e+001
      vertex  1.348967e+001 -3.232233e+001 -3.000000e+001
    endloop
  endfacet
  facet normal  2.588187e-001 -9.659259e-001  0.000000e+000
    outer loop
      vertex  1.558367e+001 -2.869542e+001 -1.000000e+001
      vertex  1.767767e+001 -2.813433e+001 -3.000000e+001
      vertex  1.767767e+001 -2.813433e+001 -1.000000e+001
    endloop
  endfacet
  facet normal -2.588187e-001 -9.659259e-001  -0.000000e+000
    outer loop
      vertex  1.767767e+001 -2.813433e+001 -1.000000e+001
      vertex  1.767767e+001 -2.813433e+001 -3.000000e+001
      vertex  1.977167e+001 -2.869542e+001 -3.000000e+001
    endloop
  endfacet
  facet normal -2.588187e-001 -9.659259e-001  0.000000e+000
    outer loop
      vertex  1.767767e+001 -2.813433e+001 -1.000000e+001
      vertex  1.977167e+001 -2.869542e+001 -3.000000e+001
      vertex  1.977167e+001 -2.869542e+001 -1.000000e+001
    endloop
  endfacet
  facet normal -7.071068e-001 -7.071068e-001  -0.000000e+000
    outer loop
      vertex  1.977167e+001 -2.869542e+001 -1.000000e+001
      vertex  1.977167e+001 -2.869542e+001 -3.000000e+001
      vertex  2.130458e+001 -3.022833e+001 -3.000000e+001
    endloop
  endfacet
  facet normal -7.071068e-001 -7.071068e-001  0.000000e+000
    outer loop
      vertex  1.977167e+001 -2.869542e+001 -1.000000e+001
      vertex  2.130458e+001 -3.022833e+001 -3.000000e+001
      vertex  2.130458e+001 -3.022833e+001 -1.000000e+001
    endloop
  endfacet
  facet normal -9.659259e-001 -2.588187e-001  -0.000000e+000
    outer loop
      vertex  2.130458e+001 -3.022833e+001 -1.000000e+001
      vertex  2.130458e+001 -3.022833e+001 -3.000000e+001
      vertex  2.186567e+001 -3.232233e+001 -3.000000e+001
    endloop
  endfacet
  facet normal -9.659259e-001 -2.588187e-001  0.000000e+000
    outer loop
      vertex  2.130458e+001 -3.022833e+001 -1.000000e+001
      vertex  2.186567e+001 -3.232233e+001 -3.000000e+001
      vertex  2.186567e+001 -3.232233e+001 -1.000000e+001
    endloop
  endfacet
  facet normal -2.588187e-001  9.659259e-001  0.000000e+000
    outer loop
      vertex  1.767767e+001 -3.651033e+001 -3.000000e+001
      vertex  1.977167e+001 -3.594925e+001 -1.000000e+001
      vertex  1.977167e+001 -3.594925e+001 -3.000000e+001
    endloop
  endfacet
  facet normal -7.071064e-001  7.071072e-001  0.000000e+000
    outer loop
      vertex  1.977167e+001 -3.594925e+001 -3.000000e+001
      vertex  1.977167e+001 -3.594925e+001 -1.000000e+001
      vertex  2.130458e+001 -3.441633e+001 -1.000000e+001
    endloop
  endfacet
  facet normal -7.071064e-001  7.071072e-001  0.000000e+000
    outer loop
      vertex  1.977167e+001 -3.594925e+001 -3.000000e+001
      vertex  2.130458e+001 -3.441633e+001 -1.000000e+001
      vertex  2.130458e+001 -3.441633e+001 -3.000000e+001
    endloop
  endfacet
  facet normal -9.659260e-001  2.588185e-001  0.000000e+000
    outer loop
      vertex  2.130458e+001 -3.441633e+001 -3.000000e+001
      vertex  2.130458e+001 -3.441633e+001 -1.000000e+001
      vertex  2.186567e+001 -3.232233e+001 -1.000000e+001
    endloop
  endfacet
  facet normal -9.659260e-001  2.588185e-001  0.000000e+000
    outer loop
      vertex  2.130458e+001 -3.441633e+001 -3.000000e+001
      vertex  2.186567e+001 -3.232233e+001 -1.000000e+001
      vertex  2.186567e+001 -3.232233e+001 -3.000000e+001
    endloop
  endfacet
  facet normal -2.588187e-001  9.659259e-001  0.000000e+000
    outer loop
      vertex  1.977167e+001 -3.594925e+001 -1.000000e+001
      vertex  1.767767e+001 -3.651033e+001 -3.000000e+001
      vertex  1.767767e+001 -3.651033e+001 -1.000000e+001
    endloop
  endfacet
  facet normal  2.588187e-001  9.659259e-001  0.000000e+000
    outer loop
      vertex  1.767767e+001 -3.651033e+001 -1.000000e+001
      vertex  1.767767e+001 -3.651033e+001 -3.000000e+001
      vertex  1.558367e+001 -3.594925e+001 -3.000000e+001
    endloop
  endfacet
  facet normal  2.588187e-001  9.659259e-001  -0.000000e+000
    outer loop
      vertex  1.767767e+001 -3.651033e+001 -1.000000e+001
      vertex  1.558367e+001 -3.594925e+001 -3.000000e+001
      vertex  1.558367e+001 -3.594925e+001 -1.000000e+001
    endloop
  endfacet
  facet normal  7.071066e-001  7.071070e-001  0.000000e+000
    outer loop
      vertex  1.558367e+001 -3.594925e+001 -1.000000e+001
      vertex  1.558367e+001 -3.594925e+001 -3.000000e+001
      vertex  1.405076e+001 -3.441633e+001 -3.000000e+001
    endloop
  endfacet
  facet normal  7.071066e-001  7.071070e-001  -0.000000e+000
    outer loop
      vertex  1.558367e+001 -3.594925e+001 -1.000000e+001
      vertex  1.405076e+001 -3.441633e+001 -3.000000e+001
      vertex  1.405076e+001 -3.441633e+001 -1.000000e+001
    endloop
  endfacet
  facet normal  9.659258e-001  2.588189e-001  0.000000e+000
    outer loop
      vertex  1.405076e+001 -3.441633e+001 -1.000000e+001
      vertex  1.405076e+001 -3.441633e+001 -3.000000e+001
      vertex  1.348967e+001 -3.232233e+001 -3.000000e+001
    endloop
  endfacet
  facet normal  9.659258e-001  2.588189e-001  -0.000000e+000
    outer loop
      vertex  1.405076e+001 -3.441633e+001 -1.000000e+001
      vertex  1.348967e+001 -3.232233e+001 -3.000000e+001
      vertex  1.348967e+001 -3.232233e+001 -1.000000e+001
    endloop
  endfacet
  facet normal -4.955721e-001 -1.327880e-001  8.583563e-001
    outer loop
      vertex  1.767767e+001 -3.232233e+001 -3.241794e+001
      vertex  2.186567e+001 -3.232233e+001 -3.000000e+001
      vertex  2.130458e+001 -3.022833e+001 -3.000000e+001
    endloop
  endfacet
  facet normal -3.627839e-001 -3.627839e-001  8.583564e-001
    outer loop
      vertex  1.767767e+001 -3.232233e+001 -3.241794e+001
      vertex  2.130458e+001 -3.022833e+001 -3.000000e+001
      vertex  1.977167e+001 -2.869542e+001 -3.000000e+001
    endloop
  endfacet
  facet normal -1.327880e-001 -4.955721e-001  8.583563e-001
    outer loop
      vertex  1.767767e+001 -3.232233e+001 -3.241794e+001
      vertex  1.977167e+001 -2.869542e+001 -3.000000e+001
      vertex  1.767767e+001 -2.813433e+001 -3.000000e+001
    endloop
  endfacet
  facet normal  1.327880e-001 -4.955721e-001  8.583563e-001
    outer loop
      vertex  1.767767e+001 -3.232233e+001 -3.241794e+001
      vertex  1.767767e+001 -2.813433e+001 -3.000000e+001
      vertex  1.558367e+001 -2.869542e+001 -3.000000e+001
    endloop
  endfacet
  facet normal  3.627841e-001 -3.627838e-001  8.583564e-001
    outer loop
      vertex  1.767767e+001 -3.232233e+001 -3.241794e+001
      vertex  1.558367e+001 -2.869542e+001 -3.000000e+001
      vertex  1.405076e+001 -3.022833e+001 -3.000000e+001
    endloop
  endfacet
  facet normal  4.955721e-001 -1.327882e-001  8.583562e-001
    outer loop
      vertex  1.767767e+001 -3.232233e+001 -3.241794e+001
      vertex  1.405076e+001 -3.022833e+001 -3.000000e+001
      vertex  1.348967e+001 -3.232233e+001 -3.000000e+001
    endloop
  endfacet
  facet normal  4.955721e-001  1.327881e-001  8.583563e-001
    outer loop
      vertex  1.767767e+001 -3.232233e+001 -3.241794e+001
      vertex  1.348967e+001 -3.232233e+001 -3.000000e+001
      vertex  1.405076e+001 -3.441633e+001 -3.000000e+001
    endloop
  endfacet
  facet normal  3.627838e-001  3.627840e-001  8.583564e-001
    outer loop
      vertex  1.767767e+001 -3.232233e+001 -3.241794e+001
      vertex  1.405076e+001 -3.441633e+001 -3.000000e+001
      vertex  1.558367e+001 -3.594925e+001 -3.000000e+001
    endloop
  endfacet
  facet normal  1.327880e-001  4.955721e-001  8.583563e-001
    outer loop
      vertex  1.767767e+001 -3.232233e+001 -3.241794e+001
      vertex  1.558367e+001 -3.594925e+001 -3.000000e+001
      vertex  1.767767e+001 -3.651033e+001 -3.000000e+001
    endloop
  endfacet
  facet normal -1.327880e-001  4.955721e-001  8.583563e-001
    outer loop
      vertex  1.767767e+001 -3.232233e+001 -3.241794e+001
      vertex  1.767767e+001 -3.651033e+001 -3.000000e+001
      vertex  1.977167e+001 -3.594925e+001 -3.000000e+001
    endloop
  endfacet
  facet normal -3.627837e-001  3.627841e-001  8.583564e-001
    outer loop
      vertex  1.767767e+001 -3.232233e+001 -3.241794e+001
      vertex  1.977167e+001 -3.594925e+001 -3.000000e+001
      vertex  2.130458e+001 -3.441633e+001 -3.000000e+001
    endloop
  endfacet
  facet normal -4.955721e-001  1.327878e-001  8.583564e-001
    outer loop
      vertex  1.767767e+001 -3.232233e+001 -3.241794e+001
      vertex  2.130458e+001 -3.441633e+001 -3.000000e+001
      vertex  2.186567e+001 -3.232233e+001 -3.000000e+001
    endloop
  endfacet
  facet normal  2.588187e-001  9.659259e-001  -0.000000e+000
    outer loop
      vertex -1.767767e+001 -3.651033e+001 -1.000000e+001
      vertex -1.977167e+001 -3.594925e+001 -3.000000e+001
      vertex -1.977167e+001 -3.594925e+001 -1.000000e+001
    endloop
  endfacet
  facet normal  7.071064e-001  7.071072e-001  0.000000e+000
    outer loop
      vertex -1.977167e+001 -3.594925e+001 -1.000000e+001
      vertex -1.977167e+001 -3.594925e+001 -3.000000e+001
      vertex -2.130458e+001 -3.441633e+001 -3.000000e+001
    endloop
  endfacet
  facet normal  7.071064e-001  7.071072e-001  -0.000000e+000
    outer loop
      vertex -1.977167e+001 -3.594925e+001 -1.000000e+001
      vertex -2.130458e+001 -3.441633e+001 -3.000000e+001
      vertex -2.130458e+001 -3.441633e+001 -1.000000e+001
    endloop
  endfacet
  facet normal  9.659260e-001  2.588185e-001  0.000000e+000
    outer loop
      vertex -2.130458e+001 -3.441633e+001 -1.000000e+001
      vertex -2.130458e+001 -3.441633e+001 -3.000000e+001
      vertex -2.186567e+001 -3.232233e+001 -3.000000e+001
    endloop
  endfacet
  facet normal  9.659260e-001  2.588185e-001  -0.000000e+000
    outer loop
      vertex -2.130458e+001 -3.441633e+001 -1.000000e+001
      vertex -2.186567e+001 -3.232233e+001 -3.000000e+001
      vertex -2.186567e+001 -3.232233e+001 -1.000000e+001
    endloop
  endfacet
  facet normal  2.588187e-001  9.659259e-001  0.000000e+000
    outer loop
      vertex -1.977167e+001 -3.594925e+001 -3.000000e+001
      vertex -1.767767e+001 -3.651033e+001 -1.000000e+001
      vertex -1.767767e+001 -3.651033e+001 -3.000000e+001
    endloop
  endfacet
  facet normal -2.588187e-001  9.659259e-001  0.000000e+000
    outer loop
      vertex -1.767767e+001 -3.651033e+001 -3.000000e+001
      vertex -1.767767e+001 -3.651033e+001 -1.000000e+001
      vertex -1.558367e+001 -3.594925e+001 -1.000000e+001
    endloop
  endfacet
  facet normal -2.588187e-001  9.659259e-001  0.000000e+000
    outer loop
      vertex -1.767767e+001 -3.651033e+001 -3.000000e+001
      vertex -1.558367e+001 -3.594925e+001 -1.000000e+001
      vertex -1.558367e+001 -3.594925e+001 -3.000000e+001
    endloop
  endfacet
  facet normal -7.071066e-001  7.071070e-001  0.000000e+000
    outer loop
      vertex -1.558367e+001 -3.594925e+001 -3.000000e+001
      vertex -1.558367e+001 -3.594925e+001 -1.000000e+001
      vertex -1.405076e+001 -3.441633e+001 -1.000000e+001
    endloop
  endfacet
  facet normal -7.071066e-001  7.071070e-001  0.000000e+000
    outer loop
      vertex -1.558367e+001 -3.594925e+001 -3.000000e+001
      vertex -1.405076e+001 -3.441633e+001 -1.000000e+001
      vertex -1.405076e+001 -3.441633e+001 -3.000000e+001
    endloop
  endfacet
  facet normal -9.659258e-001  2.588189e-001  0.000000e+000
    outer loop
      vertex -1.405076e+001 -3.441633e+001 -3.000000e+001
      vertex -1.405076e+001 -3.441633e+001 -1.000000e+001
      vertex -1.348967e+001 -3.232233e+001 -1.000000e+001
    endloop
  endfacet
  facet normal -9.659258e-001  2.588189e-001  0.000000e+000
    outer loop
      vertex -1.405076e+001 -3.441633e+001 -3.000000e+001
      vertex -1.348967e+001 -3.232233e+001 -1.000000e+001
      vertex -1.348967e+001 -3.232233e+001 -3.000000e+001
    endloop
  endfacet
  facet normal -2.588187e-001 -9.659259e-001  0.000000e+000
    outer loop
      vertex -1.767767e+001 -2.813433e+001 -1.000000e+001
      vertex -1.558367e+001 -2.869542e+001 -3.000000e+001
      vertex -1.558367e+001 -2.869542e+001 -1.000000e+001
    endloop
  endfacet
  facet normal -7.071071e-001 -7.071066e-001  -0.000000e+000
    outer loop
      vertex -1.558367e+001 -2.869542e+001 -1.000000e+001
      vertex -1.558367e+001 -2.869542e+001 -3.000000e+001
      vertex -1.405076e+001 -3.022833e+001 -3.000000e+001
    endloop
  endfacet
  facet normal -7.071071e-001 -7.071066e-001  0.000000e+000
    outer loop
      vertex -1.558367e+001 -2.869542e+001 -1.000000e+001
      vertex -1.405076e+001 -3.022833e+001 -3.000000e+001
      vertex -1.405076e+001 -3.022833e+001 -1.000000e+001
    endloop
  endfacet
  facet normal -9.659258e-001 -2.588191e-001  -0.000000e+000
    outer loop
      vertex -1.405076e+001 -3.022833e+001 -1.000000e+001
      vertex -1.405076e+001 -3.022833e+001 -3.000000e+001
      vertex -1.348967e+001 -3.232233e+001 -3.000000e+001
    endloop
  endfacet
  facet normal -9.659258e-001 -2.588191e-001  0.000000e+000
    outer loop
      vertex -1.405076e+001 -3.022833e+001 -1.000000e+001
      vertex -1.348967e+001 -3.232233e+001 -3.000000e+001
      vertex -1.348967e+001 -3.232233e+001 -1.000000e+001
    endloop
  endfacet
  facet normal -2.588187e-001 -9.659259e-001  -0.000000e+000
    outer loop
      vertex -1.558367e+001 -2.869542e+001 -3.000000e+001
      vertex -1.767767e+001 -2.813433e+001 -1.000000e+001
      vertex -1.767767e+001 -2.813433e+001 -3.000000e+001
    endloop
  endfacet
  facet normal  2.588187e-001 -9.659259e-001  0.000000e+000
    outer loop
      vertex -1.767767e+001 -2.813433e+001 -3.000000e+001
      vertex -1.767767e+001 -2.813433e+001 -1.000000e+001
      vertex -1.977167e+001 -2.869542e+001 -1.000000e+001
    endloop
  endfacet
  facet normal  2.588187e-001 -9.659259e-001  0.000000e+000
    outer loop
      vertex -1.767767e+001 -2.813433e+001 -3.000000e+001
      vertex -1.977167e+001 -2.869542e+001 -1.000000e+001
      vertex -1.977167e+001 -2.869542e+001 -3.000000e+001
    endloop
  endfacet
  facet normal  7.071068e-001 -7.071068e-001  0.000000e+000
    outer loop
      vertex -1.977167e+001 -2.869542e+001 -3.000000e+001
      vertex -1.977167e+001 -2.869542e+001 -1.000000e+001
      vertex -2.130458e+001 -3.022833e+001 -1.000000e+001
    endloop
  endfacet
  facet normal  7.071068e-001 -7.071068e-001  0.000000e+000
    outer loop
      vertex -1.977167e+001 -2.869542e+001 -3.000000e+001
      vertex -2.130458e+001 -3.022833e+001 -1.000000e+001
      vertex -2.130458e+001 -3.022833e+001 -3.000000e+001
    endloop
  endfacet
  facet normal  9.659259e-001 -2.588187e-001  0.000000e+000
    outer loop
      vertex -2.130458e+001 -3.022833e+001 -3.000000e+001
      vertex -2.130458e+001 -3.022833e+001 -1.000000e+001
      vertex -2.186567e+001 -3.232233e+001 -1.000000e+001
    endloop
  endfacet
  facet normal  9.659259e-001 -2.588187e-001  0.000000e+000
    outer loop
      vertex -2.130458e+001 -3.022833e+001 -3.000000e+001
      vertex -2.186567e+001 -3.232233e+001 -1.000000e+001
      vertex -2.186567e+001 -3.232233e+001 -3.000000e+001
    endloop
  endfacet
  facet normal -4.955721e-001 -1.327882e-001  8.583562e-001
    outer loop
      vertex -1.767767e+001 -3.232233e+001 -3.241794e+001
      vertex -1.348967e+001 -3.232233e+001 -3.000000e+001
      vertex -1.405076e+001 -3.022833e+001 -3.000000e+001
    endloop
  endfacet
  facet normal -3.627841e-001 -3.627838e-001  8.583564e-001
    outer loop
      vertex -1.767767e+001 -3.232233e+001 -3.241794e+001
      vertex -1.405076e+001 -3.022833e+001 -3.000000e+001
      vertex -1.558367e+001 -2.869542e+001 -3.000000e+001
    endloop
  endfacet
  facet normal -1.327880e-001 -4.955721e-001  8.583563e-001
    outer loop
      vertex -1.767767e+001 -3.232233e+001 -3.241794e+001
      vertex -1.558367e+001 -2.869542e+001 -3.000000e+001
      vertex -1.767767e+001 -2.813433e+001 -3.000000e+001
    endloop
  endfacet
  facet normal  1.327880e-001 -4.955721e-001  8.583563e-001
    outer loop
      vertex -1.767767e+001 -3.232233e+001 -3.241794e+001
      vertex -1.767767e+001 -2.813433e+001 -3.000000e+001
      vertex -1.977167e+001 -2.869542e+001 -3.000000e+001
    endloop
  endfacet
  facet normal  3.627839e-001 -3.627839e-001  8.583564e-001
    outer loop
      vertex -1.767767e+001 -3.232233e+001 -3.241794e+001
      vertex -1.977167e+001 -2.869542e+001 -3.000000e+001
      vertex -2.130458e+001 -3.022833e+001 -3.000000e+001
    endloop
  endfacet
  facet normal  4.955721e-001 -1.327880e-001  8.583563e-001
    outer loop
      vertex -1.767767e+001 -3.232233e+001 -3.241794e+001
      vertex -2.130458e+001 -3.022833e+001 -3.000000e+001
      vertex -2.186567e+001 -3.232233e+001 -3.000000e+001
    endloop
  endfacet
  facet normal  4.955721e-001  1.327878e-001  8.583564e-001
    outer loop
      vertex -1.767767e+001 -3.232233e+001 -3.241794e+001
      vertex -2.186567e+001 -3.232233e+001 -3.000000e+001
      vertex -2.130458e+001 -3.441633e+001 -3.000000e+001
    endloop
  endfacet
  facet normal  3.627837e-001  3.627841e-001  8.583564e-001
    outer loop
      vertex -1.767767e+001 -3.232233e+001 -3.241794e+001
      vertex -2.130458e+001 -3.441633e+001 -3.000000e+001
      vertex -1.977167e+001 -3.594925e+001 -3.000000e+001
    endloop
  endfacet
  facet normal  1.327880e-001  4.955721e-001  8.583563e-001
    outer loop
      vertex -1.767767e+001 -3.232233e+001 -3.241794e+001
      vertex -1.977167e+001 -3.594925e+001 -3.000000e+001
      vertex -1.767767e+001 -3.651033e+001 -3.000000e+001
    endloop
  endfacet
  facet normal -1.327880e-001  4.955721e-001  8.583563e-001
    outer loop
      vertex -1.767767e+001 -3.232233e+001 -3.241794e+001
      vertex -1.767767e+001 -3.651033e+001 -3.000000e+001
      vertex -1.558367e+001 -3.594925e+001 -3.000000e+001
    endloop
  endfacet
  facet normal -3.627838e-001  3.627840e-001  8.583564e-001
    outer loop
      vertex -1.767767e+001 -3.232233e+001 -3.241794e+001
      vertex -1.558367e+001 -3.594925e+001 -3.000000e+001
      vertex -1.405076e+001 -3.441633e+001 -3.000000e+001
    endloop
  endfacet
  facet normal -4.955721e-001  1.327881e-001  8.583563e-001
    outer loop
      vertex -1.767767e+001 -3.232233e+001 -3.241794e+001
      vertex -1.405076e+001 -3.441633e+001 -3.000000e+001
      vertex -1.348967e+001 -3.232233e+001 -3.000000e+001
    endloop
  endfacet
  facet normal -8.715734e-002  9.961947e-001  3.528863e-006
    outer loop
      vertex -8.149332e-005  5.000000e+001 -5.000000e+000
      vertex -8.682469e+000  4.924038e+001 -5.000000e+000
      vertex  0.000000e+000  5.000000e+001 -3.000000e+000
    endloop
  endfacet
  facet normal -9.961945e-001  8.715732e-002  0.000000e+000
    outer loop
      vertex -5.000000e+001  9.514119e-005 -5.000000e+000
      vertex -5.000000e+001  9.514119e-005  0.000000e+000
      vertex -4.924038e+001  8.682484e+000 -5.000000e+000
    endloop
  endfacet
  facet normal -9.961945e-001  8.715732e-002  0.000000e+000
    outer loop
      vertex -4.924038e+001  8.682484e+000 -5.000000e+000
      vertex -5.000000e+001  9.514119e-005  0.000000e+000
      vertex -4.924038e+001  8.682484e+000  0.000000e+000
    endloop
  endfacet
  facet normal -9.659254e-001  2.588205e-001  0.000000e+000
    outer loop
      vertex -4.924038e+001  8.682484e+000 -5.000000e+000
      vertex -4.924038e+001  8.682484e+000  0.000000e+000
      vertex -4.698461e+001  1.710106e+001 -5.000000e+000
    endloop
  endfacet
  facet normal -9.659254e-001  2.588205e-001  0.000000e+000
    outer loop
      vertex -4.698461e+001  1.710106e+001 -5.000000e+000
      vertex -4.924038e+001  8.682484e+000  0.000000e+000
      vertex -4.698461e+001  1.710106e+001  0.000000e+000
    endloop
  endfacet
  facet normal -9.063073e-001  4.226192e-001  0.000000e+000
    outer loop
      vertex -4.698461e+001  1.710106e+001 -5.000000e+000
      vertex -4.698461e+001  1.710106e+001  0.000000e+000
      vertex -4.330125e+001  2.500003e+001 -5.000000e+000
    endloop
  endfacet
  facet normal -9.063073e-001  4.226192e-001  0.000000e+000
    outer loop
      vertex -4.330125e+001  2.500003e+001 -5.000000e+000
      vertex -4.698461e+001  1.710106e+001  0.000000e+000
      vertex -4.330125e+001  2.500003e+001  0.000000e+000
    endloop
  endfacet
  facet normal -8.191518e-001  5.735767e-001  0.000000e+000
    outer loop
      vertex -4.330125e+001  2.500003e+001 -5.000000e+000
      vertex -4.330125e+001  2.500003e+001  0.000000e+000
      vertex -3.830221e+001  3.213939e+001 -5.000000e+000
    endloop
  endfacet
  facet normal -8.191518e-001  5.735767e-001  0.000000e+000
    outer loop
      vertex -3.830221e+001  3.213939e+001 -5.000000e+000
      vertex -4.330125e+001  2.500003e+001  0.000000e+000
      vertex -3.830221e+001  3.213939e+001  0.000000e+000
    endloop
  endfacet
  facet normal -7.071065e-001  7.071070e-001  0.000000e+000
    outer loop
      vertex -3.830221e+001  3.213939e+001 -5.000000e+000
      vertex -3.830221e+001  3.213939e+001  0.000000e+000
      vertex -3.213938e+001  3.830222e+001 -5.000000e+000
    endloop
  endfacet
  facet normal -7.071065e-001  7.071070e-001  0.000000e+000
    outer loop
      vertex -3.213938e+001  3.830222e+001 -5.000000e+000
      vertex -3.830221e+001  3.213939e+001  0.000000e+000
      vertex -3.213938e+001  3.830222e+001  0.000000e+000
    endloop
  endfacet
  facet normal -5.735767e-001  8.191518e-001  0.000000e+000
    outer loop
      vertex -3.213938e+001  3.830222e+001 -5.000000e+000
      vertex -3.213938e+001  3.830222e+001  0.000000e+000
      vertex -2.500002e+001  4.330126e+001 -5.000000e+000
    endloop
  endfacet
  facet normal -5.735767e-001  8.191518e-001  0.000000e+000
    outer loop
      vertex -2.500002e+001  4.330126e+001 -5.000000e+000
      vertex -3.213938e+001  3.830222e+001  0.000000e+000
      vertex -2.500002e+001  4.330126e+001  0.000000e+000
    endloop
  endfacet
  facet normal -4.226188e-001  9.063075e-001  0.000000e+000
    outer loop
      vertex -2.500002e+001  4.330126e+001 -5.000000e+000
      vertex -2.500002e+001  4.330126e+001  0.000000e+000
      vertex -1.710105e+001  4.698462e+001 -5.000000e+000
    endloop
  endfacet
  facet normal -4.226188e-001  9.063075e-001  0.000000e+000
    outer loop
      vertex -1.710105e+001  4.698462e+001 -5.000000e+000
      vertex -2.500002e+001  4.330126e+001  0.000000e+000
      vertex -1.710105e+001  4.698462e+001  0.000000e+000
    endloop
  endfacet
  facet normal -2.588200e-001  9.659256e-001  0.000000e+000
    outer loop
      vertex -1.710105e+001  4.698462e+001 -5.000000e+000
      vertex -1.710105e+001  4.698462e+001  0.000000e+000
      vertex -8.682469e+000  4.924038e+001 -5.000000e+000
    endloop
  endfacet
  facet normal -2.588200e-001  9.659256e-001  0.000000e+000
    outer loop
      vertex -8.682469e+000  4.924038e+001 -5.000000e+000
      vertex -1.710105e+001  4.698462e+001  0.000000e+000
      vertex -8.682469e+000  4.924038e+001  0.000000e+000
    endloop
  endfacet
  facet normal -8.715652e-002  9.961946e-001  0.000000e+000
    outer loop
      vertex -8.682469e+000  4.924038e+001 -5.000000e+000
      vertex -8.682469e+000  4.924038e+001  0.000000e+000
      vertex  0.000000e+000  5.000000e+001 -3.000000e+000
    endloop
  endfacet
  facet normal -8.715733e-002  9.961946e-001 -2.367580e-006
    outer loop
      vertex  0.000000e+000  5.000000e+001 -3.000000e+000
      vertex -8.682469e+000  4.924038e+001  0.000000e+000
      vertex -8.149332e-005  5.000000e+001  0.000000e+000
    endloop
  endfacet
  facet normal -9.999999e-001  0.000000e+000  0.000000e+000
    outer loop
      vertex -5.000000e+001 -5.000000e+001 -1.000000e+001
      vertex -5.000000e+001 -5.000000e+001  0.000000e+000
      vertex -5.000000e+001  9.514119e-005  0.000000e+000
    endloop
  endfacet
  facet normal -9.999999e-001  0.000000e+000  0.000000e+000
    outer loop
      vertex -5.000000e+001 -5.000000e+001 -5.000000e+001
      vertex -5.000000e+001 -5.000000e+001 -1.000000e+001
      vertex -5.000000e+001  9.514119e-005  0.000000e+000
    endloop
  endfacet
  facet normal -9.999999e-001  0.000000e+000  -0.000000e+000
    outer loop
      vertex -5.000000e+001 -5.000000e+001 -5.000000e+001
      vertex -5.000000e+001  9.514119e-005  0.000000e+000
      vertex -5.000000e+001  9.514119e-005 -5.000000e+000
    endloop
  endfacet
  facet normal -1.000000e+000  0.000000e+000  -0.000000e+000
    outer loop
      vertex -5.000000e+001 -5.000000e+001 -5.000000e+001
      vertex -5.000000e+001  9.514119e-005 -5.000000e+000
      vertex -5.000000e+001  5.000000e+001 -5.000000e+000
    endloop
  endfacet
  facet normal -1.000000e+000  0.000000e+000  -0.000000e+000
    outer loop
      vertex -5.000000e+001 -5.000000e+001 -5.000000e+001
      vertex -5.000000e+001  5.000000e+001 -5.000000e+000
      vertex -5.000000e+001  5.000000e+001 -5.000000e+001
    endloop
  endfacet
  facet normal  0.000000e+000  0.000000e+000  1.000000e+000
    outer loop
      vertex  5.000000e+001  0.000000e+000  0.000000e+000
      vertex  4.131759e+001  7.596123e-001  0.000000e+000
      vertex  3.061617e-015  0.000000e+000  0.000000e+000
    endloop
  endfacet
  facet normal  -0.000000e+000  0.000000e+000  1.000000e+000
    outer loop
      vertex  5.000000e+001  0.000000e+000  0.000000e+000
      vertex  3.061617e-015  0.000000e+000  0.000000e+000
      vertex  8.682409e+000 -7.596123e-001  0.000000e+000
    endloop
  endfacet
  facet normal  -0.000000e+000  0.000000e+000  1.000000e+000
    outer loop
      vertex  5.000000e+001  0.000000e+000  0.000000e+000
      vertex  8.682409e+000 -7.596123e-001  0.000000e+000
      vertex  1.710101e+001 -3.015369e+000  0.000000e+000
    endloop
  endfacet
  facet normal  -0.000000e+000  0.000000e+000  1.000000e+000
    outer loop
      vertex  5.000000e+001  0.000000e+000  0.000000e+000
      vertex  1.710101e+001 -3.015369e+000  0.000000e+000
      vertex  2.500000e+001 -6.698730e+000  0.000000e+000
    endloop
  endfacet
  facet normal  -0.000000e+000  0.000000e+000  1.000000e+000
    outer loop
      vertex  5.000000e+001  0.000000e+000  0.000000e+000
      vertex  2.500000e+001 -6.698730e+000  0.000000e+000
      vertex  3.213938e+001 -1.169778e+001  0.000000e+000
    endloop
  endfacet
  facet normal  -0.000000e+000  0.000000e+000  1.000000e+000
    outer loop
      vertex  5.000000e+001  0.000000e+000  0.000000e+000
      vertex  3.213938e+001 -1.169778e+001  0.000000e+000
      vertex  3.830222e+001 -1.786062e+001  0.000000e+000
    endloop
  endfacet
  facet normal  -0.000000e+000  0.000000e+000  1.000000e+000
    outer loop
      vertex  5.000000e+001  0.000000e+000  0.000000e+000
      vertex  3.830222e+001 -1.786062e+001  0.000000e+000
      vertex  4.330127e+001 -2.500000e+001  0.000000e+000
    endloop
  endfacet
  facet normal  -0.000000e+000  0.000000e+000  1.000000e+000
    outer loop
      vertex  5.000000e+001  0.000000e+000  0.000000e+000
      vertex  4.330127e+001 -2.500000e+001  0.000000e+000
      vertex  4.698463e+001 -3.289899e+001  0.000000e+000
    endloop
  endfacet
  facet normal  -0.000000e+000  0.000000e+000  1.000000e+000
    outer loop
      vertex  5.000000e+001  0.000000e+000  0.000000e+000
      vertex  4.698463e+001 -3.289899e+001  0.000000e+000
      vertex  4.924039e+001 -4.131759e+001  0.000000e+000
    endloop
  endfacet
  facet normal  -0.000000e+000  0.000000e+000  1.000000e+000
    outer loop
      vertex  5.000000e+001  0.000000e+000  0.000000e+000
      vertex  4.924039e+001 -4.131759e+001  0.000000e+000
      vertex  5.000000e+001 -5.000000e+001  0.000000e+000
    endloop
  endfacet
  facet normal  0.000000e+000  0.000000e+000  1.000000e+000
    outer loop
      vertex -5.000000e+001  9.514119e-005  0.000000e+000
      vertex -5.000000e+001 -5.000000e+001  0.000000e+000
      vertex -4.924039e+001 -4.131759e+001  0.000000e+000
    endloop
  endfacet
  facet normal  0.000000e+000  -0.000000e+000  1.000000e+000
    outer loop
      vertex -5.000000e+001  9.514119e-005  0.000000e+000
      vertex -4.924039e+001 -4.131759e+001  0.000000e+000
      vertex -4.698463e+001 -3.289899e+001  0.000000e+000
    endloop
  endfacet
  facet normal  0.000000e+000  -0.000000e+000  1.000000e+000
    outer loop
      vertex -5.000000e+001  9.514119e-005  0.000000e+000
      vertex -4.698463e+001 -3.289899e+001  0.000000e+000
      vertex -4.330127e+001 -2.500000e+001  0.000000e+000
    endloop
  endfacet
  facet normal  0.000000e+000  -0.000000e+000  1.000000e+000
    outer loop
      vertex -5.000000e+001  9.514119e-005  0.000000e+000
      vertex -4.330127e+001 -2.500000e+001  0.000000e+000
      vertex -3.830222e+001 -1.786062e+001  0.000000e+000
    endloop
  endfacet
  facet normal  0.000000e+000  -0.000000e+000  1.000000e+000
    outer loop
      vertex -5.000000e+001  9.514119e-005  0.000000e+000
      vertex -3.830222e+001 -1.786062e+001  0.000000e+000
      vertex -3.213938e+001 -1.169778e+001  0.000000e+000
    endloop
  endfacet
  facet normal  0.000000e+000  -0.000000e+000  1.000000e+000
    outer loop
      vertex -5.000000e+001  9.514119e-005  0.000000e+000
      vertex -3.213938e+001 -1.169778e+001  0.000000e+000
      vertex -2.500000e+001 -6.698730e+000  0.000000e+000
    endloop
  endfacet
  facet normal  0.000000e+000  -0.000000e+000  1.000000e+000
    outer loop
      vertex -5.000000e+001  9.514119e-005  0.000000e+000
      vertex -2.500000e+001 -6.698730e+000  0.000000e+000
      vertex -1.710101e+001 -3.015369e+000  0.000000e+000
    endloop
  endfacet
  facet normal  0.000000e+000  -0.000000e+000  9.999999e-001
    outer loop
      vertex -5.000000e+001  9.514119e-005  0.000000e+000
      vertex -1.710101e+001 -3.015369e+000  0.000000e+000
      vertex -8.682409e+000 -7.596123e-001  0.000000e+000
    endloop
  endfacet
  facet normal  0.000000e+000  -0.000000e+000  1.000000e+000
    outer loop
      vertex -5.000000e+001  9.514119e-005  0.000000e+000
      vertex -8.682409e+000 -7.596123e-001  0.000000e+000
      vertex  3.061617e-015  0.000000e+000  0.000000e+000
    endloop
  endfacet
  facet normal  0.000000e+000  -0.000000e+000  1.000000e+000
    outer loop
      vertex -5.000000e+001  9.514119e-005  0.000000e+000
      vertex  3.061617e-015  0.000000e+000  0.000000e+000
      vertex  4.131759e+001  7.596123e-001  0.000000e+000
    endloop
  endfacet
  facet normal  0.000000e+000  0.000000e+000  1.000000e+000
    outer loop
      vertex -5.000000e+001  9.514119e-005  0.000000e+000
      vertex  4.131759e+001  7.596123e-001  0.000000e+000
      vertex  3.289899e+001  3.015369e+000  0.000000e+000
    endloop
  endfacet
  facet normal  0.000000e+000  0.000000e+000  1.000000e+000
    outer loop
      vertex -5.000000e+001  9.514119e-005  0.000000e+000
      vertex  3.289899e+001  3.015369e+000  0.000000e+000
      vertex  2.500000e+001  6.698730e+000  0.000000e+000
    endloop
  endfacet
  facet normal  0.000000e+000  0.000000e+000  1.000000e+000
    outer loop
      vertex -5.000000e+001  9.514119e-005  0.000000e+000
      vertex  2.500000e+001  6.698730e+000  0.000000e+000
      vertex -4.924038e+001  8.682484e+000  0.000000e+000
    endloop
  endfacet
  facet normal  -0.000000e+000  0.000000e+000  1.000000e+000
    outer loop
      vertex -8.149332e-005  5.000000e+001  0.000000e+000
      vertex -8.682469e+000  4.924038e+001  0.000000e+000
      vertex  7.596123e-001  4.131759e+001  0.000000e+000
    endloop
  endfacet
  facet normal  0.000000e+000  0.000000e+000  1.000000e+000
    outer loop
      vertex  7.596123e-001  4.131759e+001  0.000000e+000
      vertex -8.682469e+000  4.924038e+001  0.000000e+000
      vertex -1.710105e+001  4.698462e+001  0.000000e+000
    endloop
  endfacet
  facet normal  0.000000e+000  0.000000e+000  1.000000e+000
    outer loop
      vertex  7.596123e-001  4.131759e+001  0.000000e+000
      vertex -1.710105e+001  4.698462e+001  0.000000e+000
      vertex -2.500002e+001  4.330126e+001  0.000000e+000
    endloop
  endfacet
  facet normal  0.000000e+000  0.000000e+000  1.000000e+000
    outer loop
      vertex  7.596123e-001  4.131759e+001  0.000000e+000
      vertex -2.500002e+001  4.330126e+001  0.000000e+000
      vertex  3.015369e+000  3.289899e+001  0.000000e+000
    endloop
  endfacet
  facet normal  0.000000e+000  0.000000e+000  1.000000e+000
    outer loop
      vertex  3.015369e+000  3.289899e+001  0.000000e+000
      vertex -2.500002e+001  4.330126e+001  0.000000e+000
      vertex -3.213938e+001  3.830222e+001  0.000000e+000
    endloop
  endfacet
  facet normal  0.000000e+000  0.000000e+000  1.000000e+000
    outer loop
      vertex  3.015369e+000  3.289899e+001  0.000000e+000
      vertex -3.213938e+001  3.830222e+001  0.000000e+000
      vertex -3.830221e+001  3.213939e+001  0.000000e+000
    endloop
  endfacet
  facet normal  -0.000000e+000  0.000000e+000  1.000000e+000
    outer loop
      vertex  3.015369e+000  3.289899e+001  0.000000e+000
      vertex -3.830221e+001  3.213939e+001  0.000000e+000
      vertex  6.698730e+000  2.500000e+001  0.000000e+000
    endloop
  endfacet
  facet normal  0.000000e+000  0.000000e+000  9.999999e-001
    outer loop
      vertex  6.698730e+000  2.500000e+001  0.000000e+000
      vertex -3.830221e+001  3.213939e+001  0.000000e+000
      vertex -4.330125e+001  2.500003e+001  0.000000e+000
    endloop
  endfacet
  facet normal  0.000000e+000  0.000000e+000  1.000000e+000
    outer loop
      vertex  6.698730e+000  2.500000e+001  0.000000e+000
      vertex -4.330125e+001  2.500003e+001  0.000000e+000
      vertex  1.169778e+001  1.786062e+001  0.000000e+000
    endloop
  endfacet
  facet normal  0.000000e+000  0.000000e+000  1.000000e+000
    outer loop
      vertex  1.169778e+001  1.786062e+001  0.000000e+000
      vertex -4.330125e+001  2.500003e+001  0.000000e+000
      vertex -4.698461e+001  1.710106e+001  0.000000e+000
    endloop
  endfacet
  facet normal  -0.000000e+000  0.000000e+000  1.000000e+000
    outer loop
      vertex  1.169778e+001  1.786062e+001  0.000000e+000
      vertex -4.698461e+001  1.710106e+001  0.000000e+000
      vertex  1.786062e+001  1.169778e+001  0.000000e+000
    endloop
  endfacet
  facet normal  0.000000e+000  0.000000e+000  1.000000e+000
    outer loop
      vertex  1.786062e+001  1.169778e+001  0.000000e+000
      vertex -4.698461e+001  1.710106e+001  0.000000e+000
      vertex -4.924038e+001  8.682484e+000  0.000000e+000
    endloop
  endfacet
  facet normal  -0.000000e+000  0.000000e+000  1.000000e+000
    outer loop
      vertex  1.786062e+001  1.169778e+001  0.000000e+000
      vertex -4.924038e+001  8.682484e+000  0.000000e+000
      vertex  2.500000e+001  6.698730e+000  0.000000e+000
    endloop
  endfacet
  facet normal  0.000000e+000  1.000000e+000  0.000000e+000
    outer loop
      vertex -5.000000e+001  5.000000e+001 -5.000000e+001
      vertex -5.000000e+001  5.000000e+001 -5.000000e+000
      vertex  5.000000e+001  5.000000e+001 -5.000000e+001
    endloop
  endfacet
  facet normal  0.000000e+000  1.000000e+000  0.000000e+000
    outer loop
      vertex  5.000000e+001  5.000000e+001 -5.000000e+001
      vertex -5.000000e+001  5.000000e+001 -5.000000e+000
      vertex -8.149332e-005  5.000000e+001 -5.000000e+000
    endloop
  endfacet
  facet normal  -0.000000e+000  1.000000e+000  0.000000e+000
    outer loop
      vertex  5.000000e+001  5.000000e+001 -5.000000e+001
      vertex -8.149332e-005  5.000000e+001 -5.000000e+000
      vertex  5.000000e+001  5.000000e+001 -3.000000e+000
    endloop
  endfacet
  facet normal  0.000000e+000  1.000000e+000  0.000000e+000
    outer loop
      vertex  5.000000e+001  5.000000e+001 -3.000000e+000
      vertex -8.149332e-005  5.000000e+001 -5.000000e+000
      vertex  0.000000e+000  5.000000e+001 -3.000000e+000
    endloop
  endfacet
  facet normal  0.000000e+000  0.000000e+000  1.000000e+000
    outer loop
      vertex -5.000000e+001  5.000000e+001 -5.000000e+000
      vertex -5.000000e+001  9.514119e-005 -5.000000e+000
      vertex -4.924038e+001  8.682484e+000 -5.000000e+000
    endloop
  endfacet
  facet normal  0.000000e+000  -0.000000e+000  1.000000e+000
    outer loop
      vertex -5.000000e+001  5.000000e+001 -5.000000e+000
      vertex -4.924038e+001  8.682484e+000 -5.000000e+000
      vertex -4.698461e+001  1.710106e+001 -5.000000e+000
    endloop
  endfacet
  facet normal  0.000000e+000  -0.000000e+000  1.000000e+000
    outer loop
      vertex -5.000000e+001  5.000000e+001 -5.000000e+000
      vertex -4.698461e+001  1.710106e+001 -5.000000e+000
      vertex -4.330125e+001  2.500003e+001 -5.000000e+000
    endloop
  endfacet
  facet normal  0.000000e+000  -0.000000e+000  1.000000e+000
    outer loop
      vertex -5.000000e+001  5.000000e+001 -5.000000e+000
      vertex -4.330125e+001  2.500003e+001 -5.000000e+000
      vertex -3.830221e+001  3.213939e+001 -5.000000e+000
    endloop
  endfacet
  facet normal  0.000000e+000  -0.000000e+000  1.000000e+000
    outer loop
      vertex -5.000000e+001  5.000000e+001 -5.000000e+000
      vertex -3.830221e+001  3.213939e+001 -5.000000e+000
      vertex -3.213938e+001  3.830222e+001 -5.000000e+000
    endloop
  endfacet
  facet normal  0.000000e+000  -0.000000e+000  1.000000e+000
    outer loop
      vertex -5.000000e+001  5.000000e+001 -5.000000e+000
      vertex -3.213938e+001  3.830222e+001 -5.000000e+000
      vertex -2.500002e+001  4.330126e+001 -5.000000e+000
    endloop
  endfacet
  facet normal  0.000000e+000  -0.000000e+000  1.000000e+000
    outer loop
      vertex -5.000000e+001  5.000000e+001 -5.000000e+000
      vertex -2.500002e+001  4.330126e+001 -5.000000e+000
      vertex -1.710105e+001  4.698462e+001 -5.000000e+000
    endloop
  endfacet
  facet normal  0.000000e+000  -0.000000e+000  9.999999e-001
    outer loop
      vertex -5.000000e+001  5.000000e+001 -5.000000e+000
      vertex -1.710105e+001  4.698462e+001 -5.000000e+000
      vertex -8.682469e+000  4.924038e+001 -5.000000e+000
    endloop
  endfacet
  facet normal  0.000000e+000  -0.000000e+000  1.000000e+000
    outer loop
      vertex -5.000000e+001  5.000000e+001 -5.000000e+000
      vertex -8.682469e+000  4.924038e+001 -5.000000e+000
      vertex -8.149332e-005  5.000000e+001 -5.000000e+000
    endloop
  endfacet
  facet normal  5.735763e-001  8.191521e-001  0.000000e+000
    outer loop
      vertex  1.786062e+001  1.169778e+001 -3.000000e+000
      vertex  2.500000e+001  6.698730e+000  0.000000e+000
      vertex  2.500000e+001  6.698730e+000 -3.000000e+000
    endloop
  endfacet
  facet normal  4.226182e-001  9.063078e-001  -0.000000e+000
    outer loop
      vertex  2.500000e+001  6.698730e+000 -3.000000e+000
      vertex  2.500000e+001  6.698730e+000  0.000000e+000
      vertex  3.289899e+001  3.015369e+000  0.000000e+000
    endloop
  endfacet
  facet normal  4.226182e-001  9.063078e-001  0.000000e+000
    outer loop
      vertex  2.500000e+001  6.698730e+000 -3.000000e+000
      vertex  3.289899e+001  3.015369e+000  0.000000e+000
      vertex  3.289899e+001  3.015369e+000 -3.000000e+000
    endloop
  endfacet
  facet normal  2.588191e-001  9.659258e-001  -0.000000e+000
    outer loop
      vertex  3.289899e+001  3.015369e+000 -3.000000e+000
      vertex  3.289899e+001  3.015369e+000  0.000000e+000
      vertex  4.131759e+001  7.596123e-001  0.000000e+000
    endloop
  endfacet
  facet normal  2.588191e-001  9.659258e-001  0.000000e+000
    outer loop
      vertex  3.289899e+001  3.015369e+000 -3.000000e+000
      vertex  4.131759e+001  7.596123e-001  0.000000e+000
      vertex  4.131759e+001  7.596123e-001 -3.000000e+000
    endloop
  endfacet
  facet normal  8.715575e-002  9.961947e-001  -0.000000e+000
    outer loop
      vertex  4.131759e+001  7.596123e-001 -3.000000e+000
      vertex  4.131759e+001  7.596123e-001  0.000000e+000
      vertex  5.000000e+001  0.000000e+000  0.000000e+000
    endloop
  endfacet
  facet normal  8.715575e-002  9.961947e-001  0.000000e+000
    outer loop
      vertex  4.131759e+001  7.596123e-001 -3.000000e+000
      vertex  5.000000e+001  0.000000e+000  0.000000e+000
      vertex  5.000000e+001  0.000000e+000 -3.000000e+000
    endloop
  endfacet
  facet normal  5.735763e-001  8.191521e-001  -0.000000e+000
    outer loop
      vertex  2.500000e+001  6.698730e+000  0.000000e+000
      vertex  1.786062e+001  1.169778e+001 -3.000000e+000
      vertex  1.786062e+001  1.169778e+001  0.000000e+000
    endloop
  endfacet
  facet normal  7.071067e-001  7.071067e-001  0.000000e+000
    outer loop
      vertex  1.786062e+001  1.169778e+001  0.000000e+000
      vertex  1.786062e+001  1.169778e+001 -3.000000e+000
      vertex  1.169778e+001  1.786062e+001 -3.000000e+000
    endloop
  endfacet
  facet normal  7.071067e-001  7.071067e-001  -0.000000e+000
    outer loop
      vertex  1.786062e+001  1.169778e+001  0.000000e+000
      vertex  1.169778e+001  1.786062e+001 -3.000000e+000
      vertex  1.169778e+001  1.786062e+001  0.000000e+000
    endloop
  endfacet
  facet normal  8.191521e-001  5.735763e-001  0.000000e+000
    outer loop
      vertex  1.169778e+001  1.786062e+001  0.000000e+000
      vertex  1.169778e+001  1.786062e+001 -3.000000e+000
      vertex  6.698730e+000  2.500000e+001 -3.000000e+000
    endloop
  endfacet
  facet normal  8.191521e-001  5.735763e-001  -0.000000e+000
    outer loop
      vertex  1.169778e+001  1.786062e+001  0.000000e+000
      vertex  6.698730e+000  2.500000e+001 -3.000000e+000
      vertex  6.698730e+000  2.500000e+001  0.000000e+000
    endloop
  endfacet
  facet normal  9.063078e-001  4.226182e-001  0.000000e+000
    outer loop
      vertex  6.698730e+000  2.500000e+001  0.000000e+000
      vertex  6.698730e+000  2.500000e+001 -3.000000e+000
      vertex  3.015369e+000  3.289899e+001 -3.000000e+000
    endloop
  endfacet
  facet normal  9.063078e-001  4.226182e-001  -0.000000e+000
    outer loop
      vertex  6.698730e+000  2.500000e+001  0.000000e+000
      vertex  3.015369e+000  3.289899e+001 -3.000000e+000
      vertex  3.015369e+000  3.289899e+001  0.000000e+000
    endloop
  endfacet
  facet normal  9.659258e-001  2.588191e-001  0.000000e+000
    outer loop
      vertex  3.015369e+000  3.289899e+001  0.000000e+000
      vertex  3.015369e+000  3.289899e+001 -3.000000e+000
      vertex  7.596123e-001  4.131759e+001 -3.000000e+000
    endloop
  endfacet
  facet normal  9.659258e-001  2.588191e-001  -0.000000e+000
    outer loop
      vertex  3.015369e+000  3.289899e+001  0.000000e+000
      vertex  7.596123e-001  4.131759e+001 -3.000000e+000
      vertex  7.596123e-001  4.131759e+001  0.000000e+000
    endloop
  endfacet
  facet normal  9.961947e-001  8.715575e-002  0.000000e+000
    outer loop
      vertex  7.596123e-001  4.131759e+001  0.000000e+000
      vertex  7.596123e-001  4.131759e+001 -3.000000e+000
      vertex  0.000000e+000  5.000000e+001 -3.000000e+000
    endloop
  endfacet
  facet normal  9.961939e-001  8.716503e-002  2.706105e-005
    outer loop
      vertex  7.596123e-001  4.131759e+001  0.000000e+000
      vertex  0.000000e+000  5.000000e+001 -3.000000e+000
      vertex -8.149332e-005  5.000000e+001  0.000000e+000
    endloop
  endfacet
  facet normal  0.000000e+000  0.000000e+000  1.000000e+000
    outer loop
      vertex  5.000000e+001  0.000000e+000 -3.000000e+000
      vertex  5.000000e+001  5.000000e+001 -3.000000e+000
      vertex  0.000000e+000  5.000000e+001 -3.000000e+000
    endloop
  endfacet
  facet normal  0.000000e+000  0.000000e+000  1.000000e+000
    outer loop
      vertex  5.000000e+001  0.000000e+000 -3.000000e+000
      vertex  0.000000e+000  5.000000e+001 -3.000000e+000
      vertex  7.596123e-001  4.131759e+001 -3.000000e+000
    endloop
  endfacet
  facet normal  0.000000e+000  0.000000e+000  1.000000e+000
    outer loop
      vertex  5.000000e+001  0.000000e+000 -3.000000e+000
      vertex  7.596123e-001  4.131759e+001 -3.000000e+000
      vertex  3.015369e+000  3.289899e+001 -3.000000e+000
    endloop
  endfacet
  facet normal  0.000000e+000  0.000000e+000  1.000000e+000
    outer loop
      vertex  5.000000e+001  0.000000e+000 -3.000000e+000
      vertex  3.015369e+000  3.289899e+001 -3.000000e+000
      vertex  6.698730e+000  2.500000e+001 -3.000000e+000
    endloop
  endfacet
  facet normal  0.000000e+000  0.000000e+000  1.000000e+000
    outer loop
      vertex  5.000000e+001  0.000000e+000 -3.000000e+000
      vertex  6.698730e+000  2.500000e+001 -3.000000e+000
      vertex  1.169778e+001  1.786062e+001 -3.000000e+000
    endloop
  endfacet
  facet normal  0.000000e+000  0.000000e+000  1.000000e+000
    outer loop
      vertex  5.000000e+001  0.000000e+000 -3.000000e+000
      vertex  1.169778e+001  1.786062e+001 -3.000000e+000
      vertex  1.786062e+001  1.169778e+001 -3.000000e+000
    endloop
  endfacet
  facet normal  0.000000e+000  0.000000e+000  1.000000e+000
    outer loop
      vertex  5.000000e+001  0.000000e+000 -3.000000e+000
      vertex  1.786062e+001  1.169778e+001 -3.000000e+000
      vertex  2.500000e+001  6.698730e+000 -3.000000e+000
    endloop
  endfacet
  facet normal  0.000000e+000  0.000000e+000  1.000000e+000
    outer loop
      vertex  5.000000e+001  0.000000e+000 -3.000000e+000
      vertex  2.500000e+001  6.698730e+000 -3.000000e+000
      vertex  3.289899e+001  3.015369e+000 -3.000000e+000
    endloop
  endfacet
  facet normal  0.000000e+000  0.000000e+000  1.000000e+000
    outer loop
      vertex  5.000000e+001  0.000000e+000 -3.000000e+000
      vertex  3.289899e+001  3.015369e+000 -3.000000e+000
      vertex  4.131759e+001  7.596123e-001 -3.000000e+000
    endloop
  endfacet
  facet normal  1.000000e+000  -0.000000e+000  0.000000e+000
    outer loop
      vertex  5.000000e+001  0.000000e+000  0.000000e+000
      vertex  5.000000e+001 -5.000000e+001  0.000000e+000
      vertex  5.000000e+001  0.000000e+000 -3.000000e+000
    endloop
  endfacet
  facet normal  1.000000e+000  0.000000e+000  0.000000e+000
    outer loop
      vertex  5.000000e+001  0.000000e+000 -3.000000e+000
      vertex  5.000000e+001 -5.000000e+001  0.000000e+000
      vertex  5.000000e+001 -5.000000e+001 -1.000000e+001
    endloop
  endfacet
  facet normal  1.000000e+000  -0.000000e+000  0.000000e+000
    outer loop
      vertex  5.000000e+001  0.000000e+000 -3.000000e+000
      vertex  5.000000e+001 -5.000000e+001 -1.000000e+001
      vertex  5.000000e+001 -5.000000e+001 -5.000000e+001
    endloop
  endfacet
  facet normal  1.000000e+000  0.000000e+000  0.000000e+000
    outer loop
      vertex  5.000000e+001  5.000000e+001 -5.000000e+001
      vertex  5.000000e+001  5.000000e+001 -3.000000e+000
      vertex  5.000000e+001 -5.000000e+001 -5.000000e+001
    endloop
  endfacet
  facet normal  1.000000e+000  0.000000e+000  0.000000e+000
    outer loop
      vertex  5.000000e+001 -5.000000e+001 -5.000000e+001
      vertex  5.000000e+001  5.000000e+001 -3.000000e+000
      vertex  5.000000e+001  0.000000e+000 -3.000000e+000
    endloop
  endfacet
  facet normal  8.715573e-002 -9.961947e-001  0.000000e+000
    outer loop
      vertex  3.061617e-015  0.000000e+000 -1.000000e+001
      vertex -8.682409e+000 -7.596123e-001  0.000000e+000
      vertex -8.682409e+000 -7.596123e-001 -1.000000e+001
    endloop
  endfacet
  facet normal  2.588190e-001 -9.659258e-001  0.000000e+000
    outer loop
      vertex -8.682409e+000 -7.596123e-001 -1.000000e+001
      vertex -8.682409e+000 -7.596123e-001  0.000000e+000
      vertex -1.710101e+001 -3.015369e+000  0.000000e+000
    endloop
  endfacet
  facet normal  2.588190e-001 -9.659258e-001  0.000000e+000
    outer loop
      vertex -8.682409e+000 -7.596123e-001 -1.000000e+001
      vertex -1.710101e+001 -3.015369e+000  0.000000e+000
      vertex -1.710101e+001 -3.015369e+000 -1.000000e+001
    endloop
  endfacet
  facet normal  4.226183e-001 -9.063078e-001  0.000000e+000
    outer loop
      vertex -1.710101e+001 -3.015369e+000 -1.000000e+001
      vertex -1.710101e+001 -3.015369e+000  0.000000e+000
      vertex -2.500000e+001 -6.698730e+000  0.000000e+000
    endloop
  endfacet
  facet normal  4.226183e-001 -9.063078e-001  0.000000e+000
    outer loop
      vertex -1.710101e+001 -3.015369e+000 -1.000000e+001
      vertex -2.500000e+001 -6.698730e+000  0.000000e+000
      vertex -2.500000e+001 -6.698730e+000 -1.000000e+001
    endloop
  endfacet
  facet normal  5.735764e-001 -8.191521e-001  0.000000e+000
    outer loop
      vertex -2.500000e+001 -6.698730e+000 -1.000000e+001
      vertex -2.500000e+001 -6.698730e+000  0.000000e+000
      vertex -3.213938e+001 -1.169778e+001  0.000000e+000
    endloop
  endfacet
  facet normal  5.735764e-001 -8.191521e-001  0.000000e+000
    outer loop
      vertex -2.500000e+001 -6.698730e+000 -1.000000e+001
      vertex -3.213938e+001 -1.169778e+001  0.000000e+000
      vertex -3.213938e+001 -1.169778e+001 -1.000000e+001
    endloop
  endfacet
  facet normal  7.071067e-001 -7.071068e-001  0.000000e+000
    outer loop
      vertex -3.213938e+001 -1.169778e+001 -1.000000e+001
      vertex -3.213938e+001 -1.169778e+001  0.000000e+000
      vertex -3.830222e+001 -1.786062e+001  0.000000e+000
    endloop
  endfacet
  facet normal  7.071067e-001 -7.071068e-001  0.000000e+000
    outer loop
      vertex -3.213938e+001 -1.169778e+001 -1.000000e+001
      vertex -3.830222e+001 -1.786062e+001  0.000000e+000
      vertex -3.830222e+001 -1.786062e+001 -1.000000e+001
    endloop
  endfacet
  facet normal  8.191522e-001 -5.735763e-001  0.000000e+000
    outer loop
      vertex -3.830222e+001 -1.786062e+001 -1.000000e+001
      vertex -3.830222e+001 -1.786062e+001  0.000000e+000
      vertex -4.330127e+001 -2.500000e+001  0.000000e+000
    endloop
  endfacet
  facet normal  8.191522e-001 -5.735763e-001  0.000000e+000
    outer loop
      vertex -3.830222e+001 -1.786062e+001 -1.000000e+001
      vertex -4.330127e+001 -2.500000e+001  0.000000e+000
      vertex -4.330127e+001 -2.500000e+001 -1.000000e+001
    endloop
  endfacet
  facet normal  9.063078e-001 -4.226182e-001  0.000000e+000
    outer loop
      vertex -4.330127e+001 -2.500000e+001 -1.000000e+001
      vertex -4.330127e+001 -2.500000e+001  0.000000e+000
      vertex -4.698463e+001 -3.289899e+001  0.000000e+000
    endloop
  endfacet
  facet normal  9.063078e-001 -4.226182e-001  0.000000e+000
    outer loop
      vertex -4.330127e+001 -2.500000e+001 -1.000000e+001
      vertex -4.698463e+001 -3.289899e+001  0.000000e+000
      vertex -4.698463e+001 -3.289899e+001 -1.000000e+001
    endloop
  endfacet
  facet normal  9.659258e-001 -2.588190e-001  0.000000e+000
    outer loop
      vertex -4.698463e+001 -3.289899e+001 -1.000000e+001
      vertex -4.698463e+001 -3.289899e+001  0.000000e+000
      vertex -4.924039e+001 -4.131759e+001  0.000000e+000
    endloop
  endfacet
  facet normal  9.659258e-001 -2.588190e-001  0.000000e+000
    outer loop
      vertex -4.698463e+001 -3.289899e+001 -1.000000e+001
      vertex -4.924039e+001 -4.131759e+001  0.000000e+000
      vertex -4.924039e+001 -4.131759e+001 -1.000000e+001
    endloop
  endfacet
  facet normal  9.961946e-001 -8.715583e-002  0.000000e+000
    outer loop
      vertex -4.924039e+001 -4.131759e+001 -1.000000e+001
      vertex -4.924039e+001 -4.131759e+001  0.000000e+000
      vertex -5.000000e+001 -5.000000e+001  0.000000e+000
    endloop
  endfacet
  facet normal  9.961946e-001 -8.715583e-002  0.000000e+000
    outer loop
      vertex -4.924039e+001 -4.131759e+001 -1.000000e+001
      vertex -5.000000e+001 -5.000000e+001  0.000000e+000
      vertex -5.000000e+001 -5.000000e+001 -1.000000e+001
    endloop
  endfacet
  facet normal  8.715573e-002 -9.961947e-001  0.000000e+000
    outer loop
      vertex -8.682409e+000 -7.596123e-001  0.000000e+000
      vertex  3.061617e-015  0.000000e+000 -1.000000e+001
      vertex  3.061617e-015  0.000000e+000  0.000000e+000
    endloop
  endfacet
  facet normal -8.715573e-002 -9.961947e-001  -0.000000e+000
    outer loop
      vertex  3.061617e-015  0.000000e+000  0.000000e+000
      vertex  3.061617e-015  0.000000e+000 -1.000000e+001
      vertex  8.682409e+000 -7.596123e-001 -1.000000e+001
    endloop
  endfacet
  facet normal -8.715573e-002 -9.961947e-001  0.000000e+000
    outer loop
      vertex  3.061617e-015  0.000000e+000  0.000000e+000
      vertex  8.682409e+000 -7.596123e-001 -1.000000e+001
      vertex  8.682409e+000 -7.596123e-001  0.000000e+000
    endloop
  endfacet
  facet normal -2.588190e-001 -9.659258e-001  -0.000000e+000
    outer loop
      vertex  8.682409e+000 -7.596123e-001  0.000000e+000
      vertex  8.682409e+000 -7.596123e-001 -1.000000e+001
      vertex  1.710101e+001 -3.015369e+000 -1.000000e+001
    endloop
  endfacet
  facet normal -2.588190e-001 -9.659258e-001  0.000000e+000
    outer loop
      vertex  8.682409e+000 -7.596123e-001  0.000000e+000
      vertex  1.710101e+001 -3.015369e+000 -1.000000e+001
      vertex  1.710101e+001 -3.015369e+000  0.000000e+000
    endloop
  endfacet
  facet normal -4.226183e-001 -9.063078e-001  -0.000000e+000
    outer loop
      vertex  1.710101e+001 -3.015369e+000  0.000000e+000
      vertex  1.710101e+001 -3.015369e+000 -1.000000e+001
      vertex  2.500000e+001 -6.698730e+000 -1.000000e+001
    endloop
  endfacet
  facet normal -4.226183e-001 -9.063078e-001  0.000000e+000
    outer loop
      vertex  1.710101e+001 -3.015369e+000  0.000000e+000
      vertex  2.500000e+001 -6.698730e+000 -1.000000e+001
      vertex  2.500000e+001 -6.698730e+000  0.000000e+000
    endloop
  endfacet
  facet normal -5.735764e-001 -8.191521e-001  -0.000000e+000
    outer loop
      vertex  2.500000e+001 -6.698730e+000  0.000000e+000
      vertex  2.500000e+001 -6.698730e+000 -1.000000e+001
      vertex  3.213938e+001 -1.169778e+001 -1.000000e+001
    endloop
  endfacet
  facet normal -5.735764e-001 -8.191521e-001  0.000000e+000
    outer loop
      vertex  2.500000e+001 -6.698730e+000  0.000000e+000
      vertex  3.213938e+001 -1.169778e+001 -1.000000e+001
      vertex  3.213938e+001 -1.169778e+001  0.000000e+000
    endloop
  endfacet
  facet normal -7.071067e-001 -7.071068e-001  -0.000000e+000
    outer loop
      vertex  3.213938e+001 -1.169778e+001  0.000000e+000
      vertex  3.213938e+001 -1.169778e+001 -1.000000e+001
      vertex  3.830222e+001 -1.786062e+001 -1.000000e+001
    endloop
  endfacet
  facet normal -7.071067e-001 -7.071068e-001  0.000000e+000
    outer loop
      vertex  3.213938e+001 -1.169778e+001  0.000000e+000
      vertex  3.830222e+001 -1.786062e+001 -1.000000e+001
      vertex  3.830222e+001 -1.786062e+001  0.000000e+000
    endloop
  endfacet
  facet normal -8.191522e-001 -5.735763e-001  -0.000000e+000
    outer loop
      vertex  3.830222e+001 -1.786062e+001  0.000000e+000
      vertex  3.830222e+001 -1.786062e+001 -1.000000e+001
      vertex  4.330127e+001 -2.500000e+001 -1.000000e+001
    endloop
  endfacet
  facet normal -8.191522e-001 -5.735763e-001  0.000000e+000
    outer loop
      vertex  3.830222e+001 -1.786062e+001  0.000000e+000
      vertex  4.330127e+001 -2.500000e+001 -1.000000e+001
      vertex  4.330127e+001 -2.500000e+001  0.000000e+000
    endloop
  endfacet
  facet normal -9.063078e-001 -4.226182e-001  -0.000000e+000
    outer loop
      vertex  4.330127e+001 -2.500000e+001  0.000000e+000
      vertex  4.330127e+001 -2.500000e+001 -1.000000e+001
      vertex  4.698463e+001 -3.289899e+001 -1.000000e+001
    endloop
  endfacet
  facet normal -9.063078e-001 -4.226182e-001  0.000000e+000
    outer loop
      vertex  4.330127e+001 -2.500000e+001  0.000000e+000
      vertex  4.698463e+001 -3.289899e+001 -1.000000e+001
      vertex  4.698463e+001 -3.289899e+001  0.000000e+000
    endloop
  endfacet
  facet normal -9.659258e-001 -2.588190e-001  -0.000000e+000
    outer loop
      vertex  4.698463e+001 -3.289899e+001  0.000000e+000
      vertex  4.698463e+001 -3.289899e+001 -1.000000e+001
      vertex  4.924039e+001 -4.131759e+001 -1.000000e+001
    endloop
  endfacet
  facet normal -9.659258e-001 -2.588190e-001  0.000000e+000
    outer loop
      vertex  4.698463e+001 -3.289899e+001  0.000000e+000
      vertex  4.924039e+001 -4.131759e+001 -1.000000e+001
      vertex  4.924039e+001 -4.131759e+001  0.000000e+000
    endloop
  endfacet
  facet normal -9.961946e-001 -8.715583e-002  -0.000000e+000
    outer loop
      vertex  4.924039e+001 -4.131759e+001  0.000000e+000
      vertex  4.924039e+001 -4.131759e+001 -1.000000e+001
      vertex  5.000000e+001 -5.000000e+001 -1.000000e+001
    endloop
  endfacet
  facet normal -9.961946e-001 -8.715583e-002  0.000000e+000
    outer loop
      vertex  4.924039e+001 -4.131759e+001  0.000000e+000
      vertex  5.000000e+001 -5.000000e+001 -1.000000e+001
      vertex  5.000000e+001 -5.000000e+001  0.000000e+000
    endloop
  endfacet
  facet normal  0.000000e+000 -1.000000e+000  0.000000e+000
    outer loop
      vertex -5.000000e+001 -5.000000e+001 -1.000000e+001
      vertex -5.000000e+001 -5.000000e+001 -5.000000e+001
      vertex  0.000000e+000 -5.000000e+001 -1.000000e+001
    endloop
  endfacet
  facet normal  0.000000e+000 -1.000000e+000  -0.000000e+000
    outer loop
      vertex  0.000000e+000 -5.000000e+001 -1.000000e+001
      vertex -5.000000e+001 -5.000000e+001 -5.000000e+001
      vertex  5.000000e+001 -5.000000e+001 -5.000000e+001
    endloop
  endfacet
  facet normal  0.000000e+000 -1.000000e+000  0.000000e+000
    outer loop
      vertex  0.000000e+000 -5.000000e+001 -1.000000e+001
      vertex  5.000000e+001 -5.000000e+001 -5.000000e+001
      vertex  5.000000e+001 -5.000000e+001 -1.000000e+001
    endloop
  endfacet
  facet normal  0.000000e+000  0.000000e+000 -1.000000e+000
    outer loop
      vertex -5.000000e+001 -5.000000e+001 -5.000000e+001
      vertex -5.000000e+001  5.000000e+001 -5.000000e+001
      vertex  5.000000e+001 -5.000000e+001 -5.000000e+001
    endloop
  endfacet
  facet normal  0.000000e+000  0.000000e+000 -1.000000e+000
    outer loop
      vertex  5.000000e+001 -5.000000e+001 -5.000000e+001
      vertex -5.000000e+001  5.000000e+001 -5.000000e+001
      vertex  5.000000e+001  5.000000e+001 -5.000000e+001
    endloop
  endfacet
endsolid CATIA STL
