solid CATIA STL
  facet normal  0.000000e+000  0.000000e+000  1.000000e+000
    outer loop
      vertex -5.000000e+001 -2.500000e+001  0.000000e+000
      vertex -7.071068e+000 -2.828427e+001  0.000000e+000
      vertex -2.828427e+001 -7.071068e+000  0.000000e+000
    endloop
  endfacet
  facet normal  0.000000e+000  0.000000e+000  1.000000e+000
    outer loop
      vertex -5.000000e+001 -2.500000e+001  0.000000e+000
      vertex -2.828427e+001 -7.071068e+000  0.000000e+000
      vertex -3.045200e+001 -3.826834e+000  0.000000e+000
    endloop
  endfacet
  facet normal  0.000000e+000  0.000000e+000  1.000000e+000
    outer loop
      vertex -5.000000e+001 -2.500000e+001  0.000000e+000
      vertex -3.045200e+001 -3.826834e+000  0.000000e+000
      vertex -3.121320e+001 -5.517100e-016  0.000000e+000
    endloop
  endfacet
  facet normal  0.000000e+000  0.000000e+000  1.000000e+000
    outer loop
      vertex -5.000000e+001 -2.500000e+001  0.000000e+000
      vertex -3.121320e+001 -5.517100e-016  0.000000e+000
      vertex -5.000000e+001  0.000000e+000  0.000000e+000
    endloop
  endfacet
  facet normal  0.000000e+000  0.000000e+000  9.999999e-001
    outer loop
      vertex  0.000000e+000  5.000000e+001  0.000000e+000
      vertex -5.000000e+001  0.000000e+000  0.000000e+000
      vertex -3.826834e+000  3.045200e+001  0.000000e+000
    endloop
  endfacet
  facet normal  0.000000e+000  0.000000e+000  1.000000e+000
    outer loop
      vertex  0.000000e+000  5.000000e+001  0.000000e+000
      vertex -3.826834e+000  3.045200e+001  0.000000e+000
      vertex  9.494108e-015  3.121320e+001  0.000000e+000
    endloop
  endfacet
  facet normal  -0.000000e+000  -0.000000e+000  1.000000e+000
    outer loop
      vertex  0.000000e+000  5.000000e+001  0.000000e+000
      vertex  9.494108e-015  3.121320e+001  0.000000e+000
      vertex  5.000000e+001  2.500000e+001  0.000000e+000
    endloop
  endfacet
  facet normal  0.000000e+000  0.000000e+000  1.000000e+000
    outer loop
      vertex  0.000000e+000  5.000000e+001  0.000000e+000
      vertex  5.000000e+001  2.500000e+001  0.000000e+000
      vertex  2.500000e+001  5.000000e+001  0.000000e+000
    endloop
  endfacet
  facet normal  0.000000e+000  0.000000e+000  1.000000e+000
    outer loop
      vertex  5.000000e+001  2.500000e+001  0.000000e+000
      vertex  9.494108e-015  3.121320e+001  0.000000e+000
      vertex  3.826834e+000  3.045200e+001  0.000000e+000
    endloop
  endfacet
  facet normal  0.000000e+000  0.000000e+000  1.000000e+000
    outer loop
      vertex  5.000000e+001  2.500000e+001  0.000000e+000
      vertex  3.826834e+000  3.045200e+001  0.000000e+000
      vertex  7.071068e+000  2.828427e+001  0.000000e+000
    endloop
  endfacet
  facet normal  0.000000e+000  0.000000e+000  1.000000e+000
    outer loop
      vertex  5.000000e+001  2.500000e+001  0.000000e+000
      vertex  7.071068e+000  2.828427e+001  0.000000e+000
      vertex  2.828427e+001  7.071068e+000  0.000000e+000
    endloop
  endfacet
  facet normal  -0.000000e+000  0.000000e+000  1.000000e+000
    outer loop
      vertex  5.000000e+001  2.500000e+001  0.000000e+000
      vertex  2.828427e+001  7.071068e+000  0.000000e+000
      vertex  5.000000e+001  0.000000e+000  0.000000e+000
    endloop
  endfacet
  facet normal  0.000000e+000  0.000000e+000  1.000000e+000
    outer loop
      vertex  5.000000e+001  0.000000e+000  0.000000e+000
      vertex  2.828427e+001  7.071068e+000  0.000000e+000
      vertex  3.045200e+001  3.826834e+000  0.000000e+000
    endloop
  endfacet
  facet normal  0.000000e+000  0.000000e+000  1.000000e+000
    outer loop
      vertex  5.000000e+001  0.000000e+000  0.000000e+000
      vertex  3.045200e+001  3.826834e+000  0.000000e+000
      vertex  3.121320e+001 -1.843651e-014  0.000000e+000
    endloop
  endfacet
  facet normal  -0.000000e+000  0.000000e+000  1.000000e+000
    outer loop
      vertex  5.000000e+001  0.000000e+000  0.000000e+000
      vertex  3.121320e+001 -1.843651e-014  0.000000e+000
      vertex  3.045200e+001 -3.826834e+000  0.000000e+000
    endloop
  endfacet
  facet normal  -0.000000e+000  0.000000e+000  9.999999e-001
    outer loop
      vertex  5.000000e+001  0.000000e+000  0.000000e+000
      vertex  3.045200e+001 -3.826834e+000  0.000000e+000
      vertex -2.131628e-014 -5.000000e+001  0.000000e+000
    endloop
  endfacet
  facet normal  0.000000e+000  -0.000000e+000  1.000000e+000
    outer loop
      vertex -5.000000e+001  0.000000e+000  0.000000e+000
      vertex -3.121320e+001 -5.517100e-016  0.000000e+000
      vertex -3.045200e+001  3.826834e+000  0.000000e+000
    endloop
  endfacet
  facet normal  0.000000e+000  -0.000000e+000  1.000000e+000
    outer loop
      vertex -5.000000e+001  0.000000e+000  0.000000e+000
      vertex -3.045200e+001  3.826834e+000  0.000000e+000
      vertex -2.828427e+001  7.071068e+000  0.000000e+000
    endloop
  endfacet
  facet normal  0.000000e+000  -0.000000e+000  1.000000e+000
    outer loop
      vertex -5.000000e+001  0.000000e+000  0.000000e+000
      vertex -2.828427e+001  7.071068e+000  0.000000e+000
      vertex -7.071068e+000  2.828427e+001  0.000000e+000
    endloop
  endfacet
  facet normal  0.000000e+000  -0.000000e+000  1.000000e+000
    outer loop
      vertex -5.000000e+001  0.000000e+000  0.000000e+000
      vertex -7.071068e+000  2.828427e+001  0.000000e+000
      vertex -3.826834e+000  3.045200e+001  0.000000e+000
    endloop
  endfacet
  facet normal  0.000000e+000  -0.000000e+000  1.000000e+000
    outer loop
      vertex -2.500000e+001 -5.000000e+001  0.000000e+000
      vertex -2.131628e-014 -5.000000e+001  0.000000e+000
      vertex -9.487918e-016 -3.121320e+001  0.000000e+000
    endloop
  endfacet
  facet normal  0.000000e+000  0.000000e+000  1.000000e+000
    outer loop
      vertex -2.500000e+001 -5.000000e+001  0.000000e+000
      vertex -9.487918e-016 -3.121320e+001  0.000000e+000
      vertex -3.826834e+000 -3.045200e+001  0.000000e+000
    endloop
  endfacet
  facet normal  0.000000e+000  0.000000e+000  1.000000e+000
    outer loop
      vertex -2.500000e+001 -5.000000e+001  0.000000e+000
      vertex -3.826834e+000 -3.045200e+001  0.000000e+000
      vertex -7.071068e+000 -2.828427e+001  0.000000e+000
    endloop
  endfacet
  facet normal  0.000000e+000  0.000000e+000  1.000000e+000
    outer loop
      vertex -2.500000e+001 -5.000000e+001  0.000000e+000
      vertex -7.071068e+000 -2.828427e+001  0.000000e+000
      vertex -5.000000e+001 -2.500000e+001  0.000000e+000
    endloop
  endfacet
  facet normal  0.000000e+000  0.000000e+000  1.000000e+000
    outer loop
      vertex -2.131628e-014 -5.000000e+001  0.000000e+000
      vertex  3.045200e+001 -3.826834e+000  0.000000e+000
      vertex  2.828427e+001 -7.071068e+000  0.000000e+000
    endloop
  endfacet
  facet normal  0.000000e+000  0.000000e+000  1.000000e+000
    outer loop
      vertex -2.131628e-014 -5.000000e+001  0.000000e+000
      vertex  2.828427e+001 -7.071068e+000  0.000000e+000
      vertex  7.071068e+000 -2.828427e+001  0.000000e+000
    endloop
  endfacet
  facet normal  0.000000e+000  0.000000e+000  1.000000e+000
    outer loop
      vertex -2.131628e-014 -5.000000e+001  0.000000e+000
      vertex  7.071068e+000 -2.828427e+001  0.000000e+000
      vertex  3.826834e+000 -3.045200e+001  0.000000e+000
    endloop
  endfacet
  facet normal  0.000000e+000  0.000000e+000  1.000000e+000
    outer loop
      vertex -2.131628e-014 -5.000000e+001  0.000000e+000
      vertex  3.826834e+000 -3.045200e+001  0.000000e+000
      vertex -9.487918e-016 -3.121320e+001  0.000000e+000
    endloop
  endfacet
  facet normal  1.000000e+000  -0.000000e+000  0.000000e+000
    outer loop
      vertex  5.000000e+001  0.000000e+000 -1.000000e+001
      vertex  5.000000e+001 -5.000000e+001 -1.000000e+001
      vertex  5.000000e+001 -5.000000e+001 -5.000000e+001
    endloop
  endfacet
  facet normal  1.000000e+000  0.000000e+000  0.000000e+000
    outer loop
      vertex  5.000000e+001  0.000000e+000 -1.000000e+001
      vertex  5.000000e+001 -5.000000e+001 -5.000000e+001
      vertex  5.000000e+001  2.500000e+001 -5.000000e+000
    endloop
  endfacet
  facet normal  1.000000e+000  0.000000e+000  -0.000000e+000
    outer loop
      vertex  5.000000e+001  0.000000e+000 -1.000000e+001
      vertex  5.000000e+001  2.500000e+001 -5.000000e+000
      vertex  5.000000e+001  2.500000e+001  0.000000e+000
    endloop
  endfacet
  facet normal  1.000000e+000  0.000000e+000  0.000000e+000
    outer loop
      vertex  5.000000e+001  0.000000e+000 -1.000000e+001
      vertex  5.000000e+001  2.500000e+001  0.000000e+000
      vertex  5.000000e+001  0.000000e+000  0.000000e+000
    endloop
  endfacet
  facet normal  1.000000e+000  0.000000e+000  0.000000e+000
    outer loop
      vertex  5.000000e+001  5.000000e+001 -5.000000e+001
      vertex  5.000000e+001  5.000000e+001 -5.000000e+000
      vertex  5.000000e+001 -5.000000e+001 -5.000000e+001
    endloop
  endfacet
  facet normal  1.000000e+000  0.000000e+000  0.000000e+000
    outer loop
      vertex  5.000000e+001 -5.000000e+001 -5.000000e+001
      vertex  5.000000e+001  5.000000e+001 -5.000000e+000
      vertex  5.000000e+001  2.500000e+001 -5.000000e+000
    endloop
  endfacet
  facet normal  -0.000000e+000 -1.000000e+000  -0.000000e+000
    outer loop
      vertex -2.131628e-014 -5.000000e+001 -1.000000e+001
      vertex -2.131628e-014 -5.000000e+001  0.000000e+000
      vertex -2.500000e+001 -5.000000e+001  0.000000e+000
    endloop
  endfacet
  facet normal  0.000000e+000 -1.000000e+000  0.000000e+000
    outer loop
      vertex -2.131628e-014 -5.000000e+001 -1.000000e+001
      vertex -2.500000e+001 -5.000000e+001  0.000000e+000
      vertex -2.500000e+001 -5.000000e+001 -5.000000e+000
    endloop
  endfacet
  facet normal  -0.000000e+000 -1.000000e+000  -0.000000e+000
    outer loop
      vertex -2.131628e-014 -5.000000e+001 -1.000000e+001
      vertex -2.500000e+001 -5.000000e+001 -5.000000e+000
      vertex -5.000000e+001 -5.000000e+001 -5.000000e+000
    endloop
  endfacet
  facet normal  0.000000e+000 -1.000000e+000  0.000000e+000
    outer loop
      vertex -2.131628e-014 -5.000000e+001 -1.000000e+001
      vertex -5.000000e+001 -5.000000e+001 -5.000000e+000
      vertex -5.000000e+001 -5.000000e+001 -5.000000e+001
    endloop
  endfacet
  facet normal  0.000000e+000 -1.000000e+000  0.000000e+000
    outer loop
      vertex -2.131628e-014 -5.000000e+001 -1.000000e+001
      vertex -5.000000e+001 -5.000000e+001 -5.000000e+001
      vertex  5.000000e+001 -5.000000e+001 -5.000000e+001
    endloop
  endfacet
  facet normal  0.000000e+000 -1.000000e+000  0.000000e+000
    outer loop
      vertex -2.131628e-014 -5.000000e+001 -1.000000e+001
      vertex  5.000000e+001 -5.000000e+001 -5.000000e+001
      vertex  5.000000e+001 -5.000000e+001 -1.000000e+001
    endloop
  endfacet
  facet normal -1.000000e+000  -0.000000e+000  -0.000000e+000
    outer loop
      vertex -5.000000e+001  0.000000e+000 -1.000000e+001
      vertex -5.000000e+001  5.000000e+001 -1.000000e+001
      vertex -5.000000e+001  5.000000e+001 -5.000000e+001
    endloop
  endfacet
  facet normal -1.000000e+000  0.000000e+000  0.000000e+000
    outer loop
      vertex -5.000000e+001  0.000000e+000 -1.000000e+001
      vertex -5.000000e+001  5.000000e+001 -5.000000e+001
      vertex -5.000000e+001 -2.500000e+001 -5.000000e+000
    endloop
  endfacet
  facet normal -1.000000e+000  0.000000e+000  0.000000e+000
    outer loop
      vertex -5.000000e+001  0.000000e+000 -1.000000e+001
      vertex -5.000000e+001 -2.500000e+001 -5.000000e+000
      vertex -5.000000e+001 -2.500000e+001  0.000000e+000
    endloop
  endfacet
  facet normal -1.000000e+000  0.000000e+000  0.000000e+000
    outer loop
      vertex -5.000000e+001  0.000000e+000 -1.000000e+001
      vertex -5.000000e+001 -2.500000e+001  0.000000e+000
      vertex -5.000000e+001  0.000000e+000  0.000000e+000
    endloop
  endfacet
  facet normal -1.000000e+000  0.000000e+000  0.000000e+000
    outer loop
      vertex -5.000000e+001 -5.000000e+001 -5.000000e+001
      vertex -5.000000e+001 -5.000000e+001 -5.000000e+000
      vertex -5.000000e+001  5.000000e+001 -5.000000e+001
    endloop
  endfacet
  facet normal -1.000000e+000  0.000000e+000  0.000000e+000
    outer loop
      vertex -5.000000e+001  5.000000e+001 -5.000000e+001
      vertex -5.000000e+001 -5.000000e+001 -5.000000e+000
      vertex -5.000000e+001 -2.500000e+001 -5.000000e+000
    endloop
  endfacet
  facet normal  -0.000000e+000  1.000000e+000  0.000000e+000
    outer loop
      vertex  0.000000e+000  5.000000e+001 -1.000000e+001
      vertex  0.000000e+000  5.000000e+001  0.000000e+000
      vertex  2.500000e+001  5.000000e+001  0.000000e+000
    endloop
  endfacet
  facet normal  0.000000e+000  1.000000e+000  0.000000e+000
    outer loop
      vertex  0.000000e+000  5.000000e+001 -1.000000e+001
      vertex  2.500000e+001  5.000000e+001  0.000000e+000
      vertex  2.500000e+001  5.000000e+001 -5.000000e+000
    endloop
  endfacet
  facet normal  -0.000000e+000  1.000000e+000  0.000000e+000
    outer loop
      vertex  0.000000e+000  5.000000e+001 -1.000000e+001
      vertex  2.500000e+001  5.000000e+001 -5.000000e+000
      vertex  5.000000e+001  5.000000e+001 -5.000000e+000
    endloop
  endfacet
  facet normal  0.000000e+000  1.000000e+000  0.000000e+000
    outer loop
      vertex  0.000000e+000  5.000000e+001 -1.000000e+001
      vertex  5.000000e+001  5.000000e+001 -5.000000e+000
      vertex  5.000000e+001  5.000000e+001 -5.000000e+001
    endloop
  endfacet
  facet normal  0.000000e+000  1.000000e+000  0.000000e+000
    outer loop
      vertex  0.000000e+000  5.000000e+001 -1.000000e+001
      vertex  5.000000e+001  5.000000e+001 -5.000000e+001
      vertex -5.000000e+001  5.000000e+001 -5.000000e+001
    endloop
  endfacet
  facet normal  0.000000e+000  1.000000e+000  0.000000e+000
    outer loop
      vertex  0.000000e+000  5.000000e+001 -1.000000e+001
      vertex -5.000000e+001  5.000000e+001 -5.000000e+001
      vertex -5.000000e+001  5.000000e+001 -1.000000e+001
    endloop
  endfacet
  facet normal -7.071068e-001 -7.071068e-001  0.000000e+000
    outer loop
      vertex  7.071068e+000  2.828427e+001 -5.000000e+000
      vertex  2.828427e+001  7.071068e+000 -5.000000e+000
      vertex  7.071068e+000  2.828427e+001  0.000000e+000
    endloop
  endfacet
  facet normal -7.071068e-001 -7.071068e-001  0.000000e+000
    outer loop
      vertex  7.071068e+000  2.828427e+001  0.000000e+000
      vertex  2.828427e+001  7.071068e+000 -5.000000e+000
      vertex  2.828427e+001  7.071068e+000  0.000000e+000
    endloop
  endfacet
  facet normal -9.807854e-001 -1.950901e-001  -0.000000e+000
    outer loop
      vertex  3.121320e+001 -1.843651e-014 -5.000000e+000
      vertex  3.045200e+001  3.826834e+000  0.000000e+000
      vertex  3.045200e+001  3.826834e+000 -5.000000e+000
    endloop
  endfacet
  facet normal -8.314694e-001 -5.555704e-001  0.000000e+000
    outer loop
      vertex  3.045200e+001  3.826834e+000 -5.000000e+000
      vertex  3.045200e+001  3.826834e+000  0.000000e+000
      vertex  2.828427e+001  7.071068e+000  0.000000e+000
    endloop
  endfacet
  facet normal -8.314694e-001 -5.555704e-001  -0.000000e+000
    outer loop
      vertex  3.045200e+001  3.826834e+000 -5.000000e+000
      vertex  2.828427e+001  7.071068e+000  0.000000e+000
      vertex  2.828427e+001  7.071068e+000 -5.000000e+000
    endloop
  endfacet
  facet normal -9.807854e-001 -1.950901e-001  0.000000e+000
    outer loop
      vertex  3.045200e+001  3.826834e+000  0.000000e+000
      vertex  3.121320e+001 -1.843651e-014 -5.000000e+000
      vertex  3.121320e+001 -1.843651e-014  0.000000e+000
    endloop
  endfacet
  facet normal -9.807854e-001  1.950901e-001  0.000000e+000
    outer loop
      vertex  3.121320e+001 -1.843651e-014  0.000000e+000
      vertex  3.121320e+001 -1.843651e-014 -5.000000e+000
      vertex  3.045200e+001 -3.826834e+000 -5.000000e+000
    endloop
  endfacet
  facet normal -9.807854e-001  1.950901e-001  0.000000e+000
    outer loop
      vertex  3.121320e+001 -1.843651e-014  0.000000e+000
      vertex  3.045200e+001 -3.826834e+000 -5.000000e+000
      vertex  3.045200e+001 -3.826834e+000  0.000000e+000
    endloop
  endfacet
  facet normal -8.314694e-001  5.555704e-001  0.000000e+000
    outer loop
      vertex  3.045200e+001 -3.826834e+000  0.000000e+000
      vertex  3.045200e+001 -3.826834e+000 -5.000000e+000
      vertex  2.828427e+001 -7.071068e+000 -5.000000e+000
    endloop
  endfacet
  facet normal -8.314694e-001  5.555704e-001  0.000000e+000
    outer loop
      vertex  3.045200e+001 -3.826834e+000  0.000000e+000
      vertex  2.828427e+001 -7.071068e+000 -5.000000e+000
      vertex  2.828427e+001 -7.071068e+000  0.000000e+000
    endloop
  endfacet
  facet normal -7.071068e-001  7.071068e-001  0.000000e+000
    outer loop
      vertex  2.828427e+001 -7.071068e+000 -5.000000e+000
      vertex  7.071068e+000 -2.828427e+001 -5.000000e+000
      vertex  2.828427e+001 -7.071068e+000  0.000000e+000
    endloop
  endfacet
  facet normal -7.071068e-001  7.071068e-001  0.000000e+000
    outer loop
      vertex  2.828427e+001 -7.071068e+000  0.000000e+000
      vertex  7.071068e+000 -2.828427e+001 -5.000000e+000
      vertex  7.071068e+000 -2.828427e+001  0.000000e+000
    endloop
  endfacet
  facet normal -1.950901e-001  9.807854e-001  0.000000e+000
    outer loop
      vertex -9.487918e-016 -3.121320e+001 -5.000000e+000
      vertex  3.826834e+000 -3.045200e+001  0.000000e+000
      vertex  3.826834e+000 -3.045200e+001 -5.000000e+000
    endloop
  endfacet
  facet normal -5.555704e-001  8.314694e-001  0.000000e+000
    outer loop
      vertex  3.826834e+000 -3.045200e+001 -5.000000e+000
      vertex  3.826834e+000 -3.045200e+001  0.000000e+000
      vertex  7.071068e+000 -2.828427e+001  0.000000e+000
    endloop
  endfacet
  facet normal -5.555704e-001  8.314694e-001  0.000000e+000
    outer loop
      vertex  3.826834e+000 -3.045200e+001 -5.000000e+000
      vertex  7.071068e+000 -2.828427e+001  0.000000e+000
      vertex  7.071068e+000 -2.828427e+001 -5.000000e+000
    endloop
  endfacet
  facet normal -1.950901e-001  9.807854e-001  0.000000e+000
    outer loop
      vertex  3.826834e+000 -3.045200e+001  0.000000e+000
      vertex -9.487918e-016 -3.121320e+001 -5.000000e+000
      vertex -9.487918e-016 -3.121320e+001  0.000000e+000
    endloop
  endfacet
  facet normal  1.950901e-001  9.807854e-001  0.000000e+000
    outer loop
      vertex -9.487918e-016 -3.121320e+001  0.000000e+000
      vertex -9.487918e-016 -3.121320e+001 -5.000000e+000
      vertex -3.826834e+000 -3.045200e+001 -5.000000e+000
    endloop
  endfacet
  facet normal  1.950901e-001  9.807854e-001  -0.000000e+000
    outer loop
      vertex -9.487918e-016 -3.121320e+001  0.000000e+000
      vertex -3.826834e+000 -3.045200e+001 -5.000000e+000
      vertex -3.826834e+000 -3.045200e+001  0.000000e+000
    endloop
  endfacet
  facet normal  5.555704e-001  8.314694e-001  0.000000e+000
    outer loop
      vertex -3.826834e+000 -3.045200e+001  0.000000e+000
      vertex -3.826834e+000 -3.045200e+001 -5.000000e+000
      vertex -7.071068e+000 -2.828427e+001 -5.000000e+000
    endloop
  endfacet
  facet normal  5.555704e-001  8.314694e-001  -0.000000e+000
    outer loop
      vertex -3.826834e+000 -3.045200e+001  0.000000e+000
      vertex -7.071068e+000 -2.828427e+001 -5.000000e+000
      vertex -7.071068e+000 -2.828427e+001  0.000000e+000
    endloop
  endfacet
  facet normal  7.071068e-001  7.071068e-001  0.000000e+000
    outer loop
      vertex -7.071068e+000 -2.828427e+001 -5.000000e+000
      vertex -2.828427e+001 -7.071068e+000 -5.000000e+000
      vertex -7.071068e+000 -2.828427e+001  0.000000e+000
    endloop
  endfacet
  facet normal  7.071068e-001  7.071068e-001  0.000000e+000
    outer loop
      vertex -7.071068e+000 -2.828427e+001  0.000000e+000
      vertex -2.828427e+001 -7.071068e+000 -5.000000e+000
      vertex -2.828427e+001 -7.071068e+000  0.000000e+000
    endloop
  endfacet
  facet normal  9.807854e-001  1.950901e-001  0.000000e+000
    outer loop
      vertex -3.121320e+001 -5.517100e-016 -5.000000e+000
      vertex -3.045200e+001 -3.826834e+000  0.000000e+000
      vertex -3.045200e+001 -3.826834e+000 -5.000000e+000
    endloop
  endfacet
  facet normal  8.314694e-001  5.555704e-001  -0.000000e+000
    outer loop
      vertex -3.045200e+001 -3.826834e+000 -5.000000e+000
      vertex -3.045200e+001 -3.826834e+000  0.000000e+000
      vertex -2.828427e+001 -7.071068e+000  0.000000e+000
    endloop
  endfacet
  facet normal  8.314694e-001  5.555704e-001  0.000000e+000
    outer loop
      vertex -3.045200e+001 -3.826834e+000 -5.000000e+000
      vertex -2.828427e+001 -7.071068e+000  0.000000e+000
      vertex -2.828427e+001 -7.071068e+000 -5.000000e+000
    endloop
  endfacet
  facet normal  9.807854e-001  1.950901e-001  -0.000000e+000
    outer loop
      vertex -3.045200e+001 -3.826834e+000  0.000000e+000
      vertex -3.121320e+001 -5.517100e-016 -5.000000e+000
      vertex -3.121320e+001 -5.517100e-016  0.000000e+000
    endloop
  endfacet
  facet normal  9.807854e-001 -1.950901e-001  0.000000e+000
    outer loop
      vertex -3.121320e+001 -5.517100e-016  0.000000e+000
      vertex -3.121320e+001 -5.517100e-016 -5.000000e+000
      vertex -3.045200e+001  3.826834e+000 -5.000000e+000
    endloop
  endfacet
  facet normal  9.807854e-001 -1.950901e-001  0.000000e+000
    outer loop
      vertex -3.121320e+001 -5.517100e-016  0.000000e+000
      vertex -3.045200e+001  3.826834e+000 -5.000000e+000
      vertex -3.045200e+001  3.826834e+000  0.000000e+000
    endloop
  endfacet
  facet normal  8.314694e-001 -5.555704e-001  0.000000e+000
    outer loop
      vertex -3.045200e+001  3.826834e+000  0.000000e+000
      vertex -3.045200e+001  3.826834e+000 -5.000000e+000
      vertex -2.828427e+001  7.071068e+000 -5.000000e+000
    endloop
  endfacet
  facet normal  8.314694e-001 -5.555704e-001  0.000000e+000
    outer loop
      vertex -3.045200e+001  3.826834e+000  0.000000e+000
      vertex -2.828427e+001  7.071068e+000 -5.000000e+000
      vertex -2.828427e+001  7.071068e+000  0.000000e+000
    endloop
  endfacet
  facet normal  7.071068e-001 -7.071068e-001  0.000000e+000
    outer loop
      vertex -2.828427e+001  7.071068e+000 -5.000000e+000
      vertex -7.071068e+000  2.828427e+001 -5.000000e+000
      vertex -2.828427e+001  7.071068e+000  0.000000e+000
    endloop
  endfacet
  facet normal  7.071068e-001 -7.071068e-001  0.000000e+000
    outer loop
      vertex -2.828427e+001  7.071068e+000  0.000000e+000
      vertex -7.071068e+000  2.828427e+001 -5.000000e+000
      vertex -7.071068e+000  2.828427e+001  0.000000e+000
    endloop
  endfacet
  facet normal  1.950901e-001 -9.807854e-001  0.000000e+000
    outer loop
      vertex  9.494108e-015  3.121320e+001 -5.000000e+000
      vertex -3.826834e+000  3.045200e+001  0.000000e+000
      vertex -3.826834e+000  3.045200e+001 -5.000000e+000
    endloop
  endfacet
  facet normal  5.555704e-001 -8.314694e-001  0.000000e+000
    outer loop
      vertex -3.826834e+000  3.045200e+001 -5.000000e+000
      vertex -3.826834e+000  3.045200e+001  0.000000e+000
      vertex -7.071068e+000  2.828427e+001  0.000000e+000
    endloop
  endfacet
  facet normal  5.555704e-001 -8.314694e-001  0.000000e+000
    outer loop
      vertex -3.826834e+000  3.045200e+001 -5.000000e+000
      vertex -7.071068e+000  2.828427e+001  0.000000e+000
      vertex -7.071068e+000  2.828427e+001 -5.000000e+000
    endloop
  endfacet
  facet normal  1.950901e-001 -9.807854e-001  0.000000e+000
    outer loop
      vertex -3.826834e+000  3.045200e+001  0.000000e+000
      vertex  9.494108e-015  3.121320e+001 -5.000000e+000
      vertex  9.494108e-015  3.121320e+001  0.000000e+000
    endloop
  endfacet
  facet normal -1.950901e-001 -9.807854e-001  -0.000000e+000
    outer loop
      vertex  9.494108e-015  3.121320e+001  0.000000e+000
      vertex  9.494108e-015  3.121320e+001 -5.000000e+000
      vertex  3.826834e+000  3.045200e+001 -5.000000e+000
    endloop
  endfacet
  facet normal -1.950901e-001 -9.807854e-001  0.000000e+000
    outer loop
      vertex  9.494108e-015  3.121320e+001  0.000000e+000
      vertex  3.826834e+000  3.045200e+001 -5.000000e+000
      vertex  3.826834e+000  3.045200e+001  0.000000e+000
    endloop
  endfacet
  facet normal -5.555704e-001 -8.314694e-001  -0.000000e+000
    outer loop
      vertex  3.826834e+000  3.045200e+001  0.000000e+000
      vertex  3.826834e+000  3.045200e+001 -5.000000e+000
      vertex  7.071068e+000  2.828427e+001 -5.000000e+000
    endloop
  endfacet
  facet normal -5.555704e-001 -8.314694e-001  0.000000e+000
    outer loop
      vertex  3.826834e+000  3.045200e+001  0.000000e+000
      vertex  7.071068e+000  2.828427e+001 -5.000000e+000
      vertex  7.071068e+000  2.828427e+001  0.000000e+000
    endloop
  endfacet
  facet normal  0.000000e+000  0.000000e+000  1.000000e+000
    outer loop
      vertex -5.000000e+001 -5.000000e+001 -5.000000e+000
      vertex -2.500000e+001 -5.000000e+001 -5.000000e+000
      vertex -5.000000e+001 -2.500000e+001 -5.000000e+000
    endloop
  endfacet
  facet normal -7.071067e-001 -7.071067e-001  -0.000000e+000
    outer loop
      vertex -2.500000e+001 -5.000000e+001 -5.000000e+000
      vertex -2.500000e+001 -5.000000e+001  0.000000e+000
      vertex -5.000000e+001 -2.500000e+001 -5.000000e+000
    endloop
  endfacet
  facet normal -7.071067e-001 -7.071067e-001  0.000000e+000
    outer loop
      vertex -5.000000e+001 -2.500000e+001 -5.000000e+000
      vertex -2.500000e+001 -5.000000e+001  0.000000e+000
      vertex -5.000000e+001 -2.500000e+001  0.000000e+000
    endloop
  endfacet
  facet normal  0.000000e+000  -0.000000e+000  1.000000e+000
    outer loop
      vertex  2.500000e+001  5.000000e+001 -5.000000e+000
      vertex  5.000000e+001  2.500000e+001 -5.000000e+000
      vertex  5.000000e+001  5.000000e+001 -5.000000e+000
    endloop
  endfacet
  facet normal  7.071067e-001  7.071067e-001  0.000000e+000
    outer loop
      vertex  2.500000e+001  5.000000e+001 -5.000000e+000
      vertex  2.500000e+001  5.000000e+001  0.000000e+000
      vertex  5.000000e+001  2.500000e+001 -5.000000e+000
    endloop
  endfacet
  facet normal  7.071067e-001  7.071067e-001  -0.000000e+000
    outer loop
      vertex  5.000000e+001  2.500000e+001 -5.000000e+000
      vertex  2.500000e+001  5.000000e+001  0.000000e+000
      vertex  5.000000e+001  2.500000e+001  0.000000e+000
    endloop
  endfacet
  facet normal  0.000000e+000  0.000000e+000  1.000000e+000
    outer loop
      vertex -3.826834e+000  3.045200e+001 -5.000000e+000
      vertex  3.826834e+000  3.045200e+001 -5.000000e+000
      vertex  9.494108e-015  3.121320e+001 -5.000000e+000
    endloop
  endfacet
  facet normal  -0.000000e+000  0.000000e+000  1.000000e+000
    outer loop
      vertex  3.826834e+000  3.045200e+001 -5.000000e+000
      vertex -3.826834e+000  3.045200e+001 -5.000000e+000
      vertex  7.071068e+000  2.828427e+001 -5.000000e+000
    endloop
  endfacet
  facet normal  0.000000e+000  0.000000e+000  9.999999e-001
    outer loop
      vertex  7.071068e+000  2.828427e+001 -5.000000e+000
      vertex -3.826834e+000  3.045200e+001 -5.000000e+000
      vertex -7.071068e+000  2.828427e+001 -5.000000e+000
    endloop
  endfacet
  facet normal  -0.000000e+000  0.000000e+000  1.000000e+000
    outer loop
      vertex  7.071068e+000  2.828427e+001 -5.000000e+000
      vertex -7.071068e+000  2.828427e+001 -5.000000e+000
      vertex  2.828427e+001  7.071068e+000 -5.000000e+000
    endloop
  endfacet
  facet normal  0.000000e+000  0.000000e+000  1.000000e+000
    outer loop
      vertex  2.828427e+001  7.071068e+000 -5.000000e+000
      vertex -7.071068e+000  2.828427e+001 -5.000000e+000
      vertex -2.828427e+001  7.071068e+000 -5.000000e+000
    endloop
  endfacet
  facet normal  -0.000000e+000  0.000000e+000  1.000000e+000
    outer loop
      vertex  2.828427e+001  7.071068e+000 -5.000000e+000
      vertex -2.828427e+001  7.071068e+000 -5.000000e+000
      vertex  3.045200e+001  3.826834e+000 -5.000000e+000
    endloop
  endfacet
  facet normal  0.000000e+000  0.000000e+000  1.000000e+000
    outer loop
      vertex  3.045200e+001  3.826834e+000 -5.000000e+000
      vertex -2.828427e+001  7.071068e+000 -5.000000e+000
      vertex -3.045200e+001  3.826834e+000 -5.000000e+000
    endloop
  endfacet
  facet normal  -0.000000e+000  0.000000e+000  1.000000e+000
    outer loop
      vertex  3.045200e+001  3.826834e+000 -5.000000e+000
      vertex -3.045200e+001  3.826834e+000 -5.000000e+000
      vertex  3.121320e+001 -1.843651e-014 -5.000000e+000
    endloop
  endfacet
  facet normal  0.000000e+000  0.000000e+000  1.000000e+000
    outer loop
      vertex  3.121320e+001 -1.843651e-014 -5.000000e+000
      vertex -3.045200e+001  3.826834e+000 -5.000000e+000
      vertex -3.121320e+001 -5.517100e-016 -5.000000e+000
    endloop
  endfacet
  facet normal  0.000000e+000  0.000000e+000  1.000000e+000
    outer loop
      vertex  3.121320e+001 -1.843651e-014 -5.000000e+000
      vertex -3.121320e+001 -5.517100e-016 -5.000000e+000
      vertex  3.045200e+001 -3.826834e+000 -5.000000e+000
    endloop
  endfacet
  facet normal  0.000000e+000  0.000000e+000  1.000000e+000
    outer loop
      vertex  3.045200e+001 -3.826834e+000 -5.000000e+000
      vertex -3.121320e+001 -5.517100e-016 -5.000000e+000
      vertex -3.045200e+001 -3.826834e+000 -5.000000e+000
    endloop
  endfacet
  facet normal  -0.000000e+000  0.000000e+000  1.000000e+000
    outer loop
      vertex  3.045200e+001 -3.826834e+000 -5.000000e+000
      vertex -3.045200e+001 -3.826834e+000 -5.000000e+000
      vertex  2.828427e+001 -7.071068e+000 -5.000000e+000
    endloop
  endfacet
  facet normal  0.000000e+000  0.000000e+000  1.000000e+000
    outer loop
      vertex  2.828427e+001 -7.071068e+000 -5.000000e+000
      vertex -3.045200e+001 -3.826834e+000 -5.000000e+000
      vertex -2.828427e+001 -7.071068e+000 -5.000000e+000
    endloop
  endfacet
  facet normal  -0.000000e+000  0.000000e+000  1.000000e+000
    outer loop
      vertex  2.828427e+001 -7.071068e+000 -5.000000e+000
      vertex -2.828427e+001 -7.071068e+000 -5.000000e+000
      vertex  7.071068e+000 -2.828427e+001 -5.000000e+000
    endloop
  endfacet
  facet normal  0.000000e+000  0.000000e+000  1.000000e+000
    outer loop
      vertex  7.071068e+000 -2.828427e+001 -5.000000e+000
      vertex -2.828427e+001 -7.071068e+000 -5.000000e+000
      vertex -7.071068e+000 -2.828427e+001 -5.000000e+000
    endloop
  endfacet
  facet normal  -0.000000e+000  0.000000e+000  9.999999e-001
    outer loop
      vertex  7.071068e+000 -2.828427e+001 -5.000000e+000
      vertex -7.071068e+000 -2.828427e+001 -5.000000e+000
      vertex  3.826834e+000 -3.045200e+001 -5.000000e+000
    endloop
  endfacet
  facet normal  0.000000e+000  0.000000e+000  1.000000e+000
    outer loop
      vertex  3.826834e+000 -3.045200e+001 -5.000000e+000
      vertex -7.071068e+000 -2.828427e+001 -5.000000e+000
      vertex -3.826834e+000 -3.045200e+001 -5.000000e+000
    endloop
  endfacet
  facet normal  -0.000000e+000  0.000000e+000  1.000000e+000
    outer loop
      vertex  3.826834e+000 -3.045200e+001 -5.000000e+000
      vertex -3.826834e+000 -3.045200e+001 -5.000000e+000
      vertex -9.487918e-016 -3.121320e+001 -5.000000e+000
    endloop
  endfacet
  facet normal  0.000000e+000  0.000000e+000  1.000000e+000
    outer loop
      vertex  5.000000e+001  0.000000e+000 -1.000000e+001
      vertex -2.131628e-014 -5.000000e+001 -1.000000e+001
      vertex  5.000000e+001 -5.000000e+001 -1.000000e+001
    endloop
  endfacet
  facet normal  7.071067e-001 -7.071067e-001  0.000000e+000
    outer loop
      vertex  5.000000e+001  0.000000e+000 -1.000000e+001
      vertex  5.000000e+001  0.000000e+000  0.000000e+000
      vertex -2.131628e-014 -5.000000e+001 -1.000000e+001
    endloop
  endfacet
  facet normal  7.071067e-001 -7.071067e-001  0.000000e+000
    outer loop
      vertex -2.131628e-014 -5.000000e+001 -1.000000e+001
      vertex  5.000000e+001  0.000000e+000  0.000000e+000
      vertex -2.131628e-014 -5.000000e+001  0.000000e+000
    endloop
  endfacet
  facet normal  0.000000e+000  0.000000e+000  1.000000e+000
    outer loop
      vertex -5.000000e+001  5.000000e+001 -1.000000e+001
      vertex -5.000000e+001  0.000000e+000 -1.000000e+001
      vertex  0.000000e+000  5.000000e+001 -1.000000e+001
    endloop
  endfacet
  facet normal -7.071067e-001  7.071067e-001  0.000000e+000
    outer loop
      vertex -5.000000e+001  0.000000e+000 -1.000000e+001
      vertex -5.000000e+001  0.000000e+000  0.000000e+000
      vertex  0.000000e+000  5.000000e+001 -1.000000e+001
    endloop
  endfacet
  facet normal -7.071067e-001  7.071067e-001  0.000000e+000
    outer loop
      vertex  0.000000e+000  5.000000e+001 -1.000000e+001
      vertex -5.000000e+001  0.000000e+000  0.000000e+000
      vertex  0.000000e+000  5.000000e+001  0.000000e+000
    endloop
  endfacet
  facet normal  0.000000e+000  0.000000e+000 -1.000000e+000
    outer loop
      vertex -5.000000e+001 -5.000000e+001 -5.000000e+001
      vertex -5.000000e+001  5.000000e+001 -5.000000e+001
      vertex  5.000000e+001 -5.000000e+001 -5.000000e+001
    endloop
  endfacet
  facet normal  0.000000e+000  0.000000e+000 -1.000000e+000
    outer loop
      vertex  5.000000e+001 -5.000000e+001 -5.000000e+001
      vertex -5.000000e+001  5.000000e+001 -5.000000e+001
      vertex  5.000000e+001  5.000000e+001 -5.000000e+001
    endloop
  endfacet
endsolid CATIA STL
