solid CATIA STL
  facet normal  6.331116e-018  1.147868e-016  1.000000e+000
    outer loop
      vertex  2.500000e+001 -3.500000e+001  4.440892e-016
      vertex  2.576120e+001 -3.117317e+001  0.000000e+000
      vertex  1.736482e+000 -2.984807e+001  0.000000e+000
    endloop
  endfacet
  facet normal  0.000000e+000  0.000000e+000  1.000000e+000
    outer loop
      vertex -5.000000e+001 -1.195732e+001  0.000000e+000
      vertex -5.000000e+000 -2.866025e+001  0.000000e+000
      vertex -2.232051e+001 -1.866025e+001  0.000000e+000
    endloop
  endfacet
  facet normal  0.000000e+000  0.000000e+000  1.000000e+000
    outer loop
      vertex -5.000000e+001 -1.195732e+001  0.000000e+000
      vertex -2.232051e+001 -1.866025e+001  0.000000e+000
      vertex -2.498096e+001 -1.642787e+001  0.000000e+000
    endloop
  endfacet
  facet normal  0.000000e+000  0.000000e+000  1.000000e+000
    outer loop
      vertex -5.000000e+001 -1.195732e+001  0.000000e+000
      vertex -2.498096e+001 -1.642787e+001  0.000000e+000
      vertex -2.671744e+001 -1.342019e+001  0.000000e+000
    endloop
  endfacet
  facet normal  0.000000e+000  0.000000e+000  1.000000e+000
    outer loop
      vertex -5.000000e+001 -1.195732e+001  0.000000e+000
      vertex -2.671744e+001 -1.342019e+001  0.000000e+000
      vertex -2.732051e+001 -9.999993e+000  0.000000e+000
    endloop
  endfacet
  facet normal  0.000000e+000  -0.000000e+000  1.000000e+000
    outer loop
      vertex -5.000000e+001 -1.195732e+001  0.000000e+000
      vertex -2.732051e+001 -9.999993e+000  0.000000e+000
      vertex -2.732051e+001  9.999999e+000  0.000000e+000
    endloop
  endfacet
  facet normal  0.000000e+000  -0.000000e+000  1.000000e+000
    outer loop
      vertex -5.000000e+001 -1.195732e+001  0.000000e+000
      vertex -2.732051e+001  9.999999e+000  0.000000e+000
      vertex -2.671744e+001  1.342020e+001  0.000000e+000
    endloop
  endfacet
  facet normal  0.000000e+000  -0.000000e+000  1.000000e+000
    outer loop
      vertex -5.000000e+001 -1.195732e+001  0.000000e+000
      vertex -2.671744e+001  1.342020e+001  0.000000e+000
      vertex -2.498096e+001  1.642788e+001  0.000000e+000
    endloop
  endfacet
  facet normal  0.000000e+000  0.000000e+000  1.000000e+000
    outer loop
      vertex -5.000000e+001  3.535534e+001  0.000000e+000
      vertex -5.000000e+001 -1.195732e+001  0.000000e+000
      vertex -2.498096e+001  1.642788e+001  0.000000e+000
    endloop
  endfacet
  facet normal  0.000000e+000  -0.000000e+000  1.000000e+000
    outer loop
      vertex -5.000000e+001  3.535534e+001  0.000000e+000
      vertex -2.498096e+001  1.642788e+001  0.000000e+000
      vertex -2.232051e+001  1.866025e+001  0.000000e+000
    endloop
  endfacet
  facet normal  0.000000e+000  -0.000000e+000  1.000000e+000
    outer loop
      vertex -5.000000e+001  3.535534e+001  0.000000e+000
      vertex -2.232051e+001  1.866025e+001  0.000000e+000
      vertex -5.000000e+000  2.866025e+001  0.000000e+000
    endloop
  endfacet
  facet normal  0.000000e+000  -0.000000e+000  1.000000e+000
    outer loop
      vertex -5.000000e+001  3.535534e+001  0.000000e+000
      vertex -5.000000e+000  2.866025e+001  0.000000e+000
      vertex -1.736482e+000  2.984808e+001  0.000000e+000
    endloop
  endfacet
  facet normal  0.000000e+000  -0.000000e+000  1.000000e+000
    outer loop
      vertex -5.000000e+001  3.535534e+001  0.000000e+000
      vertex -1.736482e+000  2.984808e+001  0.000000e+000
      vertex  1.736482e+000  2.984808e+001  0.000000e+000
    endloop
  endfacet
  facet normal  0.000000e+000  0.000000e+000  9.999999e-001
    outer loop
      vertex  1.589186e+001 -5.000000e+001  0.000000e+000
      vertex  5.000000e+001 -5.000000e+001  0.000000e+000
      vertex  3.500000e+001 -4.500000e+001  0.000000e+000
    endloop
  endfacet
  facet normal  0.000000e+000  0.000000e+000  1.000000e+000
    outer loop
      vertex  1.589186e+001 -5.000000e+001  0.000000e+000
      vertex  3.500000e+001 -4.500000e+001  0.000000e+000
      vertex  3.117317e+001 -4.423880e+001  0.000000e+000
    endloop
  endfacet
  facet normal  0.000000e+000  0.000000e+000  1.000000e+000
    outer loop
      vertex  1.589186e+001 -5.000000e+001  0.000000e+000
      vertex  3.117317e+001 -4.423880e+001  0.000000e+000
      vertex  2.792893e+001 -4.207107e+001  0.000000e+000
    endloop
  endfacet
  facet normal  0.000000e+000  0.000000e+000  1.000000e+000
    outer loop
      vertex  1.589186e+001 -5.000000e+001  0.000000e+000
      vertex  2.792893e+001 -4.207107e+001  0.000000e+000
      vertex  2.576120e+001 -3.882684e+001  0.000000e+000
    endloop
  endfacet
  facet normal  1.072297e-016 -9.471679e-017  1.000000e+000
    outer loop
      vertex  1.589186e+001 -5.000000e+001  0.000000e+000
      vertex  2.576120e+001 -3.882684e+001  0.000000e+000
      vertex  2.500000e+001 -3.500000e+001  4.440892e-016
    endloop
  endfacet
  facet normal -2.260613e-017 -1.587930e-017  1.000000e+000
    outer loop
      vertex  1.589186e+001 -5.000000e+001  0.000000e+000
      vertex  2.500000e+001 -3.500000e+001  4.440892e-016
      vertex  1.736482e+000 -2.984807e+001  0.000000e+000
    endloop
  endfacet
  facet normal  0.000000e+000  0.000000e+000  1.000000e+000
    outer loop
      vertex  1.589186e+001 -5.000000e+001  0.000000e+000
      vertex  1.736482e+000 -2.984807e+001  0.000000e+000
      vertex -1.736482e+000 -2.984807e+001  0.000000e+000
    endloop
  endfacet
  facet normal  0.000000e+000  0.000000e+000  1.000000e+000
    outer loop
      vertex  1.589186e+001 -5.000000e+001  0.000000e+000
      vertex -1.736482e+000 -2.984807e+001  0.000000e+000
      vertex -5.000000e+000 -2.866025e+001  0.000000e+000
    endloop
  endfacet
  facet normal  0.000000e+000  0.000000e+000  1.000000e+000
    outer loop
      vertex  1.589186e+001 -5.000000e+001  0.000000e+000
      vertex -5.000000e+000 -2.866025e+001  0.000000e+000
      vertex -5.000000e+001 -1.195732e+001  0.000000e+000
    endloop
  endfacet
  facet normal  -0.000000e+000  0.000000e+000  1.000000e+000
    outer loop
      vertex  5.000000e+001  3.535534e+001  0.000000e+000
      vertex -5.000000e+001  3.535534e+001  0.000000e+000
      vertex  1.736482e+000  2.984808e+001  0.000000e+000
    endloop
  endfacet
  facet normal  -0.000000e+000  0.000000e+000  1.000000e+000
    outer loop
      vertex  5.000000e+001  3.535534e+001  0.000000e+000
      vertex  1.736482e+000  2.984808e+001  0.000000e+000
      vertex  5.000000e+000  2.866025e+001  0.000000e+000
    endloop
  endfacet
  facet normal  -0.000000e+000  0.000000e+000  1.000000e+000
    outer loop
      vertex  5.000000e+001  3.535534e+001  0.000000e+000
      vertex  5.000000e+000  2.866025e+001  0.000000e+000
      vertex  2.232050e+001  1.866026e+001  0.000000e+000
    endloop
  endfacet
  facet normal  -0.000000e+000  0.000000e+000  1.000000e+000
    outer loop
      vertex  5.000000e+001  3.535534e+001  0.000000e+000
      vertex  2.232050e+001  1.866026e+001  0.000000e+000
      vertex  2.498095e+001  1.642788e+001  0.000000e+000
    endloop
  endfacet
  facet normal  -0.000000e+000  0.000000e+000  1.000000e+000
    outer loop
      vertex  5.000000e+001  3.535534e+001  0.000000e+000
      vertex  2.498095e+001  1.642788e+001  0.000000e+000
      vertex  2.671743e+001  1.342021e+001  0.000000e+000
    endloop
  endfacet
  facet normal  -0.000000e+000  0.000000e+000  1.000000e+000
    outer loop
      vertex  5.000000e+001  3.535534e+001  0.000000e+000
      vertex  2.671743e+001  1.342021e+001  0.000000e+000
      vertex  3.500000e+001 -2.500000e+001  0.000000e+000
    endloop
  endfacet
  facet normal  -0.000000e+000  0.000000e+000  1.000000e+000
    outer loop
      vertex  5.000000e+001  3.535534e+001  0.000000e+000
      vertex  3.500000e+001 -2.500000e+001  0.000000e+000
      vertex  3.882684e+001 -2.576120e+001  0.000000e+000
    endloop
  endfacet
  facet normal  -0.000000e+000  0.000000e+000  1.000000e+000
    outer loop
      vertex  5.000000e+001  3.535534e+001  0.000000e+000
      vertex  3.882684e+001 -2.576120e+001  0.000000e+000
      vertex  4.207107e+001 -2.792893e+001  0.000000e+000
    endloop
  endfacet
  facet normal  -0.000000e+000  0.000000e+000  1.000000e+000
    outer loop
      vertex  5.000000e+001  3.535534e+001  0.000000e+000
      vertex  4.207107e+001 -2.792893e+001  0.000000e+000
      vertex  4.423880e+001 -3.117317e+001  0.000000e+000
    endloop
  endfacet
  facet normal  -0.000000e+000  0.000000e+000  1.000000e+000
    outer loop
      vertex  5.000000e+001  3.535534e+001  0.000000e+000
      vertex  4.423880e+001 -3.117317e+001  0.000000e+000
      vertex  5.000000e+001 -5.000000e+001  0.000000e+000
    endloop
  endfacet
  facet normal  0.000000e+000  0.000000e+000  1.000000e+000
    outer loop
      vertex  3.500000e+001 -2.500000e+001  0.000000e+000
      vertex  2.671743e+001  1.342021e+001  0.000000e+000
      vertex  2.732050e+001  1.000000e+001  0.000000e+000
    endloop
  endfacet
  facet normal  0.000000e+000  0.000000e+000  1.000000e+000
    outer loop
      vertex  3.500000e+001 -2.500000e+001  0.000000e+000
      vertex  2.732050e+001  1.000000e+001  0.000000e+000
      vertex  2.732050e+001 -9.999998e+000  0.000000e+000
    endloop
  endfacet
  facet normal  0.000000e+000  0.000000e+000  1.000000e+000
    outer loop
      vertex  3.500000e+001 -2.500000e+001  0.000000e+000
      vertex  2.732050e+001 -9.999998e+000  0.000000e+000
      vertex  2.671743e+001 -1.342020e+001  0.000000e+000
    endloop
  endfacet
  facet normal  0.000000e+000  0.000000e+000  1.000000e+000
    outer loop
      vertex  3.500000e+001 -2.500000e+001  0.000000e+000
      vertex  2.671743e+001 -1.342020e+001  0.000000e+000
      vertex  2.498095e+001 -1.642787e+001  0.000000e+000
    endloop
  endfacet
  facet normal  0.000000e+000  0.000000e+000  1.000000e+000
    outer loop
      vertex  3.500000e+001 -2.500000e+001  0.000000e+000
      vertex  2.498095e+001 -1.642787e+001  0.000000e+000
      vertex  2.232050e+001 -1.866025e+001  0.000000e+000
    endloop
  endfacet
  facet normal  -0.000000e+000  0.000000e+000  1.000000e+000
    outer loop
      vertex  5.000000e+000 -2.866025e+001  0.000000e+000
      vertex  1.736482e+000 -2.984807e+001  0.000000e+000
      vertex  2.576120e+001 -3.117317e+001  0.000000e+000
    endloop
  endfacet
  facet normal  0.000000e+000  -0.000000e+000  1.000000e+000
    outer loop
      vertex  5.000000e+000 -2.866025e+001  0.000000e+000
      vertex  2.576120e+001 -3.117317e+001  0.000000e+000
      vertex  2.792893e+001 -2.792893e+001  0.000000e+000
    endloop
  endfacet
  facet normal  0.000000e+000  -0.000000e+000  1.000000e+000
    outer loop
      vertex  5.000000e+000 -2.866025e+001  0.000000e+000
      vertex  2.792893e+001 -2.792893e+001  0.000000e+000
      vertex  3.117317e+001 -2.576120e+001  0.000000e+000
    endloop
  endfacet
  facet normal  0.000000e+000  -0.000000e+000  1.000000e+000
    outer loop
      vertex  5.000000e+000 -2.866025e+001  0.000000e+000
      vertex  3.117317e+001 -2.576120e+001  0.000000e+000
      vertex  3.500000e+001 -2.500000e+001  0.000000e+000
    endloop
  endfacet
  facet normal  0.000000e+000  0.000000e+000  9.999999e-001
    outer loop
      vertex  5.000000e+000 -2.866025e+001  0.000000e+000
      vertex  3.500000e+001 -2.500000e+001  0.000000e+000
      vertex  2.232050e+001 -1.866025e+001  0.000000e+000
    endloop
  endfacet
  facet normal  0.000000e+000  0.000000e+000  1.000000e+000
    outer loop
      vertex  5.000000e+001 -5.000000e+001  0.000000e+000
      vertex  4.423880e+001 -3.117317e+001  0.000000e+000
      vertex  4.500000e+001 -3.500000e+001  0.000000e+000
    endloop
  endfacet
  facet normal  0.000000e+000  0.000000e+000  9.999999e-001
    outer loop
      vertex  5.000000e+001 -5.000000e+001  0.000000e+000
      vertex  4.500000e+001 -3.500000e+001  0.000000e+000
      vertex  4.423880e+001 -3.882684e+001  0.000000e+000
    endloop
  endfacet
  facet normal  0.000000e+000  0.000000e+000  1.000000e+000
    outer loop
      vertex  5.000000e+001 -5.000000e+001  0.000000e+000
      vertex  4.423880e+001 -3.882684e+001  0.000000e+000
      vertex  4.207107e+001 -4.207107e+001  0.000000e+000
    endloop
  endfacet
  facet normal  0.000000e+000  0.000000e+000  1.000000e+000
    outer loop
      vertex  5.000000e+001 -5.000000e+001  0.000000e+000
      vertex  4.207107e+001 -4.207107e+001  0.000000e+000
      vertex  3.882684e+001 -4.423880e+001  0.000000e+000
    endloop
  endfacet
  facet normal  0.000000e+000  0.000000e+000  9.999999e-001
    outer loop
      vertex  5.000000e+001 -5.000000e+001  0.000000e+000
      vertex  3.882684e+001 -4.423880e+001  0.000000e+000
      vertex  3.500000e+001 -4.500000e+001  0.000000e+000
    endloop
  endfacet
  facet normal  1.950901e-001  9.807853e-001  -0.000000e+000
    outer loop
      vertex  3.500000e+001 -4.500000e+001  0.000000e+000
      vertex  3.117317e+001 -4.423880e+001 -8.000000e+000
      vertex  3.117317e+001 -4.423880e+001  0.000000e+000
    endloop
  endfacet
  facet normal  5.555703e-001  8.314695e-001  0.000000e+000
    outer loop
      vertex  3.117317e+001 -4.423880e+001  0.000000e+000
      vertex  3.117317e+001 -4.423880e+001 -8.000000e+000
      vertex  2.792893e+001 -4.207107e+001 -8.000000e+000
    endloop
  endfacet
  facet normal  5.555703e-001  8.314695e-001  -0.000000e+000
    outer loop
      vertex  3.117317e+001 -4.423880e+001  0.000000e+000
      vertex  2.792893e+001 -4.207107e+001 -8.000000e+000
      vertex  2.792893e+001 -4.207107e+001  0.000000e+000
    endloop
  endfacet
  facet normal  8.314694e-001  5.555705e-001  0.000000e+000
    outer loop
      vertex  2.792893e+001 -4.207107e+001  0.000000e+000
      vertex  2.792893e+001 -4.207107e+001 -8.000000e+000
      vertex  2.576120e+001 -3.882684e+001 -8.000000e+000
    endloop
  endfacet
  facet normal  8.314694e-001  5.555705e-001  -0.000000e+000
    outer loop
      vertex  2.792893e+001 -4.207107e+001  0.000000e+000
      vertex  2.576120e+001 -3.882684e+001 -8.000000e+000
      vertex  2.576120e+001 -3.882684e+001  0.000000e+000
    endloop
  endfacet
  facet normal  9.807854e-001  1.950900e-001  0.000000e+000
    outer loop
      vertex  2.576120e+001 -3.882684e+001  0.000000e+000
      vertex  2.576120e+001 -3.882684e+001 -8.000000e+000
      vertex  2.500000e+001 -3.500000e+001 -8.000000e+000
    endloop
  endfacet
  facet normal  9.807854e-001  1.950900e-001  -0.000000e+000
    outer loop
      vertex  2.576120e+001 -3.882684e+001  0.000000e+000
      vertex  2.500000e+001 -3.500000e+001 -8.000000e+000
      vertex  2.500000e+001 -3.500000e+001  4.440892e-016
    endloop
  endfacet
  facet normal  1.950901e-001  9.807853e-001  0.000000e+000
    outer loop
      vertex  3.117317e+001 -4.423880e+001 -8.000000e+000
      vertex  3.500000e+001 -4.500000e+001  0.000000e+000
      vertex  3.500000e+001 -4.500000e+001 -8.000000e+000
    endloop
  endfacet
  facet normal -1.950900e-001  9.807854e-001  0.000000e+000
    outer loop
      vertex  3.500000e+001 -4.500000e+001 -8.000000e+000
      vertex  3.500000e+001 -4.500000e+001  0.000000e+000
      vertex  3.882684e+001 -4.423880e+001  0.000000e+000
    endloop
  endfacet
  facet normal -1.950900e-001  9.807854e-001  0.000000e+000
    outer loop
      vertex  3.500000e+001 -4.500000e+001 -8.000000e+000
      vertex  3.882684e+001 -4.423880e+001  0.000000e+000
      vertex  3.882684e+001 -4.423880e+001 -8.000000e+000
    endloop
  endfacet
  facet normal -5.555705e-001  8.314694e-001  0.000000e+000
    outer loop
      vertex  3.882684e+001 -4.423880e+001 -8.000000e+000
      vertex  3.882684e+001 -4.423880e+001  0.000000e+000
      vertex  4.207107e+001 -4.207107e+001  0.000000e+000
    endloop
  endfacet
  facet normal -5.555705e-001  8.314694e-001  0.000000e+000
    outer loop
      vertex  3.882684e+001 -4.423880e+001 -8.000000e+000
      vertex  4.207107e+001 -4.207107e+001  0.000000e+000
      vertex  4.207107e+001 -4.207107e+001 -8.000000e+000
    endloop
  endfacet
  facet normal -8.314694e-001  5.555705e-001  0.000000e+000
    outer loop
      vertex  4.207107e+001 -4.207107e+001 -8.000000e+000
      vertex  4.207107e+001 -4.207107e+001  0.000000e+000
      vertex  4.423880e+001 -3.882684e+001  0.000000e+000
    endloop
  endfacet
  facet normal -8.314694e-001  5.555705e-001  0.000000e+000
    outer loop
      vertex  4.207107e+001 -4.207107e+001 -8.000000e+000
      vertex  4.423880e+001 -3.882684e+001  0.000000e+000
      vertex  4.423880e+001 -3.882684e+001 -8.000000e+000
    endloop
  endfacet
  facet normal -9.807854e-001  1.950900e-001  0.000000e+000
    outer loop
      vertex  4.423880e+001 -3.882684e+001 -8.000000e+000
      vertex  4.423880e+001 -3.882684e+001  0.000000e+000
      vertex  4.500000e+001 -3.500000e+001  0.000000e+000
    endloop
  endfacet
  facet normal -9.807854e-001  1.950900e-001  0.000000e+000
    outer loop
      vertex  4.423880e+001 -3.882684e+001 -8.000000e+000
      vertex  4.500000e+001 -3.500000e+001  0.000000e+000
      vertex  4.500000e+001 -3.500000e+001 -8.000000e+000
    endloop
  endfacet
  facet normal -1.950900e-001 -9.807854e-001  0.000000e+000
    outer loop
      vertex  3.500000e+001 -2.500000e+001  0.000000e+000
      vertex  3.882684e+001 -2.576120e+001 -8.000000e+000
      vertex  3.882684e+001 -2.576120e+001  0.000000e+000
    endloop
  endfacet
  facet normal -5.555705e-001 -8.314694e-001  -0.000000e+000
    outer loop
      vertex  3.882684e+001 -2.576120e+001  0.000000e+000
      vertex  3.882684e+001 -2.576120e+001 -8.000000e+000
      vertex  4.207107e+001 -2.792893e+001 -8.000000e+000
    endloop
  endfacet
  facet normal -5.555705e-001 -8.314694e-001  0.000000e+000
    outer loop
      vertex  3.882684e+001 -2.576120e+001  0.000000e+000
      vertex  4.207107e+001 -2.792893e+001 -8.000000e+000
      vertex  4.207107e+001 -2.792893e+001  0.000000e+000
    endloop
  endfacet
  facet normal -8.314695e-001 -5.555703e-001  -0.000000e+000
    outer loop
      vertex  4.207107e+001 -2.792893e+001  0.000000e+000
      vertex  4.207107e+001 -2.792893e+001 -8.000000e+000
      vertex  4.423880e+001 -3.117317e+001 -8.000000e+000
    endloop
  endfacet
  facet normal -8.314695e-001 -5.555703e-001  0.000000e+000
    outer loop
      vertex  4.207107e+001 -2.792893e+001  0.000000e+000
      vertex  4.423880e+001 -3.117317e+001 -8.000000e+000
      vertex  4.423880e+001 -3.117317e+001  0.000000e+000
    endloop
  endfacet
  facet normal -9.807853e-001 -1.950901e-001  -0.000000e+000
    outer loop
      vertex  4.423880e+001 -3.117317e+001  0.000000e+000
      vertex  4.423880e+001 -3.117317e+001 -8.000000e+000
      vertex  4.500000e+001 -3.500000e+001 -8.000000e+000
    endloop
  endfacet
  facet normal -9.807853e-001 -1.950901e-001  0.000000e+000
    outer loop
      vertex  4.423880e+001 -3.117317e+001  0.000000e+000
      vertex  4.500000e+001 -3.500000e+001 -8.000000e+000
      vertex  4.500000e+001 -3.500000e+001  0.000000e+000
    endloop
  endfacet
  facet normal -1.950900e-001 -9.807854e-001  -0.000000e+000
    outer loop
      vertex  3.882684e+001 -2.576120e+001 -8.000000e+000
      vertex  3.500000e+001 -2.500000e+001  0.000000e+000
      vertex  3.500000e+001 -2.500000e+001 -8.000000e+000
    endloop
  endfacet
  facet normal  1.950901e-001 -9.807853e-001  0.000000e+000
    outer loop
      vertex  3.500000e+001 -2.500000e+001 -8.000000e+000
      vertex  3.500000e+001 -2.500000e+001  0.000000e+000
      vertex  3.117317e+001 -2.576120e+001  0.000000e+000
    endloop
  endfacet
  facet normal  1.950901e-001 -9.807853e-001  0.000000e+000
    outer loop
      vertex  3.500000e+001 -2.500000e+001 -8.000000e+000
      vertex  3.117317e+001 -2.576120e+001  0.000000e+000
      vertex  3.117317e+001 -2.576120e+001 -8.000000e+000
    endloop
  endfacet
  facet normal  5.555703e-001 -8.314695e-001  0.000000e+000
    outer loop
      vertex  3.117317e+001 -2.576120e+001 -8.000000e+000
      vertex  3.117317e+001 -2.576120e+001  0.000000e+000
      vertex  2.792893e+001 -2.792893e+001  0.000000e+000
    endloop
  endfacet
  facet normal  5.555703e-001 -8.314695e-001  0.000000e+000
    outer loop
      vertex  3.117317e+001 -2.576120e+001 -8.000000e+000
      vertex  2.792893e+001 -2.792893e+001  0.000000e+000
      vertex  2.792893e+001 -2.792893e+001 -8.000000e+000
    endloop
  endfacet
  facet normal  8.314695e-001 -5.555703e-001  0.000000e+000
    outer loop
      vertex  2.792893e+001 -2.792893e+001 -8.000000e+000
      vertex  2.792893e+001 -2.792893e+001  0.000000e+000
      vertex  2.576120e+001 -3.117317e+001  0.000000e+000
    endloop
  endfacet
  facet normal  8.314695e-001 -5.555703e-001  0.000000e+000
    outer loop
      vertex  2.792893e+001 -2.792893e+001 -8.000000e+000
      vertex  2.576120e+001 -3.117317e+001  0.000000e+000
      vertex  2.576120e+001 -3.117317e+001 -8.000000e+000
    endloop
  endfacet
  facet normal  9.807853e-001 -1.950901e-001  0.000000e+000
    outer loop
      vertex  2.576120e+001 -3.117317e+001 -8.000000e+000
      vertex  2.576120e+001 -3.117317e+001  0.000000e+000
      vertex  2.500000e+001 -3.500000e+001  4.440892e-016
    endloop
  endfacet
  facet normal  9.807853e-001 -1.950901e-001  0.000000e+000
    outer loop
      vertex  2.576120e+001 -3.117317e+001 -8.000000e+000
      vertex  2.500000e+001 -3.500000e+001  4.440892e-016
      vertex  2.500000e+001 -3.500000e+001 -8.000000e+000
    endloop
  endfacet
  facet normal  -0.000000e+000  0.000000e+000  1.000000e+000
    outer loop
      vertex  3.500000e+001 -2.500000e+001 -8.000000e+000
      vertex  2.792893e+001 -2.792893e+001 -8.000000e+000
      vertex  3.500000e+001 -3.081200e+001 -8.000000e+000
    endloop
  endfacet
  facet normal  0.000000e+000  0.000000e+000  1.000000e+000
    outer loop
      vertex  3.117317e+001 -2.576120e+001 -8.000000e+000
      vertex  2.792893e+001 -2.792893e+001 -8.000000e+000
      vertex  3.500000e+001 -2.500000e+001 -8.000000e+000
    endloop
  endfacet
  facet normal  0.000000e+000  0.000000e+000  1.000000e+000
    outer loop
      vertex  2.576120e+001 -3.117317e+001 -8.000000e+000
      vertex  2.500000e+001 -3.500000e+001 -8.000000e+000
      vertex  3.081200e+001 -3.500000e+001 -8.000000e+000
    endloop
  endfacet
  facet normal  0.000000e+000  -0.000000e+000  9.999999e-001
    outer loop
      vertex  2.576120e+001 -3.117317e+001 -8.000000e+000
      vertex  3.081200e+001 -3.500000e+001 -8.000000e+000
      vertex  3.137309e+001 -3.290600e+001 -8.000000e+000
    endloop
  endfacet
  facet normal  0.000000e+000  -0.000000e+000  1.000000e+000
    outer loop
      vertex  2.576120e+001 -3.117317e+001 -8.000000e+000
      vertex  3.137309e+001 -3.290600e+001 -8.000000e+000
      vertex  3.290600e+001 -3.137309e+001 -8.000000e+000
    endloop
  endfacet
  facet normal  0.000000e+000  -0.000000e+000  1.000000e+000
    outer loop
      vertex  2.576120e+001 -3.117317e+001 -8.000000e+000
      vertex  3.290600e+001 -3.137309e+001 -8.000000e+000
      vertex  3.500000e+001 -3.081200e+001 -8.000000e+000
    endloop
  endfacet
  facet normal  0.000000e+000  0.000000e+000  1.000000e+000
    outer loop
      vertex  2.576120e+001 -3.117317e+001 -8.000000e+000
      vertex  3.500000e+001 -3.081200e+001 -8.000000e+000
      vertex  2.792893e+001 -2.792893e+001 -8.000000e+000
    endloop
  endfacet
  facet normal  0.000000e+000  0.000000e+000  1.000000e+000
    outer loop
      vertex  4.207107e+001 -4.207107e+001 -8.000000e+000
      vertex  3.500000e+001 -3.918800e+001 -8.000000e+000
      vertex  3.882684e+001 -4.423880e+001 -8.000000e+000
    endloop
  endfacet
  facet normal  0.000000e+000  0.000000e+000  1.000000e+000
    outer loop
      vertex  3.882684e+001 -4.423880e+001 -8.000000e+000
      vertex  3.500000e+001 -3.918800e+001 -8.000000e+000
      vertex  3.500000e+001 -4.500000e+001 -8.000000e+000
    endloop
  endfacet
  facet normal  -0.000000e+000  0.000000e+000  1.000000e+000
    outer loop
      vertex  3.500000e+001 -3.918800e+001 -8.000000e+000
      vertex  2.792893e+001 -4.207107e+001 -8.000000e+000
      vertex  3.500000e+001 -4.500000e+001 -8.000000e+000
    endloop
  endfacet
  facet normal  0.000000e+000  0.000000e+000  1.000000e+000
    outer loop
      vertex  3.500000e+001 -4.500000e+001 -8.000000e+000
      vertex  2.792893e+001 -4.207107e+001 -8.000000e+000
      vertex  3.117317e+001 -4.423880e+001 -8.000000e+000
    endloop
  endfacet
  facet normal  -0.000000e+000  0.000000e+000  1.000000e+000
    outer loop
      vertex  3.081200e+001 -3.500000e+001 -8.000000e+000
      vertex  2.500000e+001 -3.500000e+001 -8.000000e+000
      vertex  3.137309e+001 -3.709400e+001 -8.000000e+000
    endloop
  endfacet
  facet normal  0.000000e+000  0.000000e+000  1.000000e+000
    outer loop
      vertex  3.137309e+001 -3.709400e+001 -8.000000e+000
      vertex  2.500000e+001 -3.500000e+001 -8.000000e+000
      vertex  2.576120e+001 -3.882684e+001 -8.000000e+000
    endloop
  endfacet
  facet normal  0.000000e+000  0.000000e+000  1.000000e+000
    outer loop
      vertex  3.137309e+001 -3.709400e+001 -8.000000e+000
      vertex  2.576120e+001 -3.882684e+001 -8.000000e+000
      vertex  3.290600e+001 -3.862691e+001 -8.000000e+000
    endloop
  endfacet
  facet normal  0.000000e+000  0.000000e+000  1.000000e+000
    outer loop
      vertex  3.290600e+001 -3.862691e+001 -8.000000e+000
      vertex  2.576120e+001 -3.882684e+001 -8.000000e+000
      vertex  2.792893e+001 -4.207107e+001 -8.000000e+000
    endloop
  endfacet
  facet normal  0.000000e+000  0.000000e+000  1.000000e+000
    outer loop
      vertex  3.290600e+001 -3.862691e+001 -8.000000e+000
      vertex  2.792893e+001 -4.207107e+001 -8.000000e+000
      vertex  3.500000e+001 -3.918800e+001 -8.000000e+000
    endloop
  endfacet
  facet normal  0.000000e+000  0.000000e+000  1.000000e+000
    outer loop
      vertex  3.918800e+001 -3.500000e+001 -8.000000e+000
      vertex  3.862691e+001 -3.709400e+001 -8.000000e+000
      vertex  4.500000e+001 -3.500000e+001 -8.000000e+000
    endloop
  endfacet
  facet normal  0.000000e+000  0.000000e+000  9.999999e-001
    outer loop
      vertex  4.500000e+001 -3.500000e+001 -8.000000e+000
      vertex  3.862691e+001 -3.709400e+001 -8.000000e+000
      vertex  3.709400e+001 -3.862691e+001 -8.000000e+000
    endloop
  endfacet
  facet normal  -0.000000e+000  0.000000e+000  1.000000e+000
    outer loop
      vertex  4.500000e+001 -3.500000e+001 -8.000000e+000
      vertex  3.709400e+001 -3.862691e+001 -8.000000e+000
      vertex  4.423880e+001 -3.882684e+001 -8.000000e+000
    endloop
  endfacet
  facet normal  0.000000e+000  0.000000e+000  1.000000e+000
    outer loop
      vertex  4.423880e+001 -3.882684e+001 -8.000000e+000
      vertex  3.709400e+001 -3.862691e+001 -8.000000e+000
      vertex  3.500000e+001 -3.918800e+001 -8.000000e+000
    endloop
  endfacet
  facet normal  -0.000000e+000  0.000000e+000  1.000000e+000
    outer loop
      vertex  4.423880e+001 -3.882684e+001 -8.000000e+000
      vertex  3.500000e+001 -3.918800e+001 -8.000000e+000
      vertex  4.207107e+001 -4.207107e+001 -8.000000e+000
    endloop
  endfacet
  facet normal  0.000000e+000  -0.000000e+000  1.000000e+000
    outer loop
      vertex  3.709400e+001 -3.137309e+001 -8.000000e+000
      vertex  3.862691e+001 -3.290600e+001 -8.000000e+000
      vertex  4.423880e+001 -3.117317e+001 -8.000000e+000
    endloop
  endfacet
  facet normal  0.000000e+000  0.000000e+000  9.999999e-001
    outer loop
      vertex  4.423880e+001 -3.117317e+001 -8.000000e+000
      vertex  3.862691e+001 -3.290600e+001 -8.000000e+000
      vertex  3.918800e+001 -3.500000e+001 -8.000000e+000
    endloop
  endfacet
  facet normal  0.000000e+000  0.000000e+000  1.000000e+000
    outer loop
      vertex  4.423880e+001 -3.117317e+001 -8.000000e+000
      vertex  3.918800e+001 -3.500000e+001 -8.000000e+000
      vertex  4.500000e+001 -3.500000e+001 -8.000000e+000
    endloop
  endfacet
  facet normal  0.000000e+000  0.000000e+000  1.000000e+000
    outer loop
      vertex  4.423880e+001 -3.117317e+001 -8.000000e+000
      vertex  4.207107e+001 -2.792893e+001 -8.000000e+000
      vertex  3.709400e+001 -3.137309e+001 -8.000000e+000
    endloop
  endfacet
  facet normal  0.000000e+000  -0.000000e+000  1.000000e+000
    outer loop
      vertex  3.709400e+001 -3.137309e+001 -8.000000e+000
      vertex  4.207107e+001 -2.792893e+001 -8.000000e+000
      vertex  3.500000e+001 -3.081200e+001 -8.000000e+000
    endloop
  endfacet
  facet normal  0.000000e+000  0.000000e+000  1.000000e+000
    outer loop
      vertex  4.207107e+001 -2.792893e+001 -8.000000e+000
      vertex  3.882684e+001 -2.576120e+001 -8.000000e+000
      vertex  3.500000e+001 -3.081200e+001 -8.000000e+000
    endloop
  endfacet
  facet normal  0.000000e+000  0.000000e+000  1.000000e+000
    outer loop
      vertex  3.500000e+001 -3.081200e+001 -8.000000e+000
      vertex  3.882684e+001 -2.576120e+001 -8.000000e+000
      vertex  3.500000e+001 -2.500000e+001 -8.000000e+000
    endloop
  endfacet
  facet normal -2.588184e-001 -9.659259e-001  0.000000e+000
    outer loop
      vertex  3.500000e+001 -3.081200e+001 -8.000000e+000
      vertex  3.709400e+001 -3.137309e+001 -2.000000e+001
      vertex  3.709400e+001 -3.137309e+001 -8.000000e+000
    endloop
  endfacet
  facet normal -7.071067e-001 -7.071067e-001  -0.000000e+000
    outer loop
      vertex  3.709400e+001 -3.137309e+001 -8.000000e+000
      vertex  3.709400e+001 -3.137309e+001 -2.000000e+001
      vertex  3.862691e+001 -3.290600e+001 -2.000000e+001
    endloop
  endfacet
  facet normal -7.071067e-001 -7.071067e-001  0.000000e+000
    outer loop
      vertex  3.709400e+001 -3.137309e+001 -8.000000e+000
      vertex  3.862691e+001 -3.290600e+001 -2.000000e+001
      vertex  3.862691e+001 -3.290600e+001 -8.000000e+000
    endloop
  endfacet
  facet normal -9.659259e-001 -2.588184e-001  -0.000000e+000
    outer loop
      vertex  3.862691e+001 -3.290600e+001 -8.000000e+000
      vertex  3.862691e+001 -3.290600e+001 -2.000000e+001
      vertex  3.918800e+001 -3.500000e+001 -2.000000e+001
    endloop
  endfacet
  facet normal -9.659259e-001 -2.588184e-001  0.000000e+000
    outer loop
      vertex  3.862691e+001 -3.290600e+001 -8.000000e+000
      vertex  3.918800e+001 -3.500000e+001 -2.000000e+001
      vertex  3.918800e+001 -3.500000e+001 -8.000000e+000
    endloop
  endfacet
  facet normal -2.588184e-001 -9.659259e-001  -0.000000e+000
    outer loop
      vertex  3.709400e+001 -3.137309e+001 -2.000000e+001
      vertex  3.500000e+001 -3.081200e+001 -8.000000e+000
      vertex  3.500000e+001 -3.081200e+001 -2.000000e+001
    endloop
  endfacet
  facet normal  2.588184e-001 -9.659259e-001  0.000000e+000
    outer loop
      vertex  3.500000e+001 -3.081200e+001 -2.000000e+001
      vertex  3.500000e+001 -3.081200e+001 -8.000000e+000
      vertex  3.290600e+001 -3.137309e+001 -8.000000e+000
    endloop
  endfacet
  facet normal  2.588184e-001 -9.659259e-001  0.000000e+000
    outer loop
      vertex  3.500000e+001 -3.081200e+001 -2.000000e+001
      vertex  3.290600e+001 -3.137309e+001 -8.000000e+000
      vertex  3.290600e+001 -3.137309e+001 -2.000000e+001
    endloop
  endfacet
  facet normal  7.071067e-001 -7.071067e-001  0.000000e+000
    outer loop
      vertex  3.290600e+001 -3.137309e+001 -2.000000e+001
      vertex  3.290600e+001 -3.137309e+001 -8.000000e+000
      vertex  3.137309e+001 -3.290600e+001 -8.000000e+000
    endloop
  endfacet
  facet normal  7.071067e-001 -7.071067e-001  0.000000e+000
    outer loop
      vertex  3.290600e+001 -3.137309e+001 -2.000000e+001
      vertex  3.137309e+001 -3.290600e+001 -8.000000e+000
      vertex  3.137309e+001 -3.290600e+001 -2.000000e+001
    endloop
  endfacet
  facet normal  9.659259e-001 -2.588184e-001  0.000000e+000
    outer loop
      vertex  3.137309e+001 -3.290600e+001 -2.000000e+001
      vertex  3.137309e+001 -3.290600e+001 -8.000000e+000
      vertex  3.081200e+001 -3.500000e+001 -8.000000e+000
    endloop
  endfacet
  facet normal  9.659259e-001 -2.588184e-001  0.000000e+000
    outer loop
      vertex  3.137309e+001 -3.290600e+001 -2.000000e+001
      vertex  3.081200e+001 -3.500000e+001 -8.000000e+000
      vertex  3.081200e+001 -3.500000e+001 -2.000000e+001
    endloop
  endfacet
  facet normal -4.955721e-001 -1.327878e-001  8.583564e-001
    outer loop
      vertex  3.500000e+001 -3.500000e+001 -2.241794e+001
      vertex  3.918800e+001 -3.500000e+001 -2.000000e+001
      vertex  3.862691e+001 -3.290600e+001 -2.000000e+001
    endloop
  endfacet
  facet normal -3.627838e-001 -3.627838e-001  8.583564e-001
    outer loop
      vertex  3.500000e+001 -3.500000e+001 -2.241794e+001
      vertex  3.862691e+001 -3.290600e+001 -2.000000e+001
      vertex  3.709400e+001 -3.137309e+001 -2.000000e+001
    endloop
  endfacet
  facet normal -1.327878e-001 -4.955721e-001  8.583564e-001
    outer loop
      vertex  3.500000e+001 -3.500000e+001 -2.241794e+001
      vertex  3.709400e+001 -3.137309e+001 -2.000000e+001
      vertex  3.500000e+001 -3.081200e+001 -2.000000e+001
    endloop
  endfacet
  facet normal  1.327878e-001 -4.955721e-001  8.583564e-001
    outer loop
      vertex  3.500000e+001 -3.500000e+001 -2.241794e+001
      vertex  3.500000e+001 -3.081200e+001 -2.000000e+001
      vertex  3.290600e+001 -3.137309e+001 -2.000000e+001
    endloop
  endfacet
  facet normal  3.627838e-001 -3.627838e-001  8.583564e-001
    outer loop
      vertex  3.500000e+001 -3.500000e+001 -2.241794e+001
      vertex  3.290600e+001 -3.137309e+001 -2.000000e+001
      vertex  3.137309e+001 -3.290600e+001 -2.000000e+001
    endloop
  endfacet
  facet normal  4.955721e-001 -1.327878e-001  8.583564e-001
    outer loop
      vertex  3.500000e+001 -3.500000e+001 -2.241794e+001
      vertex  3.137309e+001 -3.290600e+001 -2.000000e+001
      vertex  3.081200e+001 -3.500000e+001 -2.000000e+001
    endloop
  endfacet
  facet normal  2.588184e-001  9.659259e-001  -0.000000e+000
    outer loop
      vertex  3.500000e+001 -3.918800e+001 -8.000000e+000
      vertex  3.290600e+001 -3.862691e+001 -2.000000e+001
      vertex  3.290600e+001 -3.862691e+001 -8.000000e+000
    endloop
  endfacet
  facet normal  7.071067e-001  7.071067e-001  0.000000e+000
    outer loop
      vertex  3.290600e+001 -3.862691e+001 -8.000000e+000
      vertex  3.290600e+001 -3.862691e+001 -2.000000e+001
      vertex  3.137309e+001 -3.709400e+001 -2.000000e+001
    endloop
  endfacet
  facet normal  7.071067e-001  7.071067e-001  -0.000000e+000
    outer loop
      vertex  3.290600e+001 -3.862691e+001 -8.000000e+000
      vertex  3.137309e+001 -3.709400e+001 -2.000000e+001
      vertex  3.137309e+001 -3.709400e+001 -8.000000e+000
    endloop
  endfacet
  facet normal  9.659259e-001  2.588184e-001  0.000000e+000
    outer loop
      vertex  3.137309e+001 -3.709400e+001 -8.000000e+000
      vertex  3.137309e+001 -3.709400e+001 -2.000000e+001
      vertex  3.081200e+001 -3.500000e+001 -2.000000e+001
    endloop
  endfacet
  facet normal  9.659259e-001  2.588184e-001  -0.000000e+000
    outer loop
      vertex  3.137309e+001 -3.709400e+001 -8.000000e+000
      vertex  3.081200e+001 -3.500000e+001 -2.000000e+001
      vertex  3.081200e+001 -3.500000e+001 -8.000000e+000
    endloop
  endfacet
  facet normal  2.588184e-001  9.659259e-001  0.000000e+000
    outer loop
      vertex  3.290600e+001 -3.862691e+001 -2.000000e+001
      vertex  3.500000e+001 -3.918800e+001 -8.000000e+000
      vertex  3.500000e+001 -3.918800e+001 -2.000000e+001
    endloop
  endfacet
  facet normal -2.588184e-001  9.659259e-001  0.000000e+000
    outer loop
      vertex  3.500000e+001 -3.918800e+001 -2.000000e+001
      vertex  3.500000e+001 -3.918800e+001 -8.000000e+000
      vertex  3.709400e+001 -3.862691e+001 -8.000000e+000
    endloop
  endfacet
  facet normal -2.588184e-001  9.659259e-001  0.000000e+000
    outer loop
      vertex  3.500000e+001 -3.918800e+001 -2.000000e+001
      vertex  3.709400e+001 -3.862691e+001 -8.000000e+000
      vertex  3.709400e+001 -3.862691e+001 -2.000000e+001
    endloop
  endfacet
  facet normal -7.071067e-001  7.071067e-001  0.000000e+000
    outer loop
      vertex  3.709400e+001 -3.862691e+001 -2.000000e+001
      vertex  3.709400e+001 -3.862691e+001 -8.000000e+000
      vertex  3.862691e+001 -3.709400e+001 -8.000000e+000
    endloop
  endfacet
  facet normal -7.071067e-001  7.071067e-001  0.000000e+000
    outer loop
      vertex  3.709400e+001 -3.862691e+001 -2.000000e+001
      vertex  3.862691e+001 -3.709400e+001 -8.000000e+000
      vertex  3.862691e+001 -3.709400e+001 -2.000000e+001
    endloop
  endfacet
  facet normal -9.659259e-001  2.588184e-001  0.000000e+000
    outer loop
      vertex  3.862691e+001 -3.709400e+001 -2.000000e+001
      vertex  3.862691e+001 -3.709400e+001 -8.000000e+000
      vertex  3.918800e+001 -3.500000e+001 -8.000000e+000
    endloop
  endfacet
  facet normal -9.659259e-001  2.588184e-001  0.000000e+000
    outer loop
      vertex  3.862691e+001 -3.709400e+001 -2.000000e+001
      vertex  3.918800e+001 -3.500000e+001 -8.000000e+000
      vertex  3.918800e+001 -3.500000e+001 -2.000000e+001
    endloop
  endfacet
  facet normal  4.955721e-001  1.327878e-001  8.583564e-001
    outer loop
      vertex  3.500000e+001 -3.500000e+001 -2.241794e+001
      vertex  3.081200e+001 -3.500000e+001 -2.000000e+001
      vertex  3.137309e+001 -3.709400e+001 -2.000000e+001
    endloop
  endfacet
  facet normal  3.627838e-001  3.627838e-001  8.583564e-001
    outer loop
      vertex  3.500000e+001 -3.500000e+001 -2.241794e+001
      vertex  3.137309e+001 -3.709400e+001 -2.000000e+001
      vertex  3.290600e+001 -3.862691e+001 -2.000000e+001
    endloop
  endfacet
  facet normal  1.327878e-001  4.955721e-001  8.583564e-001
    outer loop
      vertex  3.500000e+001 -3.500000e+001 -2.241794e+001
      vertex  3.290600e+001 -3.862691e+001 -2.000000e+001
      vertex  3.500000e+001 -3.918800e+001 -2.000000e+001
    endloop
  endfacet
  facet normal -1.327878e-001  4.955721e-001  8.583564e-001
    outer loop
      vertex  3.500000e+001 -3.500000e+001 -2.241794e+001
      vertex  3.500000e+001 -3.918800e+001 -2.000000e+001
      vertex  3.709400e+001 -3.862691e+001 -2.000000e+001
    endloop
  endfacet
  facet normal -3.627838e-001  3.627838e-001  8.583564e-001
    outer loop
      vertex  3.500000e+001 -3.500000e+001 -2.241794e+001
      vertex  3.709400e+001 -3.862691e+001 -2.000000e+001
      vertex  3.862691e+001 -3.709400e+001 -2.000000e+001
    endloop
  endfacet
  facet normal -4.955721e-001  1.327878e-001  8.583564e-001
    outer loop
      vertex  3.500000e+001 -3.500000e+001 -2.241794e+001
      vertex  3.862691e+001 -3.709400e+001 -2.000000e+001
      vertex  3.918800e+001 -3.500000e+001 -2.000000e+001
    endloop
  endfacet
  facet normal  0.000000e+000  0.000000e+000  1.000000e+000
    outer loop
      vertex -5.000000e+001 -1.195732e+001 -1.000000e+001
      vertex -5.000000e+001 -5.000000e+001 -1.000000e+001
      vertex -4.423880e+001 -3.117317e+001 -1.000000e+001
    endloop
  endfacet
  facet normal  0.000000e+000  -0.000000e+000  1.000000e+000
    outer loop
      vertex -5.000000e+001 -1.195732e+001 -1.000000e+001
      vertex -4.423880e+001 -3.117317e+001 -1.000000e+001
      vertex -4.207107e+001 -2.792893e+001 -1.000000e+001
    endloop
  endfacet
  facet normal  0.000000e+000  -0.000000e+000  1.000000e+000
    outer loop
      vertex -5.000000e+001 -1.195732e+001 -1.000000e+001
      vertex -4.207107e+001 -2.792893e+001 -1.000000e+001
      vertex -3.882684e+001 -2.576120e+001 -1.000000e+001
    endloop
  endfacet
  facet normal  0.000000e+000  -0.000000e+000  1.000000e+000
    outer loop
      vertex -5.000000e+001 -1.195732e+001 -1.000000e+001
      vertex -3.882684e+001 -2.576120e+001 -1.000000e+001
      vertex -3.500000e+001 -2.500000e+001 -1.000000e+001
    endloop
  endfacet
  facet normal  -0.000000e+000  -0.000000e+000  1.000000e+000
    outer loop
      vertex -5.000000e+001 -1.195732e+001 -1.000000e+001
      vertex -3.500000e+001 -2.500000e+001 -1.000000e+001
      vertex -3.117317e+001 -2.576120e+001 -1.000000e+001
    endloop
  endfacet
  facet normal  -0.000000e+000  -0.000000e+000  9.999999e-001
    outer loop
      vertex -5.000000e+001 -1.195732e+001 -1.000000e+001
      vertex -3.117317e+001 -2.576120e+001 -1.000000e+001
      vertex  1.589186e+001 -5.000000e+001 -1.000000e+001
    endloop
  endfacet
  facet normal  0.000000e+000  0.000000e+000  1.000000e+000
    outer loop
      vertex -5.000000e+001 -5.000000e+001 -1.000000e+001
      vertex  1.589186e+001 -5.000000e+001 -1.000000e+001
      vertex -3.500000e+001 -4.500000e+001 -1.000000e+001
    endloop
  endfacet
  facet normal  0.000000e+000  0.000000e+000  9.999999e-001
    outer loop
      vertex -5.000000e+001 -5.000000e+001 -1.000000e+001
      vertex -3.500000e+001 -4.500000e+001 -1.000000e+001
      vertex -3.882684e+001 -4.423880e+001 -1.000000e+001
    endloop
  endfacet
  facet normal  0.000000e+000  0.000000e+000  1.000000e+000
    outer loop
      vertex -5.000000e+001 -5.000000e+001 -1.000000e+001
      vertex -3.882684e+001 -4.423880e+001 -1.000000e+001
      vertex -4.207107e+001 -4.207107e+001 -1.000000e+001
    endloop
  endfacet
  facet normal  0.000000e+000  0.000000e+000  1.000000e+000
    outer loop
      vertex -5.000000e+001 -5.000000e+001 -1.000000e+001
      vertex -4.207107e+001 -4.207107e+001 -1.000000e+001
      vertex -4.423880e+001 -3.882684e+001 -1.000000e+001
    endloop
  endfacet
  facet normal  0.000000e+000  0.000000e+000  9.999999e-001
    outer loop
      vertex -5.000000e+001 -5.000000e+001 -1.000000e+001
      vertex -4.423880e+001 -3.882684e+001 -1.000000e+001
      vertex -4.500000e+001 -3.500000e+001 -1.000000e+001
    endloop
  endfacet
  facet normal  0.000000e+000  -0.000000e+000  1.000000e+000
    outer loop
      vertex -5.000000e+001 -5.000000e+001 -1.000000e+001
      vertex -4.500000e+001 -3.500000e+001 -1.000000e+001
      vertex -4.423880e+001 -3.117317e+001 -1.000000e+001
    endloop
  endfacet
  facet normal  0.000000e+000  0.000000e+000  1.000000e+000
    outer loop
      vertex  1.589186e+001 -5.000000e+001 -1.000000e+001
      vertex -3.117317e+001 -2.576120e+001 -1.000000e+001
      vertex -2.792893e+001 -2.792893e+001 -1.000000e+001
    endloop
  endfacet
  facet normal  0.000000e+000  0.000000e+000  1.000000e+000
    outer loop
      vertex  1.589186e+001 -5.000000e+001 -1.000000e+001
      vertex -2.792893e+001 -2.792893e+001 -1.000000e+001
      vertex -2.576120e+001 -3.117317e+001 -1.000000e+001
    endloop
  endfacet
  facet normal  0.000000e+000  0.000000e+000  1.000000e+000
    outer loop
      vertex  1.589186e+001 -5.000000e+001 -1.000000e+001
      vertex -2.576120e+001 -3.117317e+001 -1.000000e+001
      vertex -2.500000e+001 -3.500000e+001 -1.000000e+001
    endloop
  endfacet
  facet normal  0.000000e+000  0.000000e+000  1.000000e+000
    outer loop
      vertex  1.589186e+001 -5.000000e+001 -1.000000e+001
      vertex -2.500000e+001 -3.500000e+001 -1.000000e+001
      vertex -2.576120e+001 -3.882684e+001 -1.000000e+001
    endloop
  endfacet
  facet normal  0.000000e+000  0.000000e+000  1.000000e+000
    outer loop
      vertex  1.589186e+001 -5.000000e+001 -1.000000e+001
      vertex -2.576120e+001 -3.882684e+001 -1.000000e+001
      vertex -2.792893e+001 -4.207107e+001 -1.000000e+001
    endloop
  endfacet
  facet normal  0.000000e+000  0.000000e+000  1.000000e+000
    outer loop
      vertex  1.589186e+001 -5.000000e+001 -1.000000e+001
      vertex -2.792893e+001 -4.207107e+001 -1.000000e+001
      vertex -3.117317e+001 -4.423880e+001 -1.000000e+001
    endloop
  endfacet
  facet normal  0.000000e+000  0.000000e+000  1.000000e+000
    outer loop
      vertex  1.589186e+001 -5.000000e+001 -1.000000e+001
      vertex -3.117317e+001 -4.423880e+001 -1.000000e+001
      vertex -3.500000e+001 -4.500000e+001 -1.000000e+001
    endloop
  endfacet
  facet normal  1.950900e-001  9.807854e-001  -0.000000e+000
    outer loop
      vertex -3.500000e+001 -4.500000e+001 -1.000000e+001
      vertex -3.882684e+001 -4.423880e+001 -1.800000e+001
      vertex -3.882684e+001 -4.423880e+001 -1.000000e+001
    endloop
  endfacet
  facet normal  5.555705e-001  8.314694e-001  0.000000e+000
    outer loop
      vertex -3.882684e+001 -4.423880e+001 -1.000000e+001
      vertex -3.882684e+001 -4.423880e+001 -1.800000e+001
      vertex -4.207107e+001 -4.207107e+001 -1.800000e+001
    endloop
  endfacet
  facet normal  5.555705e-001  8.314694e-001  -0.000000e+000
    outer loop
      vertex -3.882684e+001 -4.423880e+001 -1.000000e+001
      vertex -4.207107e+001 -4.207107e+001 -1.800000e+001
      vertex -4.207107e+001 -4.207107e+001 -1.000000e+001
    endloop
  endfacet
  facet normal  8.314694e-001  5.555705e-001  0.000000e+000
    outer loop
      vertex -4.207107e+001 -4.207107e+001 -1.000000e+001
      vertex -4.207107e+001 -4.207107e+001 -1.800000e+001
      vertex -4.423880e+001 -3.882684e+001 -1.800000e+001
    endloop
  endfacet
  facet normal  8.314694e-001  5.555705e-001  -0.000000e+000
    outer loop
      vertex -4.207107e+001 -4.207107e+001 -1.000000e+001
      vertex -4.423880e+001 -3.882684e+001 -1.800000e+001
      vertex -4.423880e+001 -3.882684e+001 -1.000000e+001
    endloop
  endfacet
  facet normal  9.807854e-001  1.950900e-001  0.000000e+000
    outer loop
      vertex -4.423880e+001 -3.882684e+001 -1.000000e+001
      vertex -4.423880e+001 -3.882684e+001 -1.800000e+001
      vertex -4.500000e+001 -3.500000e+001 -1.800000e+001
    endloop
  endfacet
  facet normal  9.807854e-001  1.950900e-001  -0.000000e+000
    outer loop
      vertex -4.423880e+001 -3.882684e+001 -1.000000e+001
      vertex -4.500000e+001 -3.500000e+001 -1.800000e+001
      vertex -4.500000e+001 -3.500000e+001 -1.000000e+001
    endloop
  endfacet
  facet normal  1.950900e-001  9.807854e-001  0.000000e+000
    outer loop
      vertex -3.882684e+001 -4.423880e+001 -1.800000e+001
      vertex -3.500000e+001 -4.500000e+001 -1.000000e+001
      vertex -3.500000e+001 -4.500000e+001 -1.800000e+001
    endloop
  endfacet
  facet normal -1.950901e-001  9.807853e-001  0.000000e+000
    outer loop
      vertex -3.500000e+001 -4.500000e+001 -1.800000e+001
      vertex -3.500000e+001 -4.500000e+001 -1.000000e+001
      vertex -3.117317e+001 -4.423880e+001 -1.000000e+001
    endloop
  endfacet
  facet normal -1.950901e-001  9.807853e-001  0.000000e+000
    outer loop
      vertex -3.500000e+001 -4.500000e+001 -1.800000e+001
      vertex -3.117317e+001 -4.423880e+001 -1.000000e+001
      vertex -3.117317e+001 -4.423880e+001 -1.800000e+001
    endloop
  endfacet
  facet normal -5.555703e-001  8.314695e-001  0.000000e+000
    outer loop
      vertex -3.117317e+001 -4.423880e+001 -1.800000e+001
      vertex -3.117317e+001 -4.423880e+001 -1.000000e+001
      vertex -2.792893e+001 -4.207107e+001 -1.000000e+001
    endloop
  endfacet
  facet normal -5.555703e-001  8.314695e-001  0.000000e+000
    outer loop
      vertex -3.117317e+001 -4.423880e+001 -1.800000e+001
      vertex -2.792893e+001 -4.207107e+001 -1.000000e+001
      vertex -2.792893e+001 -4.207107e+001 -1.800000e+001
    endloop
  endfacet
  facet normal -8.314694e-001  5.555705e-001  0.000000e+000
    outer loop
      vertex -2.792893e+001 -4.207107e+001 -1.800000e+001
      vertex -2.792893e+001 -4.207107e+001 -1.000000e+001
      vertex -2.576120e+001 -3.882684e+001 -1.000000e+001
    endloop
  endfacet
  facet normal -8.314694e-001  5.555705e-001  0.000000e+000
    outer loop
      vertex -2.792893e+001 -4.207107e+001 -1.800000e+001
      vertex -2.576120e+001 -3.882684e+001 -1.000000e+001
      vertex -2.576120e+001 -3.882684e+001 -1.800000e+001
    endloop
  endfacet
  facet normal -9.807854e-001  1.950900e-001  0.000000e+000
    outer loop
      vertex -2.576120e+001 -3.882684e+001 -1.800000e+001
      vertex -2.576120e+001 -3.882684e+001 -1.000000e+001
      vertex -2.500000e+001 -3.500000e+001 -1.000000e+001
    endloop
  endfacet
  facet normal -9.807854e-001  1.950900e-001  0.000000e+000
    outer loop
      vertex -2.576120e+001 -3.882684e+001 -1.800000e+001
      vertex -2.500000e+001 -3.500000e+001 -1.000000e+001
      vertex -2.500000e+001 -3.500000e+001 -1.800000e+001
    endloop
  endfacet
  facet normal -1.950901e-001 -9.807853e-001  0.000000e+000
    outer loop
      vertex -3.500000e+001 -2.500000e+001 -1.000000e+001
      vertex -3.117317e+001 -2.576120e+001 -1.800000e+001
      vertex -3.117317e+001 -2.576120e+001 -1.000000e+001
    endloop
  endfacet
  facet normal -5.555703e-001 -8.314695e-001  -0.000000e+000
    outer loop
      vertex -3.117317e+001 -2.576120e+001 -1.000000e+001
      vertex -3.117317e+001 -2.576120e+001 -1.800000e+001
      vertex -2.792893e+001 -2.792893e+001 -1.800000e+001
    endloop
  endfacet
  facet normal -5.555703e-001 -8.314695e-001  0.000000e+000
    outer loop
      vertex -3.117317e+001 -2.576120e+001 -1.000000e+001
      vertex -2.792893e+001 -2.792893e+001 -1.800000e+001
      vertex -2.792893e+001 -2.792893e+001 -1.000000e+001
    endloop
  endfacet
  facet normal -8.314695e-001 -5.555703e-001  -0.000000e+000
    outer loop
      vertex -2.792893e+001 -2.792893e+001 -1.000000e+001
      vertex -2.792893e+001 -2.792893e+001 -1.800000e+001
      vertex -2.576120e+001 -3.117317e+001 -1.800000e+001
    endloop
  endfacet
  facet normal -8.314695e-001 -5.555703e-001  0.000000e+000
    outer loop
      vertex -2.792893e+001 -2.792893e+001 -1.000000e+001
      vertex -2.576120e+001 -3.117317e+001 -1.800000e+001
      vertex -2.576120e+001 -3.117317e+001 -1.000000e+001
    endloop
  endfacet
  facet normal -9.807853e-001 -1.950901e-001  -0.000000e+000
    outer loop
      vertex -2.576120e+001 -3.117317e+001 -1.000000e+001
      vertex -2.576120e+001 -3.117317e+001 -1.800000e+001
      vertex -2.500000e+001 -3.500000e+001 -1.800000e+001
    endloop
  endfacet
  facet normal -9.807853e-001 -1.950901e-001  0.000000e+000
    outer loop
      vertex -2.576120e+001 -3.117317e+001 -1.000000e+001
      vertex -2.500000e+001 -3.500000e+001 -1.800000e+001
      vertex -2.500000e+001 -3.500000e+001 -1.000000e+001
    endloop
  endfacet
  facet normal -1.950901e-001 -9.807853e-001  -0.000000e+000
    outer loop
      vertex -3.117317e+001 -2.576120e+001 -1.800000e+001
      vertex -3.500000e+001 -2.500000e+001 -1.000000e+001
      vertex -3.500000e+001 -2.500000e+001 -1.800000e+001
    endloop
  endfacet
  facet normal  1.950900e-001 -9.807854e-001  0.000000e+000
    outer loop
      vertex -3.500000e+001 -2.500000e+001 -1.800000e+001
      vertex -3.500000e+001 -2.500000e+001 -1.000000e+001
      vertex -3.882684e+001 -2.576120e+001 -1.000000e+001
    endloop
  endfacet
  facet normal  1.950900e-001 -9.807854e-001  0.000000e+000
    outer loop
      vertex -3.500000e+001 -2.500000e+001 -1.800000e+001
      vertex -3.882684e+001 -2.576120e+001 -1.000000e+001
      vertex -3.882684e+001 -2.576120e+001 -1.800000e+001
    endloop
  endfacet
  facet normal  5.555705e-001 -8.314694e-001  0.000000e+000
    outer loop
      vertex -3.882684e+001 -2.576120e+001 -1.800000e+001
      vertex -3.882684e+001 -2.576120e+001 -1.000000e+001
      vertex -4.207107e+001 -2.792893e+001 -1.000000e+001
    endloop
  endfacet
  facet normal  5.555705e-001 -8.314694e-001  0.000000e+000
    outer loop
      vertex -3.882684e+001 -2.576120e+001 -1.800000e+001
      vertex -4.207107e+001 -2.792893e+001 -1.000000e+001
      vertex -4.207107e+001 -2.792893e+001 -1.800000e+001
    endloop
  endfacet
  facet normal  8.314695e-001 -5.555703e-001  0.000000e+000
    outer loop
      vertex -4.207107e+001 -2.792893e+001 -1.800000e+001
      vertex -4.207107e+001 -2.792893e+001 -1.000000e+001
      vertex -4.423880e+001 -3.117317e+001 -1.000000e+001
    endloop
  endfacet
  facet normal  8.314695e-001 -5.555703e-001  0.000000e+000
    outer loop
      vertex -4.207107e+001 -2.792893e+001 -1.800000e+001
      vertex -4.423880e+001 -3.117317e+001 -1.000000e+001
      vertex -4.423880e+001 -3.117317e+001 -1.800000e+001
    endloop
  endfacet
  facet normal  9.807853e-001 -1.950901e-001  0.000000e+000
    outer loop
      vertex -4.423880e+001 -3.117317e+001 -1.800000e+001
      vertex -4.423880e+001 -3.117317e+001 -1.000000e+001
      vertex -4.500000e+001 -3.500000e+001 -1.000000e+001
    endloop
  endfacet
  facet normal  9.807853e-001 -1.950901e-001  0.000000e+000
    outer loop
      vertex -4.423880e+001 -3.117317e+001 -1.800000e+001
      vertex -4.500000e+001 -3.500000e+001 -1.000000e+001
      vertex -4.500000e+001 -3.500000e+001 -1.800000e+001
    endloop
  endfacet
  facet normal  -0.000000e+000  0.000000e+000  1.000000e+000
    outer loop
      vertex -3.500000e+001 -2.500000e+001 -1.800000e+001
      vertex -4.207107e+001 -2.792893e+001 -1.800000e+001
      vertex -3.500000e+001 -3.081200e+001 -1.800000e+001
    endloop
  endfacet
  facet normal  0.000000e+000  0.000000e+000  1.000000e+000
    outer loop
      vertex -3.882684e+001 -2.576120e+001 -1.800000e+001
      vertex -4.207107e+001 -2.792893e+001 -1.800000e+001
      vertex -3.500000e+001 -2.500000e+001 -1.800000e+001
    endloop
  endfacet
  facet normal  0.000000e+000  0.000000e+000  1.000000e+000
    outer loop
      vertex -4.423880e+001 -3.117317e+001 -1.800000e+001
      vertex -4.500000e+001 -3.500000e+001 -1.800000e+001
      vertex -3.918800e+001 -3.500000e+001 -1.800000e+001
    endloop
  endfacet
  facet normal  0.000000e+000  -0.000000e+000  9.999999e-001
    outer loop
      vertex -4.423880e+001 -3.117317e+001 -1.800000e+001
      vertex -3.918800e+001 -3.500000e+001 -1.800000e+001
      vertex -3.862691e+001 -3.290600e+001 -1.800000e+001
    endloop
  endfacet
  facet normal  0.000000e+000  -0.000000e+000  1.000000e+000
    outer loop
      vertex -4.423880e+001 -3.117317e+001 -1.800000e+001
      vertex -3.862691e+001 -3.290600e+001 -1.800000e+001
      vertex -3.709400e+001 -3.137309e+001 -1.800000e+001
    endloop
  endfacet
  facet normal  0.000000e+000  -0.000000e+000  1.000000e+000
    outer loop
      vertex -4.423880e+001 -3.117317e+001 -1.800000e+001
      vertex -3.709400e+001 -3.137309e+001 -1.800000e+001
      vertex -3.500000e+001 -3.081200e+001 -1.800000e+001
    endloop
  endfacet
  facet normal  0.000000e+000  0.000000e+000  1.000000e+000
    outer loop
      vertex -4.423880e+001 -3.117317e+001 -1.800000e+001
      vertex -3.500000e+001 -3.081200e+001 -1.800000e+001
      vertex -4.207107e+001 -2.792893e+001 -1.800000e+001
    endloop
  endfacet
  facet normal  0.000000e+000  0.000000e+000  1.000000e+000
    outer loop
      vertex -2.792893e+001 -4.207107e+001 -1.800000e+001
      vertex -3.500000e+001 -3.918800e+001 -1.800000e+001
      vertex -3.117317e+001 -4.423880e+001 -1.800000e+001
    endloop
  endfacet
  facet normal  0.000000e+000  0.000000e+000  1.000000e+000
    outer loop
      vertex -3.117317e+001 -4.423880e+001 -1.800000e+001
      vertex -3.500000e+001 -3.918800e+001 -1.800000e+001
      vertex -3.500000e+001 -4.500000e+001 -1.800000e+001
    endloop
  endfacet
  facet normal  -0.000000e+000  0.000000e+000  1.000000e+000
    outer loop
      vertex -3.500000e+001 -3.918800e+001 -1.800000e+001
      vertex -4.207107e+001 -4.207107e+001 -1.800000e+001
      vertex -3.500000e+001 -4.500000e+001 -1.800000e+001
    endloop
  endfacet
  facet normal  0.000000e+000  0.000000e+000  1.000000e+000
    outer loop
      vertex -3.500000e+001 -4.500000e+001 -1.800000e+001
      vertex -4.207107e+001 -4.207107e+001 -1.800000e+001
      vertex -3.882684e+001 -4.423880e+001 -1.800000e+001
    endloop
  endfacet
  facet normal  -0.000000e+000  0.000000e+000  1.000000e+000
    outer loop
      vertex -3.918800e+001 -3.500000e+001 -1.800000e+001
      vertex -4.500000e+001 -3.500000e+001 -1.800000e+001
      vertex -3.862691e+001 -3.709400e+001 -1.800000e+001
    endloop
  endfacet
  facet normal  0.000000e+000  0.000000e+000  1.000000e+000
    outer loop
      vertex -3.862691e+001 -3.709400e+001 -1.800000e+001
      vertex -4.500000e+001 -3.500000e+001 -1.800000e+001
      vertex -4.423880e+001 -3.882684e+001 -1.800000e+001
    endloop
  endfacet
  facet normal  0.000000e+000  0.000000e+000  1.000000e+000
    outer loop
      vertex -3.862691e+001 -3.709400e+001 -1.800000e+001
      vertex -4.423880e+001 -3.882684e+001 -1.800000e+001
      vertex -3.709400e+001 -3.862691e+001 -1.800000e+001
    endloop
  endfacet
  facet normal  0.000000e+000  0.000000e+000  1.000000e+000
    outer loop
      vertex -3.709400e+001 -3.862691e+001 -1.800000e+001
      vertex -4.423880e+001 -3.882684e+001 -1.800000e+001
      vertex -4.207107e+001 -4.207107e+001 -1.800000e+001
    endloop
  endfacet
  facet normal  0.000000e+000  0.000000e+000  1.000000e+000
    outer loop
      vertex -3.709400e+001 -3.862691e+001 -1.800000e+001
      vertex -4.207107e+001 -4.207107e+001 -1.800000e+001
      vertex -3.500000e+001 -3.918800e+001 -1.800000e+001
    endloop
  endfacet
  facet normal  0.000000e+000  0.000000e+000  1.000000e+000
    outer loop
      vertex -3.081200e+001 -3.500000e+001 -1.800000e+001
      vertex -3.137309e+001 -3.709400e+001 -1.800000e+001
      vertex -2.500000e+001 -3.500000e+001 -1.800000e+001
    endloop
  endfacet
  facet normal  0.000000e+000  0.000000e+000  9.999999e-001
    outer loop
      vertex -2.500000e+001 -3.500000e+001 -1.800000e+001
      vertex -3.137309e+001 -3.709400e+001 -1.800000e+001
      vertex -3.290600e+001 -3.862691e+001 -1.800000e+001
    endloop
  endfacet
  facet normal  -0.000000e+000  0.000000e+000  1.000000e+000
    outer loop
      vertex -2.500000e+001 -3.500000e+001 -1.800000e+001
      vertex -3.290600e+001 -3.862691e+001 -1.800000e+001
      vertex -2.576120e+001 -3.882684e+001 -1.800000e+001
    endloop
  endfacet
  facet normal  0.000000e+000  0.000000e+000  1.000000e+000
    outer loop
      vertex -2.576120e+001 -3.882684e+001 -1.800000e+001
      vertex -3.290600e+001 -3.862691e+001 -1.800000e+001
      vertex -3.500000e+001 -3.918800e+001 -1.800000e+001
    endloop
  endfacet
  facet normal  -0.000000e+000  0.000000e+000  1.000000e+000
    outer loop
      vertex -2.576120e+001 -3.882684e+001 -1.800000e+001
      vertex -3.500000e+001 -3.918800e+001 -1.800000e+001
      vertex -2.792893e+001 -4.207107e+001 -1.800000e+001
    endloop
  endfacet
  facet normal  0.000000e+000  -0.000000e+000  1.000000e+000
    outer loop
      vertex -3.290600e+001 -3.137309e+001 -1.800000e+001
      vertex -3.137309e+001 -3.290600e+001 -1.800000e+001
      vertex -2.576120e+001 -3.117317e+001 -1.800000e+001
    endloop
  endfacet
  facet normal  0.000000e+000  0.000000e+000  9.999999e-001
    outer loop
      vertex -2.576120e+001 -3.117317e+001 -1.800000e+001
      vertex -3.137309e+001 -3.290600e+001 -1.800000e+001
      vertex -3.081200e+001 -3.500000e+001 -1.800000e+001
    endloop
  endfacet
  facet normal  0.000000e+000  0.000000e+000  1.000000e+000
    outer loop
      vertex -2.576120e+001 -3.117317e+001 -1.800000e+001
      vertex -3.081200e+001 -3.500000e+001 -1.800000e+001
      vertex -2.500000e+001 -3.500000e+001 -1.800000e+001
    endloop
  endfacet
  facet normal  0.000000e+000  0.000000e+000  1.000000e+000
    outer loop
      vertex -2.576120e+001 -3.117317e+001 -1.800000e+001
      vertex -2.792893e+001 -2.792893e+001 -1.800000e+001
      vertex -3.290600e+001 -3.137309e+001 -1.800000e+001
    endloop
  endfacet
  facet normal  0.000000e+000  -0.000000e+000  1.000000e+000
    outer loop
      vertex -3.290600e+001 -3.137309e+001 -1.800000e+001
      vertex -2.792893e+001 -2.792893e+001 -1.800000e+001
      vertex -3.500000e+001 -3.081200e+001 -1.800000e+001
    endloop
  endfacet
  facet normal  0.000000e+000  0.000000e+000  1.000000e+000
    outer loop
      vertex -2.792893e+001 -2.792893e+001 -1.800000e+001
      vertex -3.117317e+001 -2.576120e+001 -1.800000e+001
      vertex -3.500000e+001 -3.081200e+001 -1.800000e+001
    endloop
  endfacet
  facet normal  0.000000e+000  0.000000e+000  1.000000e+000
    outer loop
      vertex -3.500000e+001 -3.081200e+001 -1.800000e+001
      vertex -3.117317e+001 -2.576120e+001 -1.800000e+001
      vertex -3.500000e+001 -2.500000e+001 -1.800000e+001
    endloop
  endfacet
  facet normal -2.588184e-001 -9.659259e-001  0.000000e+000
    outer loop
      vertex -3.500000e+001 -3.081200e+001 -1.800000e+001
      vertex -3.290600e+001 -3.137309e+001 -3.000000e+001
      vertex -3.290600e+001 -3.137309e+001 -1.800000e+001
    endloop
  endfacet
  facet normal -7.071067e-001 -7.071067e-001  -0.000000e+000
    outer loop
      vertex -3.290600e+001 -3.137309e+001 -1.800000e+001
      vertex -3.290600e+001 -3.137309e+001 -3.000000e+001
      vertex -3.137309e+001 -3.290600e+001 -3.000000e+001
    endloop
  endfacet
  facet normal -7.071067e-001 -7.071067e-001  0.000000e+000
    outer loop
      vertex -3.290600e+001 -3.137309e+001 -1.800000e+001
      vertex -3.137309e+001 -3.290600e+001 -3.000000e+001
      vertex -3.137309e+001 -3.290600e+001 -1.800000e+001
    endloop
  endfacet
  facet normal -9.659259e-001 -2.588184e-001  -0.000000e+000
    outer loop
      vertex -3.137309e+001 -3.290600e+001 -1.800000e+001
      vertex -3.137309e+001 -3.290600e+001 -3.000000e+001
      vertex -3.081200e+001 -3.500000e+001 -3.000000e+001
    endloop
  endfacet
  facet normal -9.659259e-001 -2.588184e-001  0.000000e+000
    outer loop
      vertex -3.137309e+001 -3.290600e+001 -1.800000e+001
      vertex -3.081200e+001 -3.500000e+001 -3.000000e+001
      vertex -3.081200e+001 -3.500000e+001 -1.800000e+001
    endloop
  endfacet
  facet normal -2.588184e-001 -9.659259e-001  -0.000000e+000
    outer loop
      vertex -3.290600e+001 -3.137309e+001 -3.000000e+001
      vertex -3.500000e+001 -3.081200e+001 -1.800000e+001
      vertex -3.500000e+001 -3.081200e+001 -3.000000e+001
    endloop
  endfacet
  facet normal  2.588184e-001 -9.659259e-001  0.000000e+000
    outer loop
      vertex -3.500000e+001 -3.081200e+001 -3.000000e+001
      vertex -3.500000e+001 -3.081200e+001 -1.800000e+001
      vertex -3.709400e+001 -3.137309e+001 -1.800000e+001
    endloop
  endfacet
  facet normal  2.588184e-001 -9.659259e-001  0.000000e+000
    outer loop
      vertex -3.500000e+001 -3.081200e+001 -3.000000e+001
      vertex -3.709400e+001 -3.137309e+001 -1.800000e+001
      vertex -3.709400e+001 -3.137309e+001 -3.000000e+001
    endloop
  endfacet
  facet normal  7.071067e-001 -7.071067e-001  0.000000e+000
    outer loop
      vertex -3.709400e+001 -3.137309e+001 -3.000000e+001
      vertex -3.709400e+001 -3.137309e+001 -1.800000e+001
      vertex -3.862691e+001 -3.290600e+001 -1.800000e+001
    endloop
  endfacet
  facet normal  7.071067e-001 -7.071067e-001  0.000000e+000
    outer loop
      vertex -3.709400e+001 -3.137309e+001 -3.000000e+001
      vertex -3.862691e+001 -3.290600e+001 -1.800000e+001
      vertex -3.862691e+001 -3.290600e+001 -3.000000e+001
    endloop
  endfacet
  facet normal  9.659259e-001 -2.588184e-001  0.000000e+000
    outer loop
      vertex -3.862691e+001 -3.290600e+001 -3.000000e+001
      vertex -3.862691e+001 -3.290600e+001 -1.800000e+001
      vertex -3.918800e+001 -3.500000e+001 -1.800000e+001
    endloop
  endfacet
  facet normal  9.659259e-001 -2.588184e-001  0.000000e+000
    outer loop
      vertex -3.862691e+001 -3.290600e+001 -3.000000e+001
      vertex -3.918800e+001 -3.500000e+001 -1.800000e+001
      vertex -3.918800e+001 -3.500000e+001 -3.000000e+001
    endloop
  endfacet
  facet normal -4.955721e-001 -1.327878e-001  8.583564e-001
    outer loop
      vertex -3.500000e+001 -3.500000e+001 -3.241794e+001
      vertex -3.081200e+001 -3.500000e+001 -3.000000e+001
      vertex -3.137309e+001 -3.290600e+001 -3.000000e+001
    endloop
  endfacet
  facet normal -3.627838e-001 -3.627838e-001  8.583564e-001
    outer loop
      vertex -3.500000e+001 -3.500000e+001 -3.241794e+001
      vertex -3.137309e+001 -3.290600e+001 -3.000000e+001
      vertex -3.290600e+001 -3.137309e+001 -3.000000e+001
    endloop
  endfacet
  facet normal -1.327878e-001 -4.955721e-001  8.583564e-001
    outer loop
      vertex -3.500000e+001 -3.500000e+001 -3.241794e+001
      vertex -3.290600e+001 -3.137309e+001 -3.000000e+001
      vertex -3.500000e+001 -3.081200e+001 -3.000000e+001
    endloop
  endfacet
  facet normal  1.327878e-001 -4.955721e-001  8.583564e-001
    outer loop
      vertex -3.500000e+001 -3.500000e+001 -3.241794e+001
      vertex -3.500000e+001 -3.081200e+001 -3.000000e+001
      vertex -3.709400e+001 -3.137309e+001 -3.000000e+001
    endloop
  endfacet
  facet normal  3.627838e-001 -3.627838e-001  8.583564e-001
    outer loop
      vertex -3.500000e+001 -3.500000e+001 -3.241794e+001
      vertex -3.709400e+001 -3.137309e+001 -3.000000e+001
      vertex -3.862691e+001 -3.290600e+001 -3.000000e+001
    endloop
  endfacet
  facet normal  4.955721e-001 -1.327878e-001  8.583564e-001
    outer loop
      vertex -3.500000e+001 -3.500000e+001 -3.241794e+001
      vertex -3.862691e+001 -3.290600e+001 -3.000000e+001
      vertex -3.918800e+001 -3.500000e+001 -3.000000e+001
    endloop
  endfacet
  facet normal  2.588184e-001  9.659259e-001  -0.000000e+000
    outer loop
      vertex -3.500000e+001 -3.918800e+001 -1.800000e+001
      vertex -3.709400e+001 -3.862691e+001 -3.000000e+001
      vertex -3.709400e+001 -3.862691e+001 -1.800000e+001
    endloop
  endfacet
  facet normal  7.071067e-001  7.071067e-001  0.000000e+000
    outer loop
      vertex -3.709400e+001 -3.862691e+001 -1.800000e+001
      vertex -3.709400e+001 -3.862691e+001 -3.000000e+001
      vertex -3.862691e+001 -3.709400e+001 -3.000000e+001
    endloop
  endfacet
  facet normal  7.071067e-001  7.071067e-001  -0.000000e+000
    outer loop
      vertex -3.709400e+001 -3.862691e+001 -1.800000e+001
      vertex -3.862691e+001 -3.709400e+001 -3.000000e+001
      vertex -3.862691e+001 -3.709400e+001 -1.800000e+001
    endloop
  endfacet
  facet normal  9.659259e-001  2.588184e-001  0.000000e+000
    outer loop
      vertex -3.862691e+001 -3.709400e+001 -1.800000e+001
      vertex -3.862691e+001 -3.709400e+001 -3.000000e+001
      vertex -3.918800e+001 -3.500000e+001 -3.000000e+001
    endloop
  endfacet
  facet normal  9.659259e-001  2.588184e-001  -0.000000e+000
    outer loop
      vertex -3.862691e+001 -3.709400e+001 -1.800000e+001
      vertex -3.918800e+001 -3.500000e+001 -3.000000e+001
      vertex -3.918800e+001 -3.500000e+001 -1.800000e+001
    endloop
  endfacet
  facet normal  2.588184e-001  9.659259e-001  0.000000e+000
    outer loop
      vertex -3.709400e+001 -3.862691e+001 -3.000000e+001
      vertex -3.500000e+001 -3.918800e+001 -1.800000e+001
      vertex -3.500000e+001 -3.918800e+001 -3.000000e+001
    endloop
  endfacet
  facet normal -2.588184e-001  9.659259e-001  0.000000e+000
    outer loop
      vertex -3.500000e+001 -3.918800e+001 -3.000000e+001
      vertex -3.500000e+001 -3.918800e+001 -1.800000e+001
      vertex -3.290600e+001 -3.862691e+001 -1.800000e+001
    endloop
  endfacet
  facet normal -2.588184e-001  9.659259e-001  0.000000e+000
    outer loop
      vertex -3.500000e+001 -3.918800e+001 -3.000000e+001
      vertex -3.290600e+001 -3.862691e+001 -1.800000e+001
      vertex -3.290600e+001 -3.862691e+001 -3.000000e+001
    endloop
  endfacet
  facet normal -7.071067e-001  7.071067e-001  0.000000e+000
    outer loop
      vertex -3.290600e+001 -3.862691e+001 -3.000000e+001
      vertex -3.290600e+001 -3.862691e+001 -1.800000e+001
      vertex -3.137309e+001 -3.709400e+001 -1.800000e+001
    endloop
  endfacet
  facet normal -7.071067e-001  7.071067e-001  0.000000e+000
    outer loop
      vertex -3.290600e+001 -3.862691e+001 -3.000000e+001
      vertex -3.137309e+001 -3.709400e+001 -1.800000e+001
      vertex -3.137309e+001 -3.709400e+001 -3.000000e+001
    endloop
  endfacet
  facet normal -9.659259e-001  2.588184e-001  0.000000e+000
    outer loop
      vertex -3.137309e+001 -3.709400e+001 -3.000000e+001
      vertex -3.137309e+001 -3.709400e+001 -1.800000e+001
      vertex -3.081200e+001 -3.500000e+001 -1.800000e+001
    endloop
  endfacet
  facet normal -9.659259e-001  2.588184e-001  0.000000e+000
    outer loop
      vertex -3.137309e+001 -3.709400e+001 -3.000000e+001
      vertex -3.081200e+001 -3.500000e+001 -1.800000e+001
      vertex -3.081200e+001 -3.500000e+001 -3.000000e+001
    endloop
  endfacet
  facet normal  4.955721e-001  1.327878e-001  8.583564e-001
    outer loop
      vertex -3.500000e+001 -3.500000e+001 -3.241794e+001
      vertex -3.918800e+001 -3.500000e+001 -3.000000e+001
      vertex -3.862691e+001 -3.709400e+001 -3.000000e+001
    endloop
  endfacet
  facet normal  3.627838e-001  3.627838e-001  8.583564e-001
    outer loop
      vertex -3.500000e+001 -3.500000e+001 -3.241794e+001
      vertex -3.862691e+001 -3.709400e+001 -3.000000e+001
      vertex -3.709400e+001 -3.862691e+001 -3.000000e+001
    endloop
  endfacet
  facet normal  1.327878e-001  4.955721e-001  8.583564e-001
    outer loop
      vertex -3.500000e+001 -3.500000e+001 -3.241794e+001
      vertex -3.709400e+001 -3.862691e+001 -3.000000e+001
      vertex -3.500000e+001 -3.918800e+001 -3.000000e+001
    endloop
  endfacet
  facet normal -1.327878e-001  4.955721e-001  8.583564e-001
    outer loop
      vertex -3.500000e+001 -3.500000e+001 -3.241794e+001
      vertex -3.500000e+001 -3.918800e+001 -3.000000e+001
      vertex -3.290600e+001 -3.862691e+001 -3.000000e+001
    endloop
  endfacet
  facet normal -3.627838e-001  3.627838e-001  8.583564e-001
    outer loop
      vertex -3.500000e+001 -3.500000e+001 -3.241794e+001
      vertex -3.290600e+001 -3.862691e+001 -3.000000e+001
      vertex -3.137309e+001 -3.709400e+001 -3.000000e+001
    endloop
  endfacet
  facet normal -4.955721e-001  1.327878e-001  8.583564e-001
    outer loop
      vertex -3.500000e+001 -3.500000e+001 -3.241794e+001
      vertex -3.137309e+001 -3.709400e+001 -3.000000e+001
      vertex -3.081200e+001 -3.500000e+001 -3.000000e+001
    endloop
  endfacet
  facet normal  0.000000e+000  1.000000e+000  0.000000e+000
    outer loop
      vertex -5.000000e+001  5.000000e+001 -5.000000e+001
      vertex -5.000000e+001  5.000000e+001 -1.000000e+001
      vertex  5.000000e+001  5.000000e+001 -5.000000e+001
    endloop
  endfacet
  facet normal  0.000000e+000  1.000000e+000  -0.000000e+000
    outer loop
      vertex  5.000000e+001  5.000000e+001 -5.000000e+001
      vertex -5.000000e+001  5.000000e+001 -1.000000e+001
      vertex  5.000000e+001  5.000000e+001 -1.000000e+001
    endloop
  endfacet
  facet normal -1.000000e+000  -0.000000e+000  -0.000000e+000
    outer loop
      vertex -5.000000e+001  3.535534e+001 -1.000000e+001
      vertex -5.000000e+001  5.000000e+001 -1.000000e+001
      vertex -5.000000e+001  5.000000e+001 -5.000000e+001
    endloop
  endfacet
  facet normal -1.000000e+000  0.000000e+000  0.000000e+000
    outer loop
      vertex -5.000000e+001  3.535534e+001 -1.000000e+001
      vertex -5.000000e+001  5.000000e+001 -5.000000e+001
      vertex -5.000000e+001 -1.195732e+001 -1.000000e+001
    endloop
  endfacet
  facet normal -1.000000e+000  0.000000e+000  0.000000e+000
    outer loop
      vertex -5.000000e+001  3.535534e+001 -1.000000e+001
      vertex -5.000000e+001 -1.195732e+001 -1.000000e+001
      vertex -5.000000e+001 -1.195732e+001  0.000000e+000
    endloop
  endfacet
  facet normal -1.000000e+000  0.000000e+000  0.000000e+000
    outer loop
      vertex -5.000000e+001  3.535534e+001 -1.000000e+001
      vertex -5.000000e+001 -1.195732e+001  0.000000e+000
      vertex -5.000000e+001  3.535534e+001  0.000000e+000
    endloop
  endfacet
  facet normal -1.000000e+000  0.000000e+000  0.000000e+000
    outer loop
      vertex -5.000000e+001 -5.000000e+001 -5.000000e+001
      vertex -5.000000e+001 -5.000000e+001 -1.000000e+001
      vertex -5.000000e+001  5.000000e+001 -5.000000e+001
    endloop
  endfacet
  facet normal -1.000000e+000  0.000000e+000  0.000000e+000
    outer loop
      vertex -5.000000e+001  5.000000e+001 -5.000000e+001
      vertex -5.000000e+001 -5.000000e+001 -1.000000e+001
      vertex -5.000000e+001 -1.195732e+001 -1.000000e+001
    endloop
  endfacet
  facet normal  0.000000e+000 -1.000000e+000  0.000000e+000
    outer loop
      vertex -5.000000e+001 -5.000000e+001 -1.000000e+001
      vertex -5.000000e+001 -5.000000e+001 -5.000000e+001
      vertex  1.589186e+001 -5.000000e+001 -1.000000e+001
    endloop
  endfacet
  facet normal  0.000000e+000 -1.000000e+000  -0.000000e+000
    outer loop
      vertex  1.589186e+001 -5.000000e+001 -1.000000e+001
      vertex -5.000000e+001 -5.000000e+001 -5.000000e+001
      vertex  5.000000e+001 -5.000000e+001 -5.000000e+001
    endloop
  endfacet
  facet normal  0.000000e+000 -1.000000e+000  0.000000e+000
    outer loop
      vertex  1.589186e+001 -5.000000e+001 -1.000000e+001
      vertex  5.000000e+001 -5.000000e+001 -5.000000e+001
      vertex  1.589186e+001 -5.000000e+001  0.000000e+000
    endloop
  endfacet
  facet normal  0.000000e+000 -1.000000e+000  0.000000e+000
    outer loop
      vertex  1.589186e+001 -5.000000e+001  0.000000e+000
      vertex  5.000000e+001 -5.000000e+001 -5.000000e+001
      vertex  5.000000e+001 -5.000000e+001  0.000000e+000
    endloop
  endfacet
  facet normal  1.000000e+000  0.000000e+000  0.000000e+000
    outer loop
      vertex  5.000000e+001  5.000000e+001 -5.000000e+001
      vertex  5.000000e+001  5.000000e+001 -1.000000e+001
      vertex  5.000000e+001 -5.000000e+001 -5.000000e+001
    endloop
  endfacet
  facet normal  1.000000e+000  0.000000e+000  0.000000e+000
    outer loop
      vertex  5.000000e+001 -5.000000e+001 -5.000000e+001
      vertex  5.000000e+001  5.000000e+001 -1.000000e+001
      vertex  5.000000e+001  3.535534e+001 -1.000000e+001
    endloop
  endfacet
  facet normal  1.000000e+000  0.000000e+000  0.000000e+000
    outer loop
      vertex  5.000000e+001 -5.000000e+001 -5.000000e+001
      vertex  5.000000e+001  3.535534e+001 -1.000000e+001
      vertex  5.000000e+001 -5.000000e+001  0.000000e+000
    endloop
  endfacet
  facet normal  1.000000e+000  -0.000000e+000  0.000000e+000
    outer loop
      vertex  5.000000e+001 -5.000000e+001  0.000000e+000
      vertex  5.000000e+001  3.535534e+001 -1.000000e+001
      vertex  5.000000e+001  3.535534e+001  0.000000e+000
    endloop
  endfacet
  facet normal -5.000001e-001 -8.660253e-001  0.000000e+000
    outer loop
      vertex -5.000000e+001 -1.195732e+001 -1.000000e+001
      vertex  1.589186e+001 -5.000000e+001 -1.000000e+001
      vertex -5.000000e+001 -1.195732e+001  0.000000e+000
    endloop
  endfacet
  facet normal -5.000001e-001 -8.660253e-001  0.000000e+000
    outer loop
      vertex -5.000000e+001 -1.195732e+001  0.000000e+000
      vertex  1.589186e+001 -5.000000e+001 -1.000000e+001
      vertex  1.589186e+001 -5.000000e+001  0.000000e+000
    endloop
  endfacet
  facet normal  0.000000e+000  0.000000e+000  1.000000e+000
    outer loop
      vertex -5.000000e+001  3.535534e+001 -1.000000e+001
      vertex  5.000000e+001  3.535534e+001 -1.000000e+001
      vertex -5.000000e+001  5.000000e+001 -1.000000e+001
    endloop
  endfacet
  facet normal  -0.000000e+000  0.000000e+000  1.000000e+000
    outer loop
      vertex -5.000000e+001  5.000000e+001 -1.000000e+001
      vertex  5.000000e+001  3.535534e+001 -1.000000e+001
      vertex  5.000000e+001  5.000000e+001 -1.000000e+001
    endloop
  endfacet
  facet normal  0.000000e+000  1.000000e+000  0.000000e+000
    outer loop
      vertex -5.000000e+001  3.535534e+001 -1.000000e+001
      vertex -5.000000e+001  3.535534e+001  0.000000e+000
      vertex  5.000000e+001  3.535534e+001 -1.000000e+001
    endloop
  endfacet
  facet normal  0.000000e+000  1.000000e+000  -0.000000e+000
    outer loop
      vertex  5.000000e+001  3.535534e+001 -1.000000e+001
      vertex -5.000000e+001  3.535534e+001  0.000000e+000
      vertex  5.000000e+001  3.535534e+001  0.000000e+000
    endloop
  endfacet
  facet normal  -0.000000e+000  0.000000e+000  1.000000e+000
    outer loop
      vertex  1.736482e+000  2.984808e+001 -2.000000e+001
      vertex -1.736482e+000  2.984808e+001 -2.000000e+001
      vertex  5.000000e+000  2.866025e+001 -2.000000e+001
    endloop
  endfacet
  facet normal  0.000000e+000  0.000000e+000  1.000000e+000
    outer loop
      vertex  5.000000e+000  2.866025e+001 -2.000000e+001
      vertex -1.736482e+000  2.984808e+001 -2.000000e+001
      vertex -5.000000e+000  2.866025e+001 -2.000000e+001
    endloop
  endfacet
  facet normal  -0.000000e+000  0.000000e+000  9.999999e-001
    outer loop
      vertex  5.000000e+000  2.866025e+001 -2.000000e+001
      vertex -5.000000e+000  2.866025e+001 -2.000000e+001
      vertex  2.232050e+001  1.866026e+001 -2.000000e+001
    endloop
  endfacet
  facet normal  0.000000e+000  0.000000e+000  1.000000e+000
    outer loop
      vertex  2.232050e+001  1.866026e+001 -2.000000e+001
      vertex -5.000000e+000  2.866025e+001 -2.000000e+001
      vertex -2.232051e+001  1.866025e+001 -2.000000e+001
    endloop
  endfacet
  facet normal  -0.000000e+000  0.000000e+000  1.000000e+000
    outer loop
      vertex  2.232050e+001  1.866026e+001 -2.000000e+001
      vertex -2.232051e+001  1.866025e+001 -2.000000e+001
      vertex  2.498095e+001  1.642788e+001 -2.000000e+001
    endloop
  endfacet
  facet normal  0.000000e+000  0.000000e+000  1.000000e+000
    outer loop
      vertex  2.498095e+001  1.642788e+001 -2.000000e+001
      vertex -2.232051e+001  1.866025e+001 -2.000000e+001
      vertex -2.498096e+001  1.642788e+001 -2.000000e+001
    endloop
  endfacet
  facet normal  -0.000000e+000  0.000000e+000  1.000000e+000
    outer loop
      vertex  2.498095e+001  1.642788e+001 -2.000000e+001
      vertex -2.498096e+001  1.642788e+001 -2.000000e+001
      vertex  2.671743e+001  1.342021e+001 -2.000000e+001
    endloop
  endfacet
  facet normal  0.000000e+000  0.000000e+000  9.999999e-001
    outer loop
      vertex  2.671743e+001  1.342021e+001 -2.000000e+001
      vertex -2.498096e+001  1.642788e+001 -2.000000e+001
      vertex -2.671744e+001  1.342020e+001 -2.000000e+001
    endloop
  endfacet
  facet normal  -0.000000e+000  0.000000e+000  9.999999e-001
    outer loop
      vertex  2.671743e+001  1.342021e+001 -2.000000e+001
      vertex -2.671744e+001  1.342020e+001 -2.000000e+001
      vertex  2.732050e+001  1.000000e+001 -2.000000e+001
    endloop
  endfacet
  facet normal  0.000000e+000  0.000000e+000  1.000000e+000
    outer loop
      vertex  2.732050e+001  1.000000e+001 -2.000000e+001
      vertex -2.671744e+001  1.342020e+001 -2.000000e+001
      vertex -2.732051e+001  9.999999e+000 -2.000000e+001
    endloop
  endfacet
  facet normal  -0.000000e+000  0.000000e+000  1.000000e+000
    outer loop
      vertex  2.732050e+001  1.000000e+001 -2.000000e+001
      vertex -2.732051e+001  9.999999e+000 -2.000000e+001
      vertex  2.732050e+001 -9.999998e+000 -2.000000e+001
    endloop
  endfacet
  facet normal  0.000000e+000  0.000000e+000  1.000000e+000
    outer loop
      vertex  2.732050e+001 -9.999998e+000 -2.000000e+001
      vertex -2.732051e+001  9.999999e+000 -2.000000e+001
      vertex -2.732051e+001 -9.999993e+000 -2.000000e+001
    endloop
  endfacet
  facet normal  0.000000e+000  0.000000e+000  1.000000e+000
    outer loop
      vertex  2.732050e+001 -9.999998e+000 -2.000000e+001
      vertex -2.732051e+001 -9.999993e+000 -2.000000e+001
      vertex  2.671743e+001 -1.342020e+001 -2.000000e+001
    endloop
  endfacet
  facet normal  0.000000e+000  0.000000e+000  9.999999e-001
    outer loop
      vertex  2.671743e+001 -1.342020e+001 -2.000000e+001
      vertex -2.732051e+001 -9.999993e+000 -2.000000e+001
      vertex -2.671744e+001 -1.342019e+001 -2.000000e+001
    endloop
  endfacet
  facet normal  0.000000e+000  0.000000e+000  1.000000e+000
    outer loop
      vertex  2.671743e+001 -1.342020e+001 -2.000000e+001
      vertex -2.671744e+001 -1.342019e+001 -2.000000e+001
      vertex  2.498095e+001 -1.642787e+001 -2.000000e+001
    endloop
  endfacet
  facet normal  0.000000e+000  0.000000e+000  1.000000e+000
    outer loop
      vertex  2.498095e+001 -1.642787e+001 -2.000000e+001
      vertex -2.671744e+001 -1.342019e+001 -2.000000e+001
      vertex -2.498096e+001 -1.642787e+001 -2.000000e+001
    endloop
  endfacet
  facet normal  0.000000e+000  0.000000e+000  1.000000e+000
    outer loop
      vertex  2.498095e+001 -1.642787e+001 -2.000000e+001
      vertex -2.498096e+001 -1.642787e+001 -2.000000e+001
      vertex  2.232050e+001 -1.866025e+001 -2.000000e+001
    endloop
  endfacet
  facet normal  0.000000e+000  0.000000e+000  9.999999e-001
    outer loop
      vertex  2.232050e+001 -1.866025e+001 -2.000000e+001
      vertex -2.498096e+001 -1.642787e+001 -2.000000e+001
      vertex -2.232051e+001 -1.866025e+001 -2.000000e+001
    endloop
  endfacet
  facet normal  0.000000e+000  0.000000e+000  1.000000e+000
    outer loop
      vertex  2.232050e+001 -1.866025e+001 -2.000000e+001
      vertex -2.232051e+001 -1.866025e+001 -2.000000e+001
      vertex  5.000000e+000 -2.866025e+001 -2.000000e+001
    endloop
  endfacet
  facet normal  0.000000e+000  0.000000e+000  1.000000e+000
    outer loop
      vertex  5.000000e+000 -2.866025e+001 -2.000000e+001
      vertex -2.232051e+001 -1.866025e+001 -2.000000e+001
      vertex -5.000000e+000 -2.866025e+001 -2.000000e+001
    endloop
  endfacet
  facet normal  -0.000000e+000  0.000000e+000  1.000000e+000
    outer loop
      vertex  5.000000e+000 -2.866025e+001 -2.000000e+001
      vertex -5.000000e+000 -2.866025e+001 -2.000000e+001
      vertex  1.736482e+000 -2.984807e+001 -2.000000e+001
    endloop
  endfacet
  facet normal  0.000000e+000  0.000000e+000  1.000000e+000
    outer loop
      vertex  1.736482e+000 -2.984807e+001 -2.000000e+001
      vertex -5.000000e+000 -2.866025e+001 -2.000000e+001
      vertex -1.736482e+000 -2.984807e+001 -2.000000e+001
    endloop
  endfacet
  facet normal  4.999999e-001  8.660254e-001  0.000000e+000
    outer loop
      vertex -2.232051e+001 -1.866025e+001 -2.000000e+001
      vertex -2.232051e+001 -1.866025e+001  0.000000e+000
      vertex -5.000000e+000 -2.866025e+001 -2.000000e+001
    endloop
  endfacet
  facet normal  4.999999e-001  8.660254e-001  -0.000000e+000
    outer loop
      vertex -5.000000e+000 -2.866025e+001 -2.000000e+001
      vertex -2.232051e+001 -1.866025e+001  0.000000e+000
      vertex -5.000000e+000 -2.866025e+001  0.000000e+000
    endloop
  endfacet
  facet normal  9.999999e-001  0.000000e+000  0.000000e+000
    outer loop
      vertex -2.732051e+001  9.999999e+000 -2.000000e+001
      vertex -2.732051e+001  9.999999e+000  0.000000e+000
      vertex -2.732051e+001 -9.999993e+000 -2.000000e+001
    endloop
  endfacet
  facet normal  9.999999e-001  0.000000e+000  0.000000e+000
    outer loop
      vertex -2.732051e+001 -9.999993e+000 -2.000000e+001
      vertex -2.732051e+001  9.999999e+000  0.000000e+000
      vertex -2.732051e+001 -9.999993e+000  0.000000e+000
    endloop
  endfacet
  facet normal  9.848077e-001  1.736480e-001  -0.000000e+000
    outer loop
      vertex -2.671744e+001 -1.342019e+001  0.000000e+000
      vertex -2.732051e+001 -9.999993e+000 -2.000000e+001
      vertex -2.732051e+001 -9.999993e+000  0.000000e+000
    endloop
  endfacet
  facet normal  9.848077e-001  1.736480e-001  0.000000e+000
    outer loop
      vertex -2.732051e+001 -9.999993e+000 -2.000000e+001
      vertex -2.671744e+001 -1.342019e+001  0.000000e+000
      vertex -2.671744e+001 -1.342019e+001 -2.000000e+001
    endloop
  endfacet
  facet normal  8.660255e-001  4.999997e-001  -0.000000e+000
    outer loop
      vertex -2.671744e+001 -1.342019e+001 -2.000000e+001
      vertex -2.671744e+001 -1.342019e+001  0.000000e+000
      vertex -2.498096e+001 -1.642787e+001  0.000000e+000
    endloop
  endfacet
  facet normal  8.660255e-001  4.999997e-001  0.000000e+000
    outer loop
      vertex -2.671744e+001 -1.342019e+001 -2.000000e+001
      vertex -2.498096e+001 -1.642787e+001  0.000000e+000
      vertex -2.498096e+001 -1.642787e+001 -2.000000e+001
    endloop
  endfacet
  facet normal  6.427874e-001  7.660447e-001  -0.000000e+000
    outer loop
      vertex -2.498096e+001 -1.642787e+001 -2.000000e+001
      vertex -2.498096e+001 -1.642787e+001  0.000000e+000
      vertex -2.232051e+001 -1.866025e+001  0.000000e+000
    endloop
  endfacet
  facet normal  6.427874e-001  7.660447e-001  0.000000e+000
    outer loop
      vertex -2.498096e+001 -1.642787e+001 -2.000000e+001
      vertex -2.232051e+001 -1.866025e+001  0.000000e+000
      vertex -2.232051e+001 -1.866025e+001 -2.000000e+001
    endloop
  endfacet
  facet normal -5.000000e-001  8.660254e-001  0.000000e+000
    outer loop
      vertex  5.000000e+000 -2.866025e+001 -2.000000e+001
      vertex  5.000000e+000 -2.866025e+001  0.000000e+000
      vertex  2.232050e+001 -1.866025e+001 -2.000000e+001
    endloop
  endfacet
  facet normal -5.000000e-001  8.660254e-001  0.000000e+000
    outer loop
      vertex  2.232050e+001 -1.866025e+001 -2.000000e+001
      vertex  5.000000e+000 -2.866025e+001  0.000000e+000
      vertex  2.232050e+001 -1.866025e+001  0.000000e+000
    endloop
  endfacet
  facet normal  3.420203e-001  9.396926e-001  -0.000000e+000
    outer loop
      vertex -1.736482e+000 -2.984807e+001  0.000000e+000
      vertex -5.000000e+000 -2.866025e+001 -2.000000e+001
      vertex -5.000000e+000 -2.866025e+001  0.000000e+000
    endloop
  endfacet
  facet normal  3.420203e-001  9.396926e-001  0.000000e+000
    outer loop
      vertex -5.000000e+000 -2.866025e+001 -2.000000e+001
      vertex -1.736482e+000 -2.984807e+001  0.000000e+000
      vertex -1.736482e+000 -2.984807e+001 -2.000000e+001
    endloop
  endfacet
  facet normal  0.000000e+000  1.000000e+000  0.000000e+000
    outer loop
      vertex -1.736482e+000 -2.984807e+001 -2.000000e+001
      vertex -1.736482e+000 -2.984807e+001  0.000000e+000
      vertex  1.736482e+000 -2.984807e+001  0.000000e+000
    endloop
  endfacet
  facet normal  0.000000e+000  1.000000e+000  0.000000e+000
    outer loop
      vertex -1.736482e+000 -2.984807e+001 -2.000000e+001
      vertex  1.736482e+000 -2.984807e+001  0.000000e+000
      vertex  1.736482e+000 -2.984807e+001 -2.000000e+001
    endloop
  endfacet
  facet normal -3.420203e-001  9.396926e-001  0.000000e+000
    outer loop
      vertex  1.736482e+000 -2.984807e+001 -2.000000e+001
      vertex  1.736482e+000 -2.984807e+001  0.000000e+000
      vertex  5.000000e+000 -2.866025e+001  0.000000e+000
    endloop
  endfacet
  facet normal -3.420203e-001  9.396926e-001  0.000000e+000
    outer loop
      vertex  1.736482e+000 -2.984807e+001 -2.000000e+001
      vertex  5.000000e+000 -2.866025e+001  0.000000e+000
      vertex  5.000000e+000 -2.866025e+001 -2.000000e+001
    endloop
  endfacet
  facet normal -9.999999e-001  0.000000e+000  0.000000e+000
    outer loop
      vertex  2.732050e+001 -9.999998e+000 -2.000000e+001
      vertex  2.732050e+001 -9.999998e+000  0.000000e+000
      vertex  2.732050e+001  1.000000e+001 -2.000000e+001
    endloop
  endfacet
  facet normal -9.999999e-001  0.000000e+000  0.000000e+000
    outer loop
      vertex  2.732050e+001  1.000000e+001 -2.000000e+001
      vertex  2.732050e+001 -9.999998e+000  0.000000e+000
      vertex  2.732050e+001  1.000000e+001  0.000000e+000
    endloop
  endfacet
  facet normal -6.427876e-001  7.660444e-001  0.000000e+000
    outer loop
      vertex  2.498095e+001 -1.642787e+001  0.000000e+000
      vertex  2.232050e+001 -1.866025e+001 -2.000000e+001
      vertex  2.232050e+001 -1.866025e+001  0.000000e+000
    endloop
  endfacet
  facet normal -6.427876e-001  7.660444e-001  0.000000e+000
    outer loop
      vertex  2.232050e+001 -1.866025e+001 -2.000000e+001
      vertex  2.498095e+001 -1.642787e+001  0.000000e+000
      vertex  2.498095e+001 -1.642787e+001 -2.000000e+001
    endloop
  endfacet
  facet normal -8.660252e-001  5.000002e-001  0.000000e+000
    outer loop
      vertex  2.498095e+001 -1.642787e+001 -2.000000e+001
      vertex  2.498095e+001 -1.642787e+001  0.000000e+000
      vertex  2.671743e+001 -1.342020e+001  0.000000e+000
    endloop
  endfacet
  facet normal -8.660252e-001  5.000002e-001  0.000000e+000
    outer loop
      vertex  2.498095e+001 -1.642787e+001 -2.000000e+001
      vertex  2.671743e+001 -1.342020e+001  0.000000e+000
      vertex  2.671743e+001 -1.342020e+001 -2.000000e+001
    endloop
  endfacet
  facet normal -9.848077e-001  1.736480e-001  0.000000e+000
    outer loop
      vertex  2.671743e+001 -1.342020e+001 -2.000000e+001
      vertex  2.671743e+001 -1.342020e+001  0.000000e+000
      vertex  2.732050e+001 -9.999998e+000  0.000000e+000
    endloop
  endfacet
  facet normal -9.848077e-001  1.736480e-001  0.000000e+000
    outer loop
      vertex  2.671743e+001 -1.342020e+001 -2.000000e+001
      vertex  2.732050e+001 -9.999998e+000  0.000000e+000
      vertex  2.732050e+001 -9.999998e+000 -2.000000e+001
    endloop
  endfacet
  facet normal -5.000000e-001 -8.660254e-001  -0.000000e+000
    outer loop
      vertex  2.232050e+001  1.866026e+001 -2.000000e+001
      vertex  2.232050e+001  1.866026e+001  0.000000e+000
      vertex  5.000000e+000  2.866025e+001 -2.000000e+001
    endloop
  endfacet
  facet normal -5.000000e-001 -8.660254e-001  0.000000e+000
    outer loop
      vertex  5.000000e+000  2.866025e+001 -2.000000e+001
      vertex  2.232050e+001  1.866026e+001  0.000000e+000
      vertex  5.000000e+000  2.866025e+001  0.000000e+000
    endloop
  endfacet
  facet normal -9.848077e-001 -1.736480e-001  0.000000e+000
    outer loop
      vertex  2.671743e+001  1.342021e+001  0.000000e+000
      vertex  2.732050e+001  1.000000e+001 -2.000000e+001
      vertex  2.732050e+001  1.000000e+001  0.000000e+000
    endloop
  endfacet
  facet normal -9.848077e-001 -1.736480e-001  -0.000000e+000
    outer loop
      vertex  2.732050e+001  1.000000e+001 -2.000000e+001
      vertex  2.671743e+001  1.342021e+001  0.000000e+000
      vertex  2.671743e+001  1.342021e+001 -2.000000e+001
    endloop
  endfacet
  facet normal -8.660252e-001 -5.000002e-001  0.000000e+000
    outer loop
      vertex  2.671743e+001  1.342021e+001 -2.000000e+001
      vertex  2.671743e+001  1.342021e+001  0.000000e+000
      vertex  2.498095e+001  1.642788e+001  0.000000e+000
    endloop
  endfacet
  facet normal -8.660252e-001 -5.000002e-001  -0.000000e+000
    outer loop
      vertex  2.671743e+001  1.342021e+001 -2.000000e+001
      vertex  2.498095e+001  1.642788e+001  0.000000e+000
      vertex  2.498095e+001  1.642788e+001 -2.000000e+001
    endloop
  endfacet
  facet normal -6.427876e-001 -7.660444e-001  0.000000e+000
    outer loop
      vertex  2.498095e+001  1.642788e+001 -2.000000e+001
      vertex  2.498095e+001  1.642788e+001  0.000000e+000
      vertex  2.232050e+001  1.866026e+001  0.000000e+000
    endloop
  endfacet
  facet normal -6.427876e-001 -7.660444e-001  -0.000000e+000
    outer loop
      vertex  2.498095e+001  1.642788e+001 -2.000000e+001
      vertex  2.232050e+001  1.866026e+001  0.000000e+000
      vertex  2.232050e+001  1.866026e+001 -2.000000e+001
    endloop
  endfacet
  facet normal  4.999999e-001 -8.660254e-001  0.000000e+000
    outer loop
      vertex -5.000000e+000  2.866025e+001 -2.000000e+001
      vertex -5.000000e+000  2.866025e+001  0.000000e+000
      vertex -2.232051e+001  1.866025e+001 -2.000000e+001
    endloop
  endfacet
  facet normal  4.999999e-001 -8.660254e-001  0.000000e+000
    outer loop
      vertex -2.232051e+001  1.866025e+001 -2.000000e+001
      vertex -5.000000e+000  2.866025e+001  0.000000e+000
      vertex -2.232051e+001  1.866025e+001  0.000000e+000
    endloop
  endfacet
  facet normal  6.427874e-001 -7.660447e-001  0.000000e+000
    outer loop
      vertex -2.498096e+001  1.642788e+001  0.000000e+000
      vertex -2.232051e+001  1.866025e+001 -2.000000e+001
      vertex -2.232051e+001  1.866025e+001  0.000000e+000
    endloop
  endfacet
  facet normal  6.427874e-001 -7.660447e-001  0.000000e+000
    outer loop
      vertex -2.232051e+001  1.866025e+001 -2.000000e+001
      vertex -2.498096e+001  1.642788e+001  0.000000e+000
      vertex -2.498096e+001  1.642788e+001 -2.000000e+001
    endloop
  endfacet
  facet normal  8.660255e-001 -4.999997e-001  0.000000e+000
    outer loop
      vertex -2.498096e+001  1.642788e+001 -2.000000e+001
      vertex -2.498096e+001  1.642788e+001  0.000000e+000
      vertex -2.671744e+001  1.342020e+001  0.000000e+000
    endloop
  endfacet
  facet normal  8.660255e-001 -4.999997e-001  0.000000e+000
    outer loop
      vertex -2.498096e+001  1.642788e+001 -2.000000e+001
      vertex -2.671744e+001  1.342020e+001  0.000000e+000
      vertex -2.671744e+001  1.342020e+001 -2.000000e+001
    endloop
  endfacet
  facet normal  9.848077e-001 -1.736480e-001  0.000000e+000
    outer loop
      vertex -2.671744e+001  1.342020e+001 -2.000000e+001
      vertex -2.671744e+001  1.342020e+001  0.000000e+000
      vertex -2.732051e+001  9.999999e+000  0.000000e+000
    endloop
  endfacet
  facet normal  9.848077e-001 -1.736480e-001  0.000000e+000
    outer loop
      vertex -2.671744e+001  1.342020e+001 -2.000000e+001
      vertex -2.732051e+001  9.999999e+000  0.000000e+000
      vertex -2.732051e+001  9.999999e+000 -2.000000e+001
    endloop
  endfacet
  facet normal -3.420203e-001 -9.396926e-001  0.000000e+000
    outer loop
      vertex  1.736482e+000  2.984808e+001  0.000000e+000
      vertex  5.000000e+000  2.866025e+001 -2.000000e+001
      vertex  5.000000e+000  2.866025e+001  0.000000e+000
    endloop
  endfacet
  facet normal -3.420203e-001 -9.396926e-001  -0.000000e+000
    outer loop
      vertex  5.000000e+000  2.866025e+001 -2.000000e+001
      vertex  1.736482e+000  2.984808e+001  0.000000e+000
      vertex  1.736482e+000  2.984808e+001 -2.000000e+001
    endloop
  endfacet
  facet normal  0.000000e+000 -1.000000e+000  0.000000e+000
    outer loop
      vertex  1.736482e+000  2.984808e+001 -2.000000e+001
      vertex  1.736482e+000  2.984808e+001  0.000000e+000
      vertex -1.736482e+000  2.984808e+001  0.000000e+000
    endloop
  endfacet
  facet normal  0.000000e+000 -1.000000e+000  0.000000e+000
    outer loop
      vertex  1.736482e+000  2.984808e+001 -2.000000e+001
      vertex -1.736482e+000  2.984808e+001  0.000000e+000
      vertex -1.736482e+000  2.984808e+001 -2.000000e+001
    endloop
  endfacet
  facet normal  3.420203e-001 -9.396926e-001  0.000000e+000
    outer loop
      vertex -1.736482e+000  2.984808e+001 -2.000000e+001
      vertex -1.736482e+000  2.984808e+001  0.000000e+000
      vertex -5.000000e+000  2.866025e+001  0.000000e+000
    endloop
  endfacet
  facet normal  3.420203e-001 -9.396926e-001  0.000000e+000
    outer loop
      vertex -1.736482e+000  2.984808e+001 -2.000000e+001
      vertex -5.000000e+000  2.866025e+001  0.000000e+000
      vertex -5.000000e+000  2.866025e+001 -2.000000e+001
    endloop
  endfacet
  facet normal  0.000000e+000  0.000000e+000 -1.000000e+000
    outer loop
      vertex -5.000000e+001 -5.000000e+001 -5.000000e+001
      vertex -5.000000e+001  5.000000e+001 -5.000000e+001
      vertex  5.000000e+001 -5.000000e+001 -5.000000e+001
    endloop
  endfacet
  facet normal  0.000000e+000  0.000000e+000 -1.000000e+000
    outer loop
      vertex  5.000000e+001 -5.000000e+001 -5.000000e+001
      vertex -5.000000e+001  5.000000e+001 -5.000000e+001
      vertex  5.000000e+001  5.000000e+001 -5.000000e+001
    endloop
  endfacet
endsolid CATIA STL
