solid CATIA STL
  facet normal  0.000000e+000  -0.000000e+000  1.000000e+000
    outer loop
      vertex  3.814767e+000  2.453730e+001  0.000000e+000
      vertex  7.059000e+000  2.236957e+001  0.000000e+000
      vertex  2.260896e+001  2.306147e+001  0.000000e+000
    endloop
  endfacet
  facet normal  -0.000000e+000  0.000000e+000  1.000000e+000
    outer loop
      vertex -1.300000e+001  1.300000e+001  0.000000e+000
      vertex -1.360896e+001  9.938533e+000  0.000000e+000
      vertex -7.083136e+000  8.227436e+000  0.000000e+000
    endloop
  endfacet
  facet normal  0.000000e+000  0.000000e+000  1.000000e+000
    outer loop
      vertex -1.300000e+001  1.300000e+001  0.000000e+000
      vertex -7.083136e+000  8.227436e+000  0.000000e+000
      vertex -9.250863e+000  1.147167e+001  0.000000e+000
    endloop
  endfacet
  facet normal  0.000000e+000  0.000000e+000  1.000000e+000
    outer loop
      vertex -1.300000e+001  1.300000e+001  0.000000e+000
      vertex -9.250863e+000  1.147167e+001  0.000000e+000
      vertex -1.001207e+001  1.529850e+001  0.000000e+000
    endloop
  endfacet
  facet normal  0.000000e+000  -0.000000e+000  1.000000e+000
    outer loop
      vertex -1.300000e+001  1.300000e+001  0.000000e+000
      vertex -1.001207e+001  1.529850e+001  0.000000e+000
      vertex -9.250863e+000  1.912534e+001  0.000000e+000
    endloop
  endfacet
  facet normal  0.000000e+000  -0.000000e+000  1.000000e+000
    outer loop
      vertex -1.300000e+001  1.300000e+001  0.000000e+000
      vertex -9.250863e+000  1.912534e+001  0.000000e+000
      vertex -5.061468e+000  3.060896e+001  0.000000e+000
    endloop
  endfacet
  facet normal  0.000000e+000  0.000000e+000  1.000000e+000
    outer loop
      vertex -1.300000e+001  1.300000e+001  0.000000e+000
      vertex -5.061468e+000  3.060896e+001  0.000000e+000
      vertex -7.656854e+000  3.234315e+001  0.000000e+000
    endloop
  endfacet
  facet normal  0.000000e+000  0.000000e+000  1.000000e+000
    outer loop
      vertex -1.300000e+001  1.300000e+001  0.000000e+000
      vertex -7.656854e+000  3.234315e+001  0.000000e+000
      vertex -9.391036e+000  3.493853e+001  0.000000e+000
    endloop
  endfacet
  facet normal  0.000000e+000  0.000000e+000  9.999999e-001
    outer loop
      vertex -1.300000e+001  1.300000e+001  0.000000e+000
      vertex -9.391036e+000  3.493853e+001  0.000000e+000
      vertex -1.000000e+001  3.800000e+001  0.000000e+000
    endloop
  endfacet
  facet normal  0.000000e+000  -0.000000e+000  1.000000e+000
    outer loop
      vertex -1.300000e+001  1.300000e+001  0.000000e+000
      vertex -1.000000e+001  3.800000e+001  0.000000e+000
      vertex -1.000000e+001  5.000000e+001  0.000000e+000
    endloop
  endfacet
  facet normal  0.000000e+000  0.000000e+000  1.000000e+000
    outer loop
      vertex -1.300000e+001  1.300000e+001  0.000000e+000
      vertex -1.000000e+001  5.000000e+001  0.000000e+000
      vertex -1.300000e+001  5.000000e+001  0.000000e+000
    endloop
  endfacet
  facet normal  0.000000e+000  -0.000000e+000  1.000000e+000
    outer loop
      vertex -5.000000e+001 -5.000000e+001  0.000000e+000
      vertex  5.000000e+001 -5.000000e+001  0.000000e+000
      vertex  5.000000e+001 -2.500000e+001  0.000000e+000
    endloop
  endfacet
  facet normal  0.000000e+000  0.000000e+000  1.000000e+000
    outer loop
      vertex -5.000000e+001 -5.000000e+001  0.000000e+000
      vertex  5.000000e+001 -2.500000e+001  0.000000e+000
      vertex  1.800000e+001 -2.500000e+001  0.000000e+000
    endloop
  endfacet
  facet normal  0.000000e+000  0.000000e+000  1.000000e+000
    outer loop
      vertex -5.000000e+001 -5.000000e+001  0.000000e+000
      vertex  1.800000e+001 -2.500000e+001  0.000000e+000
      vertex  1.493853e+001 -2.439104e+001  0.000000e+000
    endloop
  endfacet
  facet normal  0.000000e+000  0.000000e+000  1.000000e+000
    outer loop
      vertex -5.000000e+001 -5.000000e+001  0.000000e+000
      vertex  1.493853e+001 -2.439104e+001  0.000000e+000
      vertex  1.234315e+001 -2.265685e+001  0.000000e+000
    endloop
  endfacet
  facet normal  0.000000e+000  0.000000e+000  1.000000e+000
    outer loop
      vertex -5.000000e+001 -5.000000e+001  0.000000e+000
      vertex  1.234315e+001 -2.265685e+001  0.000000e+000
      vertex  1.060896e+001 -2.006147e+001  0.000000e+000
    endloop
  endfacet
  facet normal  0.000000e+000  0.000000e+000  9.999999e-001
    outer loop
      vertex -5.000000e+001 -5.000000e+001  0.000000e+000
      vertex  1.060896e+001 -2.006147e+001  0.000000e+000
      vertex  1.000000e+001 -1.700000e+001  0.000000e+000
    endloop
  endfacet
  facet normal  0.000000e+000  0.000000e+000  9.999999e-001
    outer loop
      vertex -5.000000e+001 -5.000000e+001  0.000000e+000
      vertex  1.000000e+001 -1.700000e+001  0.000000e+000
      vertex -1.206779e-002  5.298504e+000  0.000000e+000
    endloop
  endfacet
  facet normal  0.000000e+000  0.000000e+000  1.000000e+000
    outer loop
      vertex -5.000000e+001 -5.000000e+001  0.000000e+000
      vertex -1.206779e-002  5.298504e+000  0.000000e+000
      vertex -2.100000e+001  5.000000e+000  0.000000e+000
    endloop
  endfacet
  facet normal  0.000000e+000  0.000000e+000  1.000000e+000
    outer loop
      vertex -5.000000e+001 -5.000000e+001  0.000000e+000
      vertex -2.100000e+001  5.000000e+000  0.000000e+000
      vertex -2.255573e+001  5.000000e+000  0.000000e+000
    endloop
  endfacet
  facet normal  0.000000e+000  0.000000e+000  1.000000e+000
    outer loop
      vertex -5.000000e+001 -5.000000e+001  0.000000e+000
      vertex -2.255573e+001  5.000000e+000  0.000000e+000
      vertex -2.544156e+001  5.538635e+000  0.000000e+000
    endloop
  endfacet
  facet normal  0.000000e+000  0.000000e+000  1.000000e+000
    outer loop
      vertex -5.000000e+001 -5.000000e+001  0.000000e+000
      vertex -2.544156e+001  5.538635e+000  0.000000e+000
      vertex -2.793879e+001  7.082008e+000  0.000000e+000
    endloop
  endfacet
  facet normal  0.000000e+000  0.000000e+000  1.000000e+000
    outer loop
      vertex -5.000000e+001 -5.000000e+001  0.000000e+000
      vertex -2.793879e+001  7.082008e+000  0.000000e+000
      vertex -2.971115e+001  9.422291e+000  0.000000e+000
    endloop
  endfacet
  facet normal  0.000000e+000  0.000000e+000  1.000000e+000
    outer loop
      vertex -5.000000e+001 -5.000000e+001  0.000000e+000
      vertex -2.971115e+001  9.422291e+000  0.000000e+000
      vertex -5.000000e+001  1.000000e+001  0.000000e+000
    endloop
  endfacet
  facet normal  0.000000e+000  -0.000000e+000  1.000000e+000
    outer loop
      vertex -7.083136e+000  2.236957e+001  0.000000e+000
      vertex -3.838902e+000  2.453730e+001  0.000000e+000
      vertex -2.000000e+000  3.000000e+001  0.000000e+000
    endloop
  endfacet
  facet normal  0.000000e+000  0.000000e+000  1.000000e+000
    outer loop
      vertex -7.083136e+000  2.236957e+001  0.000000e+000
      vertex -2.000000e+000  3.000000e+001  0.000000e+000
      vertex -5.061468e+000  3.060896e+001  0.000000e+000
    endloop
  endfacet
  facet normal  0.000000e+000  0.000000e+000  1.000000e+000
    outer loop
      vertex -7.083136e+000  2.236957e+001  0.000000e+000
      vertex -5.061468e+000  3.060896e+001  0.000000e+000
      vertex -9.250863e+000  1.912534e+001  0.000000e+000
    endloop
  endfacet
  facet normal  0.000000e+000  0.000000e+000  1.000000e+000
    outer loop
      vertex -2.971115e+001  9.422291e+000  0.000000e+000
      vertex -3.400000e+001  1.800000e+001  0.000000e+000
      vertex -3.460896e+001  1.493853e+001  0.000000e+000
    endloop
  endfacet
  facet normal  0.000000e+000  0.000000e+000  1.000000e+000
    outer loop
      vertex -2.971115e+001  9.422291e+000  0.000000e+000
      vertex -3.460896e+001  1.493853e+001  0.000000e+000
      vertex -3.634315e+001  1.234315e+001  0.000000e+000
    endloop
  endfacet
  facet normal  0.000000e+000  0.000000e+000  1.000000e+000
    outer loop
      vertex -2.971115e+001  9.422291e+000  0.000000e+000
      vertex -3.634315e+001  1.234315e+001  0.000000e+000
      vertex -3.893853e+001  1.060896e+001  0.000000e+000
    endloop
  endfacet
  facet normal  0.000000e+000  0.000000e+000  1.000000e+000
    outer loop
      vertex -2.971115e+001  9.422291e+000  0.000000e+000
      vertex -3.893853e+001  1.060896e+001  0.000000e+000
      vertex -4.200000e+001  1.000000e+001  0.000000e+000
    endloop
  endfacet
  facet normal  0.000000e+000  0.000000e+000  1.000000e+000
    outer loop
      vertex -2.971115e+001  9.422291e+000  0.000000e+000
      vertex -4.200000e+001  1.000000e+001  0.000000e+000
      vertex -5.000000e+001  1.000000e+001  0.000000e+000
    endloop
  endfacet
  facet normal  0.000000e+000  0.000000e+000  9.999999e-001
    outer loop
      vertex  3.000000e+001  2.800000e+001  0.000000e+000
      vertex  3.000000e+001  5.000000e+001  0.000000e+000
      vertex  1.000000e+001  5.000000e+001  0.000000e+000
    endloop
  endfacet
  facet normal  0.000000e+000  0.000000e+000  1.000000e+000
    outer loop
      vertex  3.000000e+001  2.800000e+001  0.000000e+000
      vertex  1.000000e+001  5.000000e+001  0.000000e+000
      vertex  1.000000e+001  3.800000e+001  0.000000e+000
    endloop
  endfacet
  facet normal  0.000000e+000  0.000000e+000  1.000000e+000
    outer loop
      vertex  3.000000e+001  2.800000e+001  0.000000e+000
      vertex  1.000000e+001  3.800000e+001  0.000000e+000
      vertex  9.391036e+000  3.493853e+001  0.000000e+000
    endloop
  endfacet
  facet normal  0.000000e+000  0.000000e+000  1.000000e+000
    outer loop
      vertex  3.000000e+001  2.800000e+001  0.000000e+000
      vertex  9.391036e+000  3.493853e+001  0.000000e+000
      vertex  7.656854e+000  3.234315e+001  0.000000e+000
    endloop
  endfacet
  facet normal  0.000000e+000  0.000000e+000  1.000000e+000
    outer loop
      vertex  3.000000e+001  2.800000e+001  0.000000e+000
      vertex  7.656854e+000  3.234315e+001  0.000000e+000
      vertex  5.061468e+000  3.060896e+001  0.000000e+000
    endloop
  endfacet
  facet normal  0.000000e+000  0.000000e+000  1.000000e+000
    outer loop
      vertex  3.000000e+001  2.800000e+001  0.000000e+000
      vertex  5.061468e+000  3.060896e+001  0.000000e+000
      vertex  2.000000e+000  3.000000e+001  0.000000e+000
    endloop
  endfacet
  facet normal  0.000000e+000  -0.000000e+000  9.999999e-001
    outer loop
      vertex  9.226727e+000  1.147167e+001  0.000000e+000
      vertex  3.000000e+001 -9.000000e+000  0.000000e+000
      vertex  3.000000e+001  1.200000e+001  0.000000e+000
    endloop
  endfacet
  facet normal  0.000000e+000  0.000000e+000  1.000000e+000
    outer loop
      vertex  9.226727e+000  1.147167e+001  0.000000e+000
      vertex  3.000000e+001  1.200000e+001  0.000000e+000
      vertex  2.693853e+001  1.260896e+001  0.000000e+000
    endloop
  endfacet
  facet normal  0.000000e+000  0.000000e+000  1.000000e+000
    outer loop
      vertex  9.226727e+000  1.147167e+001  0.000000e+000
      vertex  2.693853e+001  1.260896e+001  0.000000e+000
      vertex  2.434315e+001  1.434315e+001  0.000000e+000
    endloop
  endfacet
  facet normal  0.000000e+000  0.000000e+000  1.000000e+000
    outer loop
      vertex  9.226727e+000  1.147167e+001  0.000000e+000
      vertex  2.434315e+001  1.434315e+001  0.000000e+000
      vertex  9.987932e+000  1.529850e+001  0.000000e+000
    endloop
  endfacet
  facet normal  0.000000e+000  -0.000000e+000  1.000000e+000
    outer loop
      vertex -1.206779e-002  5.298504e+000  0.000000e+000
      vertex  1.000000e+001 -1.700000e+001  0.000000e+000
      vertex  1.060896e+001 -1.393853e+001  0.000000e+000
    endloop
  endfacet
  facet normal  0.000000e+000  -0.000000e+000  1.000000e+000
    outer loop
      vertex -1.206779e-002  5.298504e+000  0.000000e+000
      vertex  1.060896e+001 -1.393853e+001  0.000000e+000
      vertex  1.234315e+001 -1.134315e+001  0.000000e+000
    endloop
  endfacet
  facet normal  0.000000e+000  -0.000000e+000  1.000000e+000
    outer loop
      vertex -1.206779e-002  5.298504e+000  0.000000e+000
      vertex  1.234315e+001 -1.134315e+001  0.000000e+000
      vertex  1.493853e+001 -9.608964e+000  0.000000e+000
    endloop
  endfacet
  facet normal  0.000000e+000  -0.000000e+000  1.000000e+000
    outer loop
      vertex -1.206779e-002  5.298504e+000  0.000000e+000
      vertex  1.493853e+001 -9.608964e+000  0.000000e+000
      vertex  1.800000e+001 -9.000000e+000  0.000000e+000
    endloop
  endfacet
  facet normal  0.000000e+000  -0.000000e+000  1.000000e+000
    outer loop
      vertex -1.206779e-002  5.298504e+000  0.000000e+000
      vertex  1.800000e+001 -9.000000e+000  0.000000e+000
      vertex  3.000000e+001 -9.000000e+000  0.000000e+000
    endloop
  endfacet
  facet normal  0.000000e+000  0.000000e+000  9.999999e-001
    outer loop
      vertex  3.000000e+001 -9.000000e+000  0.000000e+000
      vertex  9.226727e+000  1.147167e+001  0.000000e+000
      vertex  7.059000e+000  8.227436e+000  0.000000e+000
    endloop
  endfacet
  facet normal  0.000000e+000  0.000000e+000  1.000000e+000
    outer loop
      vertex  3.000000e+001 -9.000000e+000  0.000000e+000
      vertex  7.059000e+000  8.227436e+000  0.000000e+000
      vertex  3.814767e+000  6.059709e+000  0.000000e+000
    endloop
  endfacet
  facet normal  0.000000e+000  0.000000e+000  1.000000e+000
    outer loop
      vertex  3.000000e+001 -9.000000e+000  0.000000e+000
      vertex  3.814767e+000  6.059709e+000  0.000000e+000
      vertex -1.206779e-002  5.298504e+000  0.000000e+000
    endloop
  endfacet
  facet normal  0.000000e+000  0.000000e+000  1.000000e+000
    outer loop
      vertex  2.693853e+001  2.739104e+001  0.000000e+000
      vertex  3.000000e+001  2.800000e+001  0.000000e+000
      vertex -1.206779e-002  2.529850e+001  0.000000e+000
    endloop
  endfacet
  facet normal  0.000000e+000  0.000000e+000  1.000000e+000
    outer loop
      vertex -1.206779e-002  2.529850e+001  0.000000e+000
      vertex  3.000000e+001  2.800000e+001  0.000000e+000
      vertex  2.000000e+000  3.000000e+001  0.000000e+000
    endloop
  endfacet
  facet normal  0.000000e+000  0.000000e+000  1.000000e+000
    outer loop
      vertex -1.206779e-002  2.529850e+001  0.000000e+000
      vertex  2.000000e+000  3.000000e+001  0.000000e+000
      vertex -3.838902e+000  2.453730e+001  0.000000e+000
    endloop
  endfacet
  facet normal  0.000000e+000  0.000000e+000  1.000000e+000
    outer loop
      vertex -3.838902e+000  2.453730e+001  0.000000e+000
      vertex  2.000000e+000  3.000000e+001  0.000000e+000
      vertex -2.000000e+000  3.000000e+001  0.000000e+000
    endloop
  endfacet
  facet normal  0.000000e+000  0.000000e+000  1.000000e+000
    outer loop
      vertex -2.100000e+001  5.000000e+000  0.000000e+000
      vertex -1.206779e-002  5.298504e+000  0.000000e+000
      vertex -1.793853e+001  5.608964e+000  0.000000e+000
    endloop
  endfacet
  facet normal  -0.000000e+000  0.000000e+000  9.999999e-001
    outer loop
      vertex -1.793853e+001  5.608964e+000  0.000000e+000
      vertex -1.206779e-002  5.298504e+000  0.000000e+000
      vertex -3.838902e+000  6.059709e+000  0.000000e+000
    endloop
  endfacet
  facet normal  0.000000e+000  0.000000e+000  1.000000e+000
    outer loop
      vertex -1.793853e+001  5.608964e+000  0.000000e+000
      vertex -3.838902e+000  6.059709e+000  0.000000e+000
      vertex -1.534315e+001  7.343146e+000  0.000000e+000
    endloop
  endfacet
  facet normal  -0.000000e+000  0.000000e+000  1.000000e+000
    outer loop
      vertex -1.534315e+001  7.343146e+000  0.000000e+000
      vertex -3.838902e+000  6.059709e+000  0.000000e+000
      vertex -7.083136e+000  8.227436e+000  0.000000e+000
    endloop
  endfacet
  facet normal  0.000000e+000  0.000000e+000  1.000000e+000
    outer loop
      vertex -1.534315e+001  7.343146e+000  0.000000e+000
      vertex -7.083136e+000  8.227436e+000  0.000000e+000
      vertex -1.360896e+001  9.938533e+000  0.000000e+000
    endloop
  endfacet
  facet normal  0.000000e+000  0.000000e+000  1.000000e+000
    outer loop
      vertex  3.814767e+000  2.453730e+001  0.000000e+000
      vertex  2.260896e+001  2.306147e+001  0.000000e+000
      vertex -1.206779e-002  2.529850e+001  0.000000e+000
    endloop
  endfacet
  facet normal  -0.000000e+000  0.000000e+000  1.000000e+000
    outer loop
      vertex -1.206779e-002  2.529850e+001  0.000000e+000
      vertex  2.260896e+001  2.306147e+001  0.000000e+000
      vertex  2.434315e+001  2.565685e+001  0.000000e+000
    endloop
  endfacet
  facet normal  0.000000e+000  -0.000000e+000  9.999999e-001
    outer loop
      vertex -1.206779e-002  2.529850e+001  0.000000e+000
      vertex  2.434315e+001  2.565685e+001  0.000000e+000
      vertex  2.693853e+001  2.739104e+001  0.000000e+000
    endloop
  endfacet
  facet normal  -0.000000e+000  0.000000e+000  1.000000e+000
    outer loop
      vertex  2.260896e+001  2.306147e+001  0.000000e+000
      vertex  7.059000e+000  2.236957e+001  0.000000e+000
      vertex  2.200000e+001  2.000000e+001  0.000000e+000
    endloop
  endfacet
  facet normal  0.000000e+000  0.000000e+000  1.000000e+000
    outer loop
      vertex  2.200000e+001  2.000000e+001  0.000000e+000
      vertex  7.059000e+000  2.236957e+001  0.000000e+000
      vertex  9.226727e+000  1.912534e+001  0.000000e+000
    endloop
  endfacet
  facet normal  -0.000000e+000  0.000000e+000  1.000000e+000
    outer loop
      vertex  2.200000e+001  2.000000e+001  0.000000e+000
      vertex  9.226727e+000  1.912534e+001  0.000000e+000
      vertex  2.260896e+001  1.693853e+001  0.000000e+000
    endloop
  endfacet
  facet normal  0.000000e+000  0.000000e+000  1.000000e+000
    outer loop
      vertex  2.260896e+001  1.693853e+001  0.000000e+000
      vertex  9.226727e+000  1.912534e+001  0.000000e+000
      vertex  9.987932e+000  1.529850e+001  0.000000e+000
    endloop
  endfacet
  facet normal  -0.000000e+000  0.000000e+000  1.000000e+000
    outer loop
      vertex  2.260896e+001  1.693853e+001  0.000000e+000
      vertex  9.987932e+000  1.529850e+001  0.000000e+000
      vertex  2.434315e+001  1.434315e+001  0.000000e+000
    endloop
  endfacet
  facet normal  1.950903e-001  9.807853e-001  -0.000000e+000
    outer loop
      vertex -1.206779e-002  5.298504e+000  0.000000e+000
      vertex -3.838902e+000  6.059709e+000 -8.000000e+000
      vertex -3.838902e+000  6.059709e+000  0.000000e+000
    endloop
  endfacet
  facet normal  5.555702e-001  8.314695e-001  0.000000e+000
    outer loop
      vertex -3.838902e+000  6.059709e+000  0.000000e+000
      vertex -3.838902e+000  6.059709e+000 -8.000000e+000
      vertex -7.083136e+000  8.227436e+000 -8.000000e+000
    endloop
  endfacet
  facet normal  5.555702e-001  8.314695e-001  -0.000000e+000
    outer loop
      vertex -3.838902e+000  6.059709e+000  0.000000e+000
      vertex -7.083136e+000  8.227436e+000 -8.000000e+000
      vertex -7.083136e+000  8.227436e+000  0.000000e+000
    endloop
  endfacet
  facet normal  8.314696e-001  5.555702e-001  0.000000e+000
    outer loop
      vertex -7.083136e+000  8.227436e+000  0.000000e+000
      vertex -7.083136e+000  8.227436e+000 -8.000000e+000
      vertex -9.250863e+000  1.147167e+001 -8.000000e+000
    endloop
  endfacet
  facet normal  8.314696e-001  5.555702e-001  -0.000000e+000
    outer loop
      vertex -7.083136e+000  8.227436e+000  0.000000e+000
      vertex -9.250863e+000  1.147167e+001 -8.000000e+000
      vertex -9.250863e+000  1.147167e+001  0.000000e+000
    endloop
  endfacet
  facet normal  9.807853e-001  1.950903e-001  0.000000e+000
    outer loop
      vertex -9.250863e+000  1.147167e+001  0.000000e+000
      vertex -9.250863e+000  1.147167e+001 -8.000000e+000
      vertex -1.001207e+001  1.529850e+001 -8.000000e+000
    endloop
  endfacet
  facet normal  9.807853e-001  1.950903e-001  -0.000000e+000
    outer loop
      vertex -9.250863e+000  1.147167e+001  0.000000e+000
      vertex -1.001207e+001  1.529850e+001 -8.000000e+000
      vertex -1.001207e+001  1.529850e+001  0.000000e+000
    endloop
  endfacet
  facet normal  1.950903e-001  9.807853e-001  0.000000e+000
    outer loop
      vertex -3.838902e+000  6.059709e+000 -8.000000e+000
      vertex -1.206779e-002  5.298504e+000  0.000000e+000
      vertex -1.206779e-002  5.298504e+000 -8.000000e+000
    endloop
  endfacet
  facet normal -1.950903e-001  9.807853e-001  0.000000e+000
    outer loop
      vertex -1.206779e-002  5.298504e+000 -8.000000e+000
      vertex -1.206779e-002  5.298504e+000  0.000000e+000
      vertex  3.814767e+000  6.059709e+000  0.000000e+000
    endloop
  endfacet
  facet normal -1.950903e-001  9.807853e-001  0.000000e+000
    outer loop
      vertex -1.206779e-002  5.298504e+000 -8.000000e+000
      vertex  3.814767e+000  6.059709e+000  0.000000e+000
      vertex  3.814767e+000  6.059709e+000 -8.000000e+000
    endloop
  endfacet
  facet normal -5.555702e-001  8.314695e-001  0.000000e+000
    outer loop
      vertex  3.814767e+000  6.059709e+000 -8.000000e+000
      vertex  3.814767e+000  6.059709e+000  0.000000e+000
      vertex  7.059000e+000  8.227436e+000  0.000000e+000
    endloop
  endfacet
  facet normal -5.555702e-001  8.314695e-001  0.000000e+000
    outer loop
      vertex  3.814767e+000  6.059709e+000 -8.000000e+000
      vertex  7.059000e+000  8.227436e+000  0.000000e+000
      vertex  7.059000e+000  8.227436e+000 -8.000000e+000
    endloop
  endfacet
  facet normal -8.314696e-001  5.555702e-001  0.000000e+000
    outer loop
      vertex  7.059000e+000  8.227436e+000 -8.000000e+000
      vertex  7.059000e+000  8.227436e+000  0.000000e+000
      vertex  9.226727e+000  1.147167e+001  0.000000e+000
    endloop
  endfacet
  facet normal -8.314696e-001  5.555702e-001  0.000000e+000
    outer loop
      vertex  7.059000e+000  8.227436e+000 -8.000000e+000
      vertex  9.226727e+000  1.147167e+001  0.000000e+000
      vertex  9.226727e+000  1.147167e+001 -8.000000e+000
    endloop
  endfacet
  facet normal -9.807853e-001  1.950903e-001  0.000000e+000
    outer loop
      vertex  9.226727e+000  1.147167e+001 -8.000000e+000
      vertex  9.226727e+000  1.147167e+001  0.000000e+000
      vertex  9.987932e+000  1.529850e+001  0.000000e+000
    endloop
  endfacet
  facet normal -9.807853e-001  1.950903e-001  0.000000e+000
    outer loop
      vertex  9.226727e+000  1.147167e+001 -8.000000e+000
      vertex  9.987932e+000  1.529850e+001  0.000000e+000
      vertex  9.987932e+000  1.529850e+001 -8.000000e+000
    endloop
  endfacet
  facet normal -1.950901e-001 -9.807853e-001  0.000000e+000
    outer loop
      vertex -1.206779e-002  2.529850e+001  0.000000e+000
      vertex  3.814767e+000  2.453730e+001 -8.000000e+000
      vertex  3.814767e+000  2.453730e+001  0.000000e+000
    endloop
  endfacet
  facet normal -5.555704e-001 -8.314695e-001  -0.000000e+000
    outer loop
      vertex  3.814767e+000  2.453730e+001  0.000000e+000
      vertex  3.814767e+000  2.453730e+001 -8.000000e+000
      vertex  7.059000e+000  2.236957e+001 -8.000000e+000
    endloop
  endfacet
  facet normal -5.555704e-001 -8.314695e-001  0.000000e+000
    outer loop
      vertex  3.814767e+000  2.453730e+001  0.000000e+000
      vertex  7.059000e+000  2.236957e+001 -8.000000e+000
      vertex  7.059000e+000  2.236957e+001  0.000000e+000
    endloop
  endfacet
  facet normal -8.314697e-001 -5.555701e-001  -0.000000e+000
    outer loop
      vertex  7.059000e+000  2.236957e+001  0.000000e+000
      vertex  7.059000e+000  2.236957e+001 -8.000000e+000
      vertex  9.226727e+000  1.912534e+001 -8.000000e+000
    endloop
  endfacet
  facet normal -8.314697e-001 -5.555701e-001  0.000000e+000
    outer loop
      vertex  7.059000e+000  2.236957e+001  0.000000e+000
      vertex  9.226727e+000  1.912534e+001 -8.000000e+000
      vertex  9.226727e+000  1.912534e+001  0.000000e+000
    endloop
  endfacet
  facet normal -9.807852e-001 -1.950904e-001  -0.000000e+000
    outer loop
      vertex  9.226727e+000  1.912534e+001  0.000000e+000
      vertex  9.226727e+000  1.912534e+001 -8.000000e+000
      vertex  9.987932e+000  1.529850e+001 -8.000000e+000
    endloop
  endfacet
  facet normal -9.807852e-001 -1.950904e-001  0.000000e+000
    outer loop
      vertex  9.226727e+000  1.912534e+001  0.000000e+000
      vertex  9.987932e+000  1.529850e+001 -8.000000e+000
      vertex  9.987932e+000  1.529850e+001  0.000000e+000
    endloop
  endfacet
  facet normal -1.950901e-001 -9.807853e-001  -0.000000e+000
    outer loop
      vertex  3.814767e+000  2.453730e+001 -8.000000e+000
      vertex -1.206779e-002  2.529850e+001  0.000000e+000
      vertex -1.206779e-002  2.529850e+001 -8.000000e+000
    endloop
  endfacet
  facet normal  1.950901e-001 -9.807853e-001  0.000000e+000
    outer loop
      vertex -1.206779e-002  2.529850e+001 -8.000000e+000
      vertex -1.206779e-002  2.529850e+001  0.000000e+000
      vertex -3.838902e+000  2.453730e+001  0.000000e+000
    endloop
  endfacet
  facet normal  1.950901e-001 -9.807853e-001  0.000000e+000
    outer loop
      vertex -1.206779e-002  2.529850e+001 -8.000000e+000
      vertex -3.838902e+000  2.453730e+001  0.000000e+000
      vertex -3.838902e+000  2.453730e+001 -8.000000e+000
    endloop
  endfacet
  facet normal  5.555704e-001 -8.314695e-001  0.000000e+000
    outer loop
      vertex -3.838902e+000  2.453730e+001 -8.000000e+000
      vertex -3.838902e+000  2.453730e+001  0.000000e+000
      vertex -7.083136e+000  2.236957e+001  0.000000e+000
    endloop
  endfacet
  facet normal  5.555704e-001 -8.314695e-001  0.000000e+000
    outer loop
      vertex -3.838902e+000  2.453730e+001 -8.000000e+000
      vertex -7.083136e+000  2.236957e+001  0.000000e+000
      vertex -7.083136e+000  2.236957e+001 -8.000000e+000
    endloop
  endfacet
  facet normal  8.314697e-001 -5.555701e-001  0.000000e+000
    outer loop
      vertex -7.083136e+000  2.236957e+001 -8.000000e+000
      vertex -7.083136e+000  2.236957e+001  0.000000e+000
      vertex -9.250863e+000  1.912534e+001  0.000000e+000
    endloop
  endfacet
  facet normal  8.314697e-001 -5.555701e-001  0.000000e+000
    outer loop
      vertex -7.083136e+000  2.236957e+001 -8.000000e+000
      vertex -9.250863e+000  1.912534e+001  0.000000e+000
      vertex -9.250863e+000  1.912534e+001 -8.000000e+000
    endloop
  endfacet
  facet normal  9.807852e-001 -1.950904e-001  0.000000e+000
    outer loop
      vertex -9.250863e+000  1.912534e+001 -8.000000e+000
      vertex -9.250863e+000  1.912534e+001  0.000000e+000
      vertex -1.001207e+001  1.529850e+001  0.000000e+000
    endloop
  endfacet
  facet normal  9.807852e-001 -1.950904e-001  0.000000e+000
    outer loop
      vertex -9.250863e+000  1.912534e+001 -8.000000e+000
      vertex -1.001207e+001  1.529850e+001  0.000000e+000
      vertex -1.001207e+001  1.529850e+001 -8.000000e+000
    endloop
  endfacet
  facet normal  0.000000e+000  0.000000e+000  1.000000e+000
    outer loop
      vertex  3.814767e+000  2.453730e+001 -8.000000e+000
      vertex -1.206779e-002  2.529850e+001 -8.000000e+000
      vertex  7.059000e+000  2.236957e+001 -8.000000e+000
    endloop
  endfacet
  facet normal  0.000000e+000  0.000000e+000  1.000000e+000
    outer loop
      vertex  7.059000e+000  2.236957e+001 -8.000000e+000
      vertex -1.206779e-002  2.529850e+001 -8.000000e+000
      vertex  9.226727e+000  1.912534e+001 -8.000000e+000
    endloop
  endfacet
  facet normal  0.000000e+000  0.000000e+000  1.000000e+000
    outer loop
      vertex -1.206779e-002  2.529850e+001 -8.000000e+000
      vertex -1.039086e+000  1.845934e+001 -8.000000e+000
      vertex  9.226727e+000  1.912534e+001 -8.000000e+000
    endloop
  endfacet
  facet normal  0.000000e+000  0.000000e+000  1.000000e+000
    outer loop
      vertex  9.226727e+000  1.912534e+001 -8.000000e+000
      vertex -1.039086e+000  1.845934e+001 -8.000000e+000
      vertex  1.014950e+000  1.845934e+001 -8.000000e+000
    endloop
  endfacet
  facet normal  0.000000e+000  0.000000e+000  1.000000e+000
    outer loop
      vertex -7.083136e+000  8.227436e+000 -8.000000e+000
      vertex -3.838902e+000  6.059709e+000 -8.000000e+000
      vertex -9.250863e+000  1.147167e+001 -8.000000e+000
    endloop
  endfacet
  facet normal  0.000000e+000  0.000000e+000  1.000000e+000
    outer loop
      vertex -9.250863e+000  1.147167e+001 -8.000000e+000
      vertex -3.838902e+000  6.059709e+000 -8.000000e+000
      vertex -1.206779e-002  5.298504e+000 -8.000000e+000
    endloop
  endfacet
  facet normal  0.000000e+000  0.000000e+000  1.000000e+000
    outer loop
      vertex -9.250863e+000  1.147167e+001 -8.000000e+000
      vertex -1.206779e-002  5.298504e+000 -8.000000e+000
      vertex -1.039086e+000  1.213767e+001 -8.000000e+000
    endloop
  endfacet
  facet normal  0.000000e+000  0.000000e+000  1.000000e+000
    outer loop
      vertex -1.039086e+000  1.213767e+001 -8.000000e+000
      vertex -1.206779e-002  5.298504e+000 -8.000000e+000
      vertex  3.814767e+000  6.059709e+000 -8.000000e+000
    endloop
  endfacet
  facet normal  0.000000e+000  0.000000e+000  9.999999e-001
    outer loop
      vertex -1.039086e+000  1.213767e+001 -8.000000e+000
      vertex  3.814767e+000  6.059709e+000 -8.000000e+000
      vertex  1.014950e+000  1.213767e+001 -8.000000e+000
    endloop
  endfacet
  facet normal  0.000000e+000  0.000000e+000  1.000000e+000
    outer loop
      vertex  1.014950e+000  1.213767e+001 -8.000000e+000
      vertex  3.814767e+000  6.059709e+000 -8.000000e+000
      vertex  7.059000e+000  8.227436e+000 -8.000000e+000
    endloop
  endfacet
  facet normal  0.000000e+000  -0.000000e+000  1.000000e+000
    outer loop
      vertex  1.014950e+000  1.213767e+001 -8.000000e+000
      vertex  7.059000e+000  8.227436e+000 -8.000000e+000
      vertex  9.226727e+000  1.147167e+001 -8.000000e+000
    endloop
  endfacet
  facet normal  -0.000000e+000  0.000000e+000  1.000000e+000
    outer loop
      vertex -3.335568e+000  1.529850e+001 -8.000000e+000
      vertex -1.001207e+001  1.529850e+001 -8.000000e+000
      vertex -2.700836e+000  1.334500e+001 -8.000000e+000
    endloop
  endfacet
  facet normal  0.000000e+000  0.000000e+000  1.000000e+000
    outer loop
      vertex -2.700836e+000  1.334500e+001 -8.000000e+000
      vertex -1.001207e+001  1.529850e+001 -8.000000e+000
      vertex -9.250863e+000  1.147167e+001 -8.000000e+000
    endloop
  endfacet
  facet normal  0.000000e+000  0.000000e+000  1.000000e+000
    outer loop
      vertex -2.700836e+000  1.334500e+001 -8.000000e+000
      vertex -9.250863e+000  1.147167e+001 -8.000000e+000
      vertex -1.039086e+000  1.213767e+001 -8.000000e+000
    endloop
  endfacet
  facet normal  0.000000e+000  0.000000e+000  1.000000e+000
    outer loop
      vertex -1.039086e+000  1.845934e+001 -8.000000e+000
      vertex -1.206779e-002  2.529850e+001 -8.000000e+000
      vertex -9.250863e+000  1.912534e+001 -8.000000e+000
    endloop
  endfacet
  facet normal  0.000000e+000  0.000000e+000  1.000000e+000
    outer loop
      vertex -9.250863e+000  1.912534e+001 -8.000000e+000
      vertex -1.206779e-002  2.529850e+001 -8.000000e+000
      vertex -3.838902e+000  2.453730e+001 -8.000000e+000
    endloop
  endfacet
  facet normal  0.000000e+000  0.000000e+000  1.000000e+000
    outer loop
      vertex -9.250863e+000  1.912534e+001 -8.000000e+000
      vertex -3.838902e+000  2.453730e+001 -8.000000e+000
      vertex -7.083136e+000  2.236957e+001 -8.000000e+000
    endloop
  endfacet
  facet normal  0.000000e+000  0.000000e+000  9.999999e-001
    outer loop
      vertex -1.039086e+000  1.845934e+001 -8.000000e+000
      vertex -9.250863e+000  1.912534e+001 -8.000000e+000
      vertex -2.700836e+000  1.725201e+001 -8.000000e+000
    endloop
  endfacet
  facet normal  0.000000e+000  0.000000e+000  9.999999e-001
    outer loop
      vertex -2.700836e+000  1.725201e+001 -8.000000e+000
      vertex -9.250863e+000  1.912534e+001 -8.000000e+000
      vertex -1.001207e+001  1.529850e+001 -8.000000e+000
    endloop
  endfacet
  facet normal  0.000000e+000  0.000000e+000  1.000000e+000
    outer loop
      vertex -2.700836e+000  1.725201e+001 -8.000000e+000
      vertex -1.001207e+001  1.529850e+001 -8.000000e+000
      vertex -3.335568e+000  1.529850e+001 -8.000000e+000
    endloop
  endfacet
  facet normal  0.000000e+000  0.000000e+000  1.000000e+000
    outer loop
      vertex  3.311432e+000  1.529850e+001 -8.000000e+000
      vertex  2.676700e+000  1.334500e+001 -8.000000e+000
      vertex  9.987932e+000  1.529850e+001 -8.000000e+000
    endloop
  endfacet
  facet normal  0.000000e+000  0.000000e+000  9.999999e-001
    outer loop
      vertex  9.987932e+000  1.529850e+001 -8.000000e+000
      vertex  2.676700e+000  1.334500e+001 -8.000000e+000
      vertex  1.014950e+000  1.213767e+001 -8.000000e+000
    endloop
  endfacet
  facet normal  -0.000000e+000  0.000000e+000  9.999999e-001
    outer loop
      vertex  9.987932e+000  1.529850e+001 -8.000000e+000
      vertex  1.014950e+000  1.213767e+001 -8.000000e+000
      vertex  9.226727e+000  1.147167e+001 -8.000000e+000
    endloop
  endfacet
  facet normal  0.000000e+000  -0.000000e+000  9.999999e-001
    outer loop
      vertex  1.014950e+000  1.845934e+001 -8.000000e+000
      vertex  2.676700e+000  1.725201e+001 -8.000000e+000
      vertex  9.226727e+000  1.912534e+001 -8.000000e+000
    endloop
  endfacet
  facet normal  0.000000e+000  0.000000e+000  1.000000e+000
    outer loop
      vertex  9.226727e+000  1.912534e+001 -8.000000e+000
      vertex  2.676700e+000  1.725201e+001 -8.000000e+000
      vertex  3.311432e+000  1.529850e+001 -8.000000e+000
    endloop
  endfacet
  facet normal  0.000000e+000  0.000000e+000  1.000000e+000
    outer loop
      vertex  9.226727e+000  1.912534e+001 -8.000000e+000
      vertex  3.311432e+000  1.529850e+001 -8.000000e+000
      vertex  9.987932e+000  1.529850e+001 -8.000000e+000
    endloop
  endfacet
  facet normal -5.877854e-001 -8.090169e-001  0.000000e+000
    outer loop
      vertex  1.014950e+000  1.845934e+001 -8.000000e+000
      vertex  2.676700e+000  1.725201e+001 -2.000000e+001
      vertex  2.676700e+000  1.725201e+001 -8.000000e+000
    endloop
  endfacet
  facet normal -9.510566e-001 -3.090170e-001  -0.000000e+000
    outer loop
      vertex  2.676700e+000  1.725201e+001 -8.000000e+000
      vertex  2.676700e+000  1.725201e+001 -2.000000e+001
      vertex  3.311432e+000  1.529850e+001 -2.000000e+001
    endloop
  endfacet
  facet normal -9.510566e-001 -3.090170e-001  0.000000e+000
    outer loop
      vertex  2.676700e+000  1.725201e+001 -8.000000e+000
      vertex  3.311432e+000  1.529850e+001 -2.000000e+001
      vertex  3.311432e+000  1.529850e+001 -8.000000e+000
    endloop
  endfacet
  facet normal -5.877854e-001 -8.090169e-001  -0.000000e+000
    outer loop
      vertex  2.676700e+000  1.725201e+001 -2.000000e+001
      vertex  1.014950e+000  1.845934e+001 -8.000000e+000
      vertex  1.014950e+000  1.845934e+001 -2.000000e+001
    endloop
  endfacet
  facet normal  0.000000e+000 -1.000000e+000  0.000000e+000
    outer loop
      vertex  1.014950e+000  1.845934e+001 -2.000000e+001
      vertex  1.014950e+000  1.845934e+001 -8.000000e+000
      vertex -1.039086e+000  1.845934e+001 -8.000000e+000
    endloop
  endfacet
  facet normal  0.000000e+000 -1.000000e+000  0.000000e+000
    outer loop
      vertex  1.014950e+000  1.845934e+001 -2.000000e+001
      vertex -1.039086e+000  1.845934e+001 -8.000000e+000
      vertex -1.039086e+000  1.845934e+001 -2.000000e+001
    endloop
  endfacet
  facet normal  5.877854e-001 -8.090169e-001  0.000000e+000
    outer loop
      vertex -1.039086e+000  1.845934e+001 -2.000000e+001
      vertex -1.039086e+000  1.845934e+001 -8.000000e+000
      vertex -2.700836e+000  1.725201e+001 -8.000000e+000
    endloop
  endfacet
  facet normal  5.877854e-001 -8.090169e-001  0.000000e+000
    outer loop
      vertex -1.039086e+000  1.845934e+001 -2.000000e+001
      vertex -2.700836e+000  1.725201e+001 -8.000000e+000
      vertex -2.700836e+000  1.725201e+001 -2.000000e+001
    endloop
  endfacet
  facet normal  9.510566e-001 -3.090170e-001  0.000000e+000
    outer loop
      vertex -2.700836e+000  1.725201e+001 -2.000000e+001
      vertex -2.700836e+000  1.725201e+001 -8.000000e+000
      vertex -3.335568e+000  1.529850e+001 -8.000000e+000
    endloop
  endfacet
  facet normal  9.510566e-001 -3.090170e-001  0.000000e+000
    outer loop
      vertex -2.700836e+000  1.725201e+001 -2.000000e+001
      vertex -3.335568e+000  1.529850e+001 -8.000000e+000
      vertex -3.335568e+000  1.529850e+001 -2.000000e+001
    endloop
  endfacet
  facet normal -4.935295e-001 -1.603574e-001  8.548182e-001
    outer loop
      vertex -1.206779e-002  1.529850e+001 -2.191882e+001
      vertex  3.311432e+000  1.529850e+001 -2.000000e+001
      vertex  2.676700e+000  1.725201e+001 -2.000000e+001
    endloop
  endfacet
  facet normal -3.050180e-001 -4.198211e-001  8.548182e-001
    outer loop
      vertex -1.206779e-002  1.529850e+001 -2.191882e+001
      vertex  2.676700e+000  1.725201e+001 -2.000000e+001
      vertex  1.014950e+000  1.845934e+001 -2.000000e+001
    endloop
  endfacet
  facet normal  0.000000e+000 -5.189275e-001  8.548183e-001
    outer loop
      vertex -1.206779e-002  1.529850e+001 -2.191882e+001
      vertex  1.014950e+000  1.845934e+001 -2.000000e+001
      vertex -1.039086e+000  1.845934e+001 -2.000000e+001
    endloop
  endfacet
  facet normal  3.050180e-001 -4.198211e-001  8.548183e-001
    outer loop
      vertex -1.206779e-002  1.529850e+001 -2.191882e+001
      vertex -1.039086e+000  1.845934e+001 -2.000000e+001
      vertex -2.700836e+000  1.725201e+001 -2.000000e+001
    endloop
  endfacet
  facet normal  4.935294e-001 -1.603574e-001  8.548182e-001
    outer loop
      vertex -1.206779e-002  1.529850e+001 -2.191882e+001
      vertex -2.700836e+000  1.725201e+001 -2.000000e+001
      vertex -3.335568e+000  1.529850e+001 -2.000000e+001
    endloop
  endfacet
  facet normal  5.877851e-001  8.090171e-001  -0.000000e+000
    outer loop
      vertex -1.039086e+000  1.213767e+001 -8.000000e+000
      vertex -2.700836e+000  1.334500e+001 -2.000000e+001
      vertex -2.700836e+000  1.334500e+001 -8.000000e+000
    endloop
  endfacet
  facet normal  9.510566e-001  3.090170e-001  0.000000e+000
    outer loop
      vertex -2.700836e+000  1.334500e+001 -8.000000e+000
      vertex -2.700836e+000  1.334500e+001 -2.000000e+001
      vertex -3.335568e+000  1.529850e+001 -2.000000e+001
    endloop
  endfacet
  facet normal  9.510566e-001  3.090170e-001  -0.000000e+000
    outer loop
      vertex -2.700836e+000  1.334500e+001 -8.000000e+000
      vertex -3.335568e+000  1.529850e+001 -2.000000e+001
      vertex -3.335568e+000  1.529850e+001 -8.000000e+000
    endloop
  endfacet
  facet normal  5.877851e-001  8.090171e-001  0.000000e+000
    outer loop
      vertex -2.700836e+000  1.334500e+001 -2.000000e+001
      vertex -1.039086e+000  1.213767e+001 -8.000000e+000
      vertex -1.039086e+000  1.213767e+001 -2.000000e+001
    endloop
  endfacet
  facet normal  0.000000e+000  1.000000e+000  0.000000e+000
    outer loop
      vertex -1.039086e+000  1.213767e+001 -2.000000e+001
      vertex -1.039086e+000  1.213767e+001 -8.000000e+000
      vertex  1.014950e+000  1.213767e+001 -8.000000e+000
    endloop
  endfacet
  facet normal  0.000000e+000  1.000000e+000  0.000000e+000
    outer loop
      vertex -1.039086e+000  1.213767e+001 -2.000000e+001
      vertex  1.014950e+000  1.213767e+001 -8.000000e+000
      vertex  1.014950e+000  1.213767e+001 -2.000000e+001
    endloop
  endfacet
  facet normal -5.877851e-001  8.090171e-001  0.000000e+000
    outer loop
      vertex  1.014950e+000  1.213767e+001 -2.000000e+001
      vertex  1.014950e+000  1.213767e+001 -8.000000e+000
      vertex  2.676700e+000  1.334500e+001 -8.000000e+000
    endloop
  endfacet
  facet normal -5.877851e-001  8.090171e-001  0.000000e+000
    outer loop
      vertex  1.014950e+000  1.213767e+001 -2.000000e+001
      vertex  2.676700e+000  1.334500e+001 -8.000000e+000
      vertex  2.676700e+000  1.334500e+001 -2.000000e+001
    endloop
  endfacet
  facet normal -9.510566e-001  3.090170e-001  0.000000e+000
    outer loop
      vertex  2.676700e+000  1.334500e+001 -2.000000e+001
      vertex  2.676700e+000  1.334500e+001 -8.000000e+000
      vertex  3.311432e+000  1.529850e+001 -8.000000e+000
    endloop
  endfacet
  facet normal -9.510566e-001  3.090170e-001  0.000000e+000
    outer loop
      vertex  2.676700e+000  1.334500e+001 -2.000000e+001
      vertex  3.311432e+000  1.529850e+001 -8.000000e+000
      vertex  3.311432e+000  1.529850e+001 -2.000000e+001
    endloop
  endfacet
  facet normal  4.935295e-001  1.603574e-001  8.548182e-001
    outer loop
      vertex -1.206779e-002  1.529850e+001 -2.191882e+001
      vertex -3.335568e+000  1.529850e+001 -2.000000e+001
      vertex -2.700836e+000  1.334500e+001 -2.000000e+001
    endloop
  endfacet
  facet normal  3.050179e-001  4.198212e-001  8.548182e-001
    outer loop
      vertex -1.206779e-002  1.529850e+001 -2.191882e+001
      vertex -2.700836e+000  1.334500e+001 -2.000000e+001
      vertex -1.039086e+000  1.213767e+001 -2.000000e+001
    endloop
  endfacet
  facet normal  -0.000000e+000  5.189276e-001  8.548182e-001
    outer loop
      vertex -1.206779e-002  1.529850e+001 -2.191882e+001
      vertex -1.039086e+000  1.213767e+001 -2.000000e+001
      vertex  1.014950e+000  1.213767e+001 -2.000000e+001
    endloop
  endfacet
  facet normal -3.050179e-001  4.198212e-001  8.548182e-001
    outer loop
      vertex -1.206779e-002  1.529850e+001 -2.191882e+001
      vertex  1.014950e+000  1.213767e+001 -2.000000e+001
      vertex  2.676700e+000  1.334500e+001 -2.000000e+001
    endloop
  endfacet
  facet normal -4.935294e-001  1.603574e-001  8.548182e-001
    outer loop
      vertex -1.206779e-002  1.529850e+001 -2.191882e+001
      vertex  2.676700e+000  1.334500e+001 -2.000000e+001
      vertex  3.311432e+000  1.529850e+001 -2.000000e+001
    endloop
  endfacet
  facet normal -1.000000e+000  0.000000e+000  0.000000e+000
    outer loop
      vertex -5.000000e+001 -5.000000e+001 -5.000000e+001
      vertex -5.000000e+001 -5.000000e+001  0.000000e+000
      vertex -5.000000e+001  1.000000e+001  0.000000e+000
    endloop
  endfacet
  facet normal -1.000000e+000  0.000000e+000  -0.000000e+000
    outer loop
      vertex -5.000000e+001 -5.000000e+001 -5.000000e+001
      vertex -5.000000e+001  1.000000e+001  0.000000e+000
      vertex -5.000000e+001  1.000000e+001 -2.000000e+001
    endloop
  endfacet
  facet normal -1.000000e+000  0.000000e+000  -0.000000e+000
    outer loop
      vertex -5.000000e+001 -5.000000e+001 -5.000000e+001
      vertex -5.000000e+001  1.000000e+001 -2.000000e+001
      vertex -5.000000e+001  5.000000e+001 -2.000000e+001
    endloop
  endfacet
  facet normal -1.000000e+000  0.000000e+000  -0.000000e+000
    outer loop
      vertex -5.000000e+001 -5.000000e+001 -5.000000e+001
      vertex -5.000000e+001  5.000000e+001 -2.000000e+001
      vertex -5.000000e+001  5.000000e+001 -5.000000e+001
    endloop
  endfacet
  facet normal  -0.000000e+000  0.000000e+000  1.000000e+000
    outer loop
      vertex -2.900000e+001  5.000000e+001  0.000000e+000
      vertex -3.400000e+001  5.000000e+001  0.000000e+000
      vertex -2.900000e+001  4.000000e+001  0.000000e+000
    endloop
  endfacet
  facet normal  -0.000000e+000  1.000000e+000  0.000000e+000
    outer loop
      vertex -1.300000e+001  5.000000e+001 -2.000000e+001
      vertex -1.300000e+001  5.000000e+001  0.000000e+000
      vertex -1.000000e+001  5.000000e+001  0.000000e+000
    endloop
  endfacet
  facet normal  0.000000e+000  1.000000e+000  0.000000e+000
    outer loop
      vertex -1.300000e+001  5.000000e+001 -2.000000e+001
      vertex -1.000000e+001  5.000000e+001  0.000000e+000
      vertex -1.000000e+001  5.000000e+001 -1.000000e+001
    endloop
  endfacet
  facet normal  -0.000000e+000  1.000000e+000  0.000000e+000
    outer loop
      vertex -1.300000e+001  5.000000e+001 -2.000000e+001
      vertex -1.000000e+001  5.000000e+001 -1.000000e+001
      vertex  1.000000e+001  5.000000e+001 -1.000000e+001
    endloop
  endfacet
  facet normal  -0.000000e+000  1.000000e+000  0.000000e+000
    outer loop
      vertex -1.300000e+001  5.000000e+001 -2.000000e+001
      vertex  1.000000e+001  5.000000e+001 -1.000000e+001
      vertex  3.000000e+001  5.000000e+001 -1.000000e+001
    endloop
  endfacet
  facet normal  -0.000000e+000  1.000000e+000  0.000000e+000
    outer loop
      vertex -1.300000e+001  5.000000e+001 -2.000000e+001
      vertex  3.000000e+001  5.000000e+001 -1.000000e+001
      vertex  5.000000e+001  5.000000e+001 -1.000000e+001
    endloop
  endfacet
  facet normal  0.000000e+000  1.000000e+000  0.000000e+000
    outer loop
      vertex  5.000000e+001  5.000000e+001 -5.000000e+001
      vertex -5.000000e+001  5.000000e+001 -5.000000e+001
      vertex -5.000000e+001  5.000000e+001 -2.000000e+001
    endloop
  endfacet
  facet normal  -0.000000e+000  1.000000e+000  0.000000e+000
    outer loop
      vertex  5.000000e+001  5.000000e+001 -5.000000e+001
      vertex -5.000000e+001  5.000000e+001 -2.000000e+001
      vertex -3.400000e+001  5.000000e+001 -2.000000e+001
    endloop
  endfacet
  facet normal  -0.000000e+000  1.000000e+000  0.000000e+000
    outer loop
      vertex  5.000000e+001  5.000000e+001 -5.000000e+001
      vertex -3.400000e+001  5.000000e+001 -2.000000e+001
      vertex -2.900000e+001  5.000000e+001 -2.000000e+001
    endloop
  endfacet
  facet normal  -0.000000e+000  1.000000e+000  0.000000e+000
    outer loop
      vertex  5.000000e+001  5.000000e+001 -5.000000e+001
      vertex -2.900000e+001  5.000000e+001 -2.000000e+001
      vertex -1.300000e+001  5.000000e+001 -2.000000e+001
    endloop
  endfacet
  facet normal  -0.000000e+000  1.000000e+000  0.000000e+000
    outer loop
      vertex  5.000000e+001  5.000000e+001 -5.000000e+001
      vertex -1.300000e+001  5.000000e+001 -2.000000e+001
      vertex  5.000000e+001  5.000000e+001 -1.000000e+001
    endloop
  endfacet
  facet normal  0.000000e+000  1.000000e+000  0.000000e+000
    outer loop
      vertex -3.400000e+001  5.000000e+001 -2.000000e+001
      vertex -3.400000e+001  5.000000e+001  0.000000e+000
      vertex -2.900000e+001  5.000000e+001 -2.000000e+001
    endloop
  endfacet
  facet normal  0.000000e+000  1.000000e+000  -0.000000e+000
    outer loop
      vertex -2.900000e+001  5.000000e+001 -2.000000e+001
      vertex -3.400000e+001  5.000000e+001  0.000000e+000
      vertex -2.900000e+001  5.000000e+001  0.000000e+000
    endloop
  endfacet
  facet normal  0.000000e+000  1.000000e+000  0.000000e+000
    outer loop
      vertex  1.000000e+001  5.000000e+001 -1.000000e+001
      vertex  1.000000e+001  5.000000e+001  0.000000e+000
      vertex  3.000000e+001  5.000000e+001 -1.000000e+001
    endloop
  endfacet
  facet normal  0.000000e+000  1.000000e+000  -0.000000e+000
    outer loop
      vertex  3.000000e+001  5.000000e+001 -1.000000e+001
      vertex  1.000000e+001  5.000000e+001  0.000000e+000
      vertex  3.000000e+001  5.000000e+001  0.000000e+000
    endloop
  endfacet
  facet normal  0.000000e+000  0.000000e+000  1.000000e+000
    outer loop
      vertex -5.000000e+001  5.000000e+001 -2.000000e+001
      vertex -5.000000e+001  1.000000e+001 -2.000000e+001
      vertex -4.200000e+001  1.000000e+001 -2.000000e+001
    endloop
  endfacet
  facet normal  0.000000e+000  -0.000000e+000  9.999999e-001
    outer loop
      vertex -5.000000e+001  5.000000e+001 -2.000000e+001
      vertex -4.200000e+001  1.000000e+001 -2.000000e+001
      vertex -3.893853e+001  1.060896e+001 -2.000000e+001
    endloop
  endfacet
  facet normal  0.000000e+000  -0.000000e+000  9.999999e-001
    outer loop
      vertex -5.000000e+001  5.000000e+001 -2.000000e+001
      vertex -3.893853e+001  1.060896e+001 -2.000000e+001
      vertex -3.634315e+001  1.234315e+001 -2.000000e+001
    endloop
  endfacet
  facet normal  0.000000e+000  -0.000000e+000  9.999999e-001
    outer loop
      vertex -5.000000e+001  5.000000e+001 -2.000000e+001
      vertex -3.634315e+001  1.234315e+001 -2.000000e+001
      vertex -3.460896e+001  1.493853e+001 -2.000000e+001
    endloop
  endfacet
  facet normal  0.000000e+000  -0.000000e+000  1.000000e+000
    outer loop
      vertex -5.000000e+001  5.000000e+001 -2.000000e+001
      vertex -3.460896e+001  1.493853e+001 -2.000000e+001
      vertex -3.400000e+001  1.800000e+001 -2.000000e+001
    endloop
  endfacet
  facet normal  0.000000e+000  -0.000000e+000  1.000000e+000
    outer loop
      vertex -5.000000e+001  5.000000e+001 -2.000000e+001
      vertex -3.400000e+001  1.800000e+001 -2.000000e+001
      vertex -2.900000e+001  4.000000e+001 -2.000000e+001
    endloop
  endfacet
  facet normal  0.000000e+000  0.000000e+000  1.000000e+000
    outer loop
      vertex -5.000000e+001  5.000000e+001 -2.000000e+001
      vertex -2.900000e+001  4.000000e+001 -2.000000e+001
      vertex -3.400000e+001  5.000000e+001 -2.000000e+001
    endloop
  endfacet
  facet normal  0.000000e+000  -0.000000e+000  1.000000e+000
    outer loop
      vertex -3.400000e+001  1.800000e+001 -2.000000e+001
      vertex -2.971115e+001  9.422291e+000 -2.000000e+001
      vertex -2.900000e+001  4.000000e+001 -2.000000e+001
    endloop
  endfacet
  facet normal  0.000000e+000  0.000000e+000  9.999999e-001
    outer loop
      vertex -2.900000e+001  4.000000e+001 -2.000000e+001
      vertex -2.971115e+001  9.422291e+000 -2.000000e+001
      vertex -1.300000e+001  1.300000e+001 -2.000000e+001
    endloop
  endfacet
  facet normal  0.000000e+000  0.000000e+000  1.000000e+000
    outer loop
      vertex -2.900000e+001  4.000000e+001 -2.000000e+001
      vertex -1.300000e+001  1.300000e+001 -2.000000e+001
      vertex -2.900000e+001  5.000000e+001 -2.000000e+001
    endloop
  endfacet
  facet normal  -0.000000e+000  0.000000e+000  1.000000e+000
    outer loop
      vertex -2.900000e+001  5.000000e+001 -2.000000e+001
      vertex -1.300000e+001  1.300000e+001 -2.000000e+001
      vertex -1.300000e+001  5.000000e+001 -2.000000e+001
    endloop
  endfacet
  facet normal  0.000000e+000  0.000000e+000  1.000000e+000
    outer loop
      vertex -2.255573e+001  5.000000e+000 -2.000000e+001
      vertex -2.100000e+001  5.000000e+000 -2.000000e+001
      vertex -2.544156e+001  5.538635e+000 -2.000000e+001
    endloop
  endfacet
  facet normal  -0.000000e+000  0.000000e+000  1.000000e+000
    outer loop
      vertex -2.544156e+001  5.538635e+000 -2.000000e+001
      vertex -2.100000e+001  5.000000e+000 -2.000000e+001
      vertex -1.793853e+001  5.608964e+000 -2.000000e+001
    endloop
  endfacet
  facet normal  0.000000e+000  0.000000e+000  1.000000e+000
    outer loop
      vertex -2.544156e+001  5.538635e+000 -2.000000e+001
      vertex -1.793853e+001  5.608964e+000 -2.000000e+001
      vertex -2.793879e+001  7.082008e+000 -2.000000e+001
    endloop
  endfacet
  facet normal  -0.000000e+000  0.000000e+000  1.000000e+000
    outer loop
      vertex -2.793879e+001  7.082008e+000 -2.000000e+001
      vertex -1.793853e+001  5.608964e+000 -2.000000e+001
      vertex -1.534315e+001  7.343146e+000 -2.000000e+001
    endloop
  endfacet
  facet normal  0.000000e+000  0.000000e+000  1.000000e+000
    outer loop
      vertex -2.793879e+001  7.082008e+000 -2.000000e+001
      vertex -1.534315e+001  7.343146e+000 -2.000000e+001
      vertex -2.971115e+001  9.422291e+000 -2.000000e+001
    endloop
  endfacet
  facet normal  -0.000000e+000  0.000000e+000  1.000000e+000
    outer loop
      vertex -2.971115e+001  9.422291e+000 -2.000000e+001
      vertex -1.534315e+001  7.343146e+000 -2.000000e+001
      vertex -1.360896e+001  9.938533e+000 -2.000000e+001
    endloop
  endfacet
  facet normal  0.000000e+000  -0.000000e+000  1.000000e+000
    outer loop
      vertex -2.971115e+001  9.422291e+000 -2.000000e+001
      vertex -1.360896e+001  9.938533e+000 -2.000000e+001
      vertex -1.300000e+001  1.300000e+001 -2.000000e+001
    endloop
  endfacet
  facet normal -1.000000e+000  0.000000e+000  0.000000e+000
    outer loop
      vertex -1.300000e+001  5.000000e+001 -2.000000e+001
      vertex -1.300000e+001  1.300000e+001 -2.000000e+001
      vertex -1.300000e+001  5.000000e+001  0.000000e+000
    endloop
  endfacet
  facet normal -1.000000e+000  -0.000000e+000  0.000000e+000
    outer loop
      vertex -1.300000e+001  5.000000e+001  0.000000e+000
      vertex -1.300000e+001  1.300000e+001 -2.000000e+001
      vertex -1.300000e+001  1.300000e+001  0.000000e+000
    endloop
  endfacet
  facet normal -8.314697e-001  5.555701e-001  0.000000e+000
    outer loop
      vertex -1.534315e+001  7.343146e+000 -2.000000e+001
      vertex -1.360896e+001  9.938533e+000  0.000000e+000
      vertex -1.360896e+001  9.938533e+000 -2.000000e+001
    endloop
  endfacet
  facet normal -9.807853e-001  1.950904e-001  0.000000e+000
    outer loop
      vertex -1.360896e+001  9.938533e+000 -2.000000e+001
      vertex -1.360896e+001  9.938533e+000  0.000000e+000
      vertex -1.300000e+001  1.300000e+001  0.000000e+000
    endloop
  endfacet
  facet normal -9.807853e-001  1.950904e-001  0.000000e+000
    outer loop
      vertex -1.360896e+001  9.938533e+000 -2.000000e+001
      vertex -1.300000e+001  1.300000e+001  0.000000e+000
      vertex -1.300000e+001  1.300000e+001 -2.000000e+001
    endloop
  endfacet
  facet normal -8.314697e-001  5.555701e-001  0.000000e+000
    outer loop
      vertex -1.360896e+001  9.938533e+000  0.000000e+000
      vertex -1.534315e+001  7.343146e+000 -2.000000e+001
      vertex -1.534315e+001  7.343146e+000  0.000000e+000
    endloop
  endfacet
  facet normal -5.555702e-001  8.314696e-001  0.000000e+000
    outer loop
      vertex -1.534315e+001  7.343146e+000  0.000000e+000
      vertex -1.534315e+001  7.343146e+000 -2.000000e+001
      vertex -1.793853e+001  5.608964e+000 -2.000000e+001
    endloop
  endfacet
  facet normal -5.555702e-001  8.314696e-001  0.000000e+000
    outer loop
      vertex -1.534315e+001  7.343146e+000  0.000000e+000
      vertex -1.793853e+001  5.608964e+000 -2.000000e+001
      vertex -1.793853e+001  5.608964e+000  0.000000e+000
    endloop
  endfacet
  facet normal -1.950903e-001  9.807853e-001  0.000000e+000
    outer loop
      vertex -1.793853e+001  5.608964e+000  0.000000e+000
      vertex -1.793853e+001  5.608964e+000 -2.000000e+001
      vertex -2.100000e+001  5.000000e+000 -2.000000e+001
    endloop
  endfacet
  facet normal -1.950903e-001  9.807853e-001  0.000000e+000
    outer loop
      vertex -1.793853e+001  5.608964e+000  0.000000e+000
      vertex -2.100000e+001  5.000000e+000 -2.000000e+001
      vertex -2.100000e+001  5.000000e+000  0.000000e+000
    endloop
  endfacet
  facet normal  0.000000e+000  1.000000e+000  -0.000000e+000
    outer loop
      vertex -2.100000e+001  5.000000e+000  0.000000e+000
      vertex -2.100000e+001  5.000000e+000 -2.000000e+001
      vertex -2.255573e+001  5.000000e+000  0.000000e+000
    endloop
  endfacet
  facet normal  0.000000e+000  1.000000e+000  0.000000e+000
    outer loop
      vertex -2.255573e+001  5.000000e+000  0.000000e+000
      vertex -2.100000e+001  5.000000e+000 -2.000000e+001
      vertex -2.255573e+001  5.000000e+000 -2.000000e+001
    endloop
  endfacet
  facet normal  1.834795e-001  9.830235e-001  0.000000e+000
    outer loop
      vertex -2.544156e+001  5.538635e+000 -2.000000e+001
      vertex -2.255573e+001  5.000000e+000  0.000000e+000
      vertex -2.255573e+001  5.000000e+000 -2.000000e+001
    endloop
  endfacet
  facet normal  1.834795e-001  9.830235e-001  -0.000000e+000
    outer loop
      vertex -2.255573e+001  5.000000e+000  0.000000e+000
      vertex -2.544156e+001  5.538635e+000 -2.000000e+001
      vertex -2.544156e+001  5.538635e+000  0.000000e+000
    endloop
  endfacet
  facet normal  5.257310e-001  8.506508e-001  0.000000e+000
    outer loop
      vertex -2.544156e+001  5.538635e+000  0.000000e+000
      vertex -2.544156e+001  5.538635e+000 -2.000000e+001
      vertex -2.793879e+001  7.082008e+000 -2.000000e+001
    endloop
  endfacet
  facet normal  5.257310e-001  8.506508e-001  -0.000000e+000
    outer loop
      vertex -2.544156e+001  5.538635e+000  0.000000e+000
      vertex -2.793879e+001  7.082008e+000 -2.000000e+001
      vertex -2.793879e+001  7.082008e+000  0.000000e+000
    endloop
  endfacet
  facet normal  7.971884e-001  6.037306e-001  0.000000e+000
    outer loop
      vertex -2.793879e+001  7.082008e+000  0.000000e+000
      vertex -2.793879e+001  7.082008e+000 -2.000000e+001
      vertex -2.971115e+001  9.422291e+000 -2.000000e+001
    endloop
  endfacet
  facet normal  7.971884e-001  6.037306e-001  -0.000000e+000
    outer loop
      vertex -2.793879e+001  7.082008e+000  0.000000e+000
      vertex -2.971115e+001  9.422291e+000 -2.000000e+001
      vertex -2.971115e+001  9.422291e+000  0.000000e+000
    endloop
  endfacet
  facet normal  8.944272e-001  4.472136e-001  -0.000000e+000
    outer loop
      vertex -2.971115e+001  9.422291e+000  0.000000e+000
      vertex -2.971115e+001  9.422291e+000 -2.000000e+001
      vertex -3.400000e+001  1.800000e+001  0.000000e+000
    endloop
  endfacet
  facet normal  8.944272e-001  4.472136e-001  0.000000e+000
    outer loop
      vertex -3.400000e+001  1.800000e+001  0.000000e+000
      vertex -2.971115e+001  9.422291e+000 -2.000000e+001
      vertex -3.400000e+001  1.800000e+001 -2.000000e+001
    endloop
  endfacet
  facet normal -8.314693e-001  5.555706e-001  0.000000e+000
    outer loop
      vertex -3.634315e+001  1.234315e+001 -2.000000e+001
      vertex -3.460896e+001  1.493853e+001  0.000000e+000
      vertex -3.460896e+001  1.493853e+001 -2.000000e+001
    endloop
  endfacet
  facet normal -9.807853e-001  1.950901e-001  0.000000e+000
    outer loop
      vertex -3.460896e+001  1.493853e+001 -2.000000e+001
      vertex -3.460896e+001  1.493853e+001  0.000000e+000
      vertex -3.400000e+001  1.800000e+001  0.000000e+000
    endloop
  endfacet
  facet normal -9.807853e-001  1.950901e-001  0.000000e+000
    outer loop
      vertex -3.460896e+001  1.493853e+001 -2.000000e+001
      vertex -3.400000e+001  1.800000e+001  0.000000e+000
      vertex -3.400000e+001  1.800000e+001 -2.000000e+001
    endloop
  endfacet
  facet normal -8.314693e-001  5.555706e-001  0.000000e+000
    outer loop
      vertex -3.460896e+001  1.493853e+001  0.000000e+000
      vertex -3.634315e+001  1.234315e+001 -2.000000e+001
      vertex -3.634315e+001  1.234315e+001  0.000000e+000
    endloop
  endfacet
  facet normal -5.555701e-001  8.314697e-001  0.000000e+000
    outer loop
      vertex -3.634315e+001  1.234315e+001  0.000000e+000
      vertex -3.634315e+001  1.234315e+001 -2.000000e+001
      vertex -3.893853e+001  1.060896e+001 -2.000000e+001
    endloop
  endfacet
  facet normal -5.555701e-001  8.314697e-001  0.000000e+000
    outer loop
      vertex -3.634315e+001  1.234315e+001  0.000000e+000
      vertex -3.893853e+001  1.060896e+001 -2.000000e+001
      vertex -3.893853e+001  1.060896e+001  0.000000e+000
    endloop
  endfacet
  facet normal -1.950905e-001  9.807852e-001  0.000000e+000
    outer loop
      vertex -3.893853e+001  1.060896e+001  0.000000e+000
      vertex -3.893853e+001  1.060896e+001 -2.000000e+001
      vertex -4.200000e+001  1.000000e+001 -2.000000e+001
    endloop
  endfacet
  facet normal -1.950905e-001  9.807852e-001  0.000000e+000
    outer loop
      vertex -3.893853e+001  1.060896e+001  0.000000e+000
      vertex -4.200000e+001  1.000000e+001 -2.000000e+001
      vertex -4.200000e+001  1.000000e+001  0.000000e+000
    endloop
  endfacet
  facet normal  0.000000e+000  1.000000e+000  -0.000000e+000
    outer loop
      vertex -4.200000e+001  1.000000e+001  0.000000e+000
      vertex -4.200000e+001  1.000000e+001 -2.000000e+001
      vertex -5.000000e+001  1.000000e+001  0.000000e+000
    endloop
  endfacet
  facet normal  0.000000e+000  1.000000e+000  0.000000e+000
    outer loop
      vertex -5.000000e+001  1.000000e+001  0.000000e+000
      vertex -4.200000e+001  1.000000e+001 -2.000000e+001
      vertex -5.000000e+001  1.000000e+001 -2.000000e+001
    endloop
  endfacet
  facet normal -8.944272e-001 -4.472136e-001  0.000000e+000
    outer loop
      vertex -3.400000e+001  5.000000e+001  0.000000e+000
      vertex -3.400000e+001  5.000000e+001 -2.000000e+001
      vertex -2.900000e+001  4.000000e+001  0.000000e+000
    endloop
  endfacet
  facet normal -8.944272e-001 -4.472136e-001  -0.000000e+000
    outer loop
      vertex -2.900000e+001  4.000000e+001  0.000000e+000
      vertex -3.400000e+001  5.000000e+001 -2.000000e+001
      vertex -2.900000e+001  4.000000e+001 -2.000000e+001
    endloop
  endfacet
  facet normal  1.000000e+000  0.000000e+000  0.000000e+000
    outer loop
      vertex -2.900000e+001  4.000000e+001  0.000000e+000
      vertex -2.900000e+001  4.000000e+001 -2.000000e+001
      vertex -2.900000e+001  5.000000e+001  0.000000e+000
    endloop
  endfacet
  facet normal  1.000000e+000  0.000000e+000  0.000000e+000
    outer loop
      vertex -2.900000e+001  5.000000e+001  0.000000e+000
      vertex -2.900000e+001  4.000000e+001 -2.000000e+001
      vertex -2.900000e+001  5.000000e+001 -2.000000e+001
    endloop
  endfacet
  facet normal  1.000000e+000  0.000000e+000  0.000000e+000
    outer loop
      vertex  5.000000e+001  5.000000e+001 -5.000000e+001
      vertex  5.000000e+001  5.000000e+001 -1.000000e+001
      vertex  5.000000e+001 -5.000000e+001 -5.000000e+001
    endloop
  endfacet
  facet normal  1.000000e+000  0.000000e+000  0.000000e+000
    outer loop
      vertex  5.000000e+001 -5.000000e+001 -5.000000e+001
      vertex  5.000000e+001  5.000000e+001 -1.000000e+001
      vertex  5.000000e+001 -2.500000e+001 -1.000000e+001
    endloop
  endfacet
  facet normal  1.000000e+000  0.000000e+000  0.000000e+000
    outer loop
      vertex  5.000000e+001 -5.000000e+001 -5.000000e+001
      vertex  5.000000e+001 -2.500000e+001 -1.000000e+001
      vertex  5.000000e+001 -5.000000e+001  0.000000e+000
    endloop
  endfacet
  facet normal  1.000000e+000  -0.000000e+000  0.000000e+000
    outer loop
      vertex  5.000000e+001 -5.000000e+001  0.000000e+000
      vertex  5.000000e+001 -2.500000e+001 -1.000000e+001
      vertex  5.000000e+001 -2.500000e+001  0.000000e+000
    endloop
  endfacet
  facet normal  0.000000e+000  0.000000e+000  1.000000e+000
    outer loop
      vertex -2.000000e+000  3.000000e+001 -1.000000e+001
      vertex  2.000000e+000  3.000000e+001 -1.000000e+001
      vertex -5.061468e+000  3.060896e+001 -1.000000e+001
    endloop
  endfacet
  facet normal  -0.000000e+000  0.000000e+000  1.000000e+000
    outer loop
      vertex -5.061468e+000  3.060896e+001 -1.000000e+001
      vertex  2.000000e+000  3.000000e+001 -1.000000e+001
      vertex  5.061468e+000  3.060896e+001 -1.000000e+001
    endloop
  endfacet
  facet normal  0.000000e+000  0.000000e+000  1.000000e+000
    outer loop
      vertex -5.061468e+000  3.060896e+001 -1.000000e+001
      vertex  5.061468e+000  3.060896e+001 -1.000000e+001
      vertex -7.656854e+000  3.234315e+001 -1.000000e+001
    endloop
  endfacet
  facet normal  -0.000000e+000  0.000000e+000  1.000000e+000
    outer loop
      vertex -7.656854e+000  3.234315e+001 -1.000000e+001
      vertex  5.061468e+000  3.060896e+001 -1.000000e+001
      vertex  7.656854e+000  3.234315e+001 -1.000000e+001
    endloop
  endfacet
  facet normal  0.000000e+000  0.000000e+000  1.000000e+000
    outer loop
      vertex -7.656854e+000  3.234315e+001 -1.000000e+001
      vertex  7.656854e+000  3.234315e+001 -1.000000e+001
      vertex -9.391036e+000  3.493853e+001 -1.000000e+001
    endloop
  endfacet
  facet normal  -0.000000e+000  0.000000e+000  9.999999e-001
    outer loop
      vertex -9.391036e+000  3.493853e+001 -1.000000e+001
      vertex  7.656854e+000  3.234315e+001 -1.000000e+001
      vertex  9.391036e+000  3.493853e+001 -1.000000e+001
    endloop
  endfacet
  facet normal  0.000000e+000  0.000000e+000  1.000000e+000
    outer loop
      vertex -9.391036e+000  3.493853e+001 -1.000000e+001
      vertex  9.391036e+000  3.493853e+001 -1.000000e+001
      vertex -1.000000e+001  3.800000e+001 -1.000000e+001
    endloop
  endfacet
  facet normal  -0.000000e+000  0.000000e+000  1.000000e+000
    outer loop
      vertex -1.000000e+001  3.800000e+001 -1.000000e+001
      vertex  9.391036e+000  3.493853e+001 -1.000000e+001
      vertex  1.000000e+001  3.800000e+001 -1.000000e+001
    endloop
  endfacet
  facet normal  0.000000e+000  0.000000e+000  1.000000e+000
    outer loop
      vertex -1.000000e+001  3.800000e+001 -1.000000e+001
      vertex  1.000000e+001  3.800000e+001 -1.000000e+001
      vertex -1.000000e+001  5.000000e+001 -1.000000e+001
    endloop
  endfacet
  facet normal  -0.000000e+000  0.000000e+000  1.000000e+000
    outer loop
      vertex -1.000000e+001  5.000000e+001 -1.000000e+001
      vertex  1.000000e+001  3.800000e+001 -1.000000e+001
      vertex  1.000000e+001  5.000000e+001 -1.000000e+001
    endloop
  endfacet
  facet normal -1.000000e+000  0.000000e+000  0.000000e+000
    outer loop
      vertex  1.000000e+001  3.800000e+001 -1.000000e+001
      vertex  1.000000e+001  3.800000e+001  0.000000e+000
      vertex  1.000000e+001  5.000000e+001 -1.000000e+001
    endloop
  endfacet
  facet normal -1.000000e+000  0.000000e+000  0.000000e+000
    outer loop
      vertex  1.000000e+001  5.000000e+001 -1.000000e+001
      vertex  1.000000e+001  3.800000e+001  0.000000e+000
      vertex  1.000000e+001  5.000000e+001  0.000000e+000
    endloop
  endfacet
  facet normal -8.314696e-001  5.555702e-001  0.000000e+000
    outer loop
      vertex  7.656854e+000  3.234315e+001 -1.000000e+001
      vertex  9.391036e+000  3.493853e+001  0.000000e+000
      vertex  9.391036e+000  3.493853e+001 -1.000000e+001
    endloop
  endfacet
  facet normal -9.807852e-001  1.950905e-001  0.000000e+000
    outer loop
      vertex  9.391036e+000  3.493853e+001 -1.000000e+001
      vertex  9.391036e+000  3.493853e+001  0.000000e+000
      vertex  1.000000e+001  3.800000e+001  0.000000e+000
    endloop
  endfacet
  facet normal -9.807852e-001  1.950905e-001  0.000000e+000
    outer loop
      vertex  9.391036e+000  3.493853e+001 -1.000000e+001
      vertex  1.000000e+001  3.800000e+001  0.000000e+000
      vertex  1.000000e+001  3.800000e+001 -1.000000e+001
    endloop
  endfacet
  facet normal -8.314696e-001  5.555702e-001  0.000000e+000
    outer loop
      vertex  9.391036e+000  3.493853e+001  0.000000e+000
      vertex  7.656854e+000  3.234315e+001 -1.000000e+001
      vertex  7.656854e+000  3.234315e+001  0.000000e+000
    endloop
  endfacet
  facet normal -5.555708e-001  8.314693e-001  0.000000e+000
    outer loop
      vertex  7.656854e+000  3.234315e+001  0.000000e+000
      vertex  7.656854e+000  3.234315e+001 -1.000000e+001
      vertex  5.061468e+000  3.060896e+001 -1.000000e+001
    endloop
  endfacet
  facet normal -5.555708e-001  8.314693e-001  0.000000e+000
    outer loop
      vertex  7.656854e+000  3.234315e+001  0.000000e+000
      vertex  5.061468e+000  3.060896e+001 -1.000000e+001
      vertex  5.061468e+000  3.060896e+001  0.000000e+000
    endloop
  endfacet
  facet normal -1.950901e-001  9.807854e-001  0.000000e+000
    outer loop
      vertex  5.061468e+000  3.060896e+001  0.000000e+000
      vertex  5.061468e+000  3.060896e+001 -1.000000e+001
      vertex  2.000000e+000  3.000000e+001 -1.000000e+001
    endloop
  endfacet
  facet normal -1.950901e-001  9.807854e-001  0.000000e+000
    outer loop
      vertex  5.061468e+000  3.060896e+001  0.000000e+000
      vertex  2.000000e+000  3.000000e+001 -1.000000e+001
      vertex  2.000000e+000  3.000000e+001  0.000000e+000
    endloop
  endfacet
  facet normal  0.000000e+000  1.000000e+000  0.000000e+000
    outer loop
      vertex -2.000000e+000  3.000000e+001  0.000000e+000
      vertex  2.000000e+000  3.000000e+001  0.000000e+000
      vertex -2.000000e+000  3.000000e+001 -1.000000e+001
    endloop
  endfacet
  facet normal  0.000000e+000  1.000000e+000  0.000000e+000
    outer loop
      vertex -2.000000e+000  3.000000e+001 -1.000000e+001
      vertex  2.000000e+000  3.000000e+001  0.000000e+000
      vertex  2.000000e+000  3.000000e+001 -1.000000e+001
    endloop
  endfacet
  facet normal  5.555708e-001  8.314693e-001  0.000000e+000
    outer loop
      vertex -7.656854e+000  3.234315e+001 -1.000000e+001
      vertex -5.061468e+000  3.060896e+001  0.000000e+000
      vertex -5.061468e+000  3.060896e+001 -1.000000e+001
    endloop
  endfacet
  facet normal  1.950901e-001  9.807854e-001  -0.000000e+000
    outer loop
      vertex -5.061468e+000  3.060896e+001 -1.000000e+001
      vertex -5.061468e+000  3.060896e+001  0.000000e+000
      vertex -2.000000e+000  3.000000e+001  0.000000e+000
    endloop
  endfacet
  facet normal  1.950901e-001  9.807854e-001  0.000000e+000
    outer loop
      vertex -5.061468e+000  3.060896e+001 -1.000000e+001
      vertex -2.000000e+000  3.000000e+001  0.000000e+000
      vertex -2.000000e+000  3.000000e+001 -1.000000e+001
    endloop
  endfacet
  facet normal  5.555708e-001  8.314693e-001  -0.000000e+000
    outer loop
      vertex -5.061468e+000  3.060896e+001  0.000000e+000
      vertex -7.656854e+000  3.234315e+001 -1.000000e+001
      vertex -7.656854e+000  3.234315e+001  0.000000e+000
    endloop
  endfacet
  facet normal  8.314696e-001  5.555702e-001  0.000000e+000
    outer loop
      vertex -7.656854e+000  3.234315e+001  0.000000e+000
      vertex -7.656854e+000  3.234315e+001 -1.000000e+001
      vertex -9.391036e+000  3.493853e+001 -1.000000e+001
    endloop
  endfacet
  facet normal  8.314696e-001  5.555702e-001  -0.000000e+000
    outer loop
      vertex -7.656854e+000  3.234315e+001  0.000000e+000
      vertex -9.391036e+000  3.493853e+001 -1.000000e+001
      vertex -9.391036e+000  3.493853e+001  0.000000e+000
    endloop
  endfacet
  facet normal  9.807852e-001  1.950905e-001  0.000000e+000
    outer loop
      vertex -9.391036e+000  3.493853e+001  0.000000e+000
      vertex -9.391036e+000  3.493853e+001 -1.000000e+001
      vertex -1.000000e+001  3.800000e+001 -1.000000e+001
    endloop
  endfacet
  facet normal  9.807852e-001  1.950905e-001  -0.000000e+000
    outer loop
      vertex -9.391036e+000  3.493853e+001  0.000000e+000
      vertex -1.000000e+001  3.800000e+001 -1.000000e+001
      vertex -1.000000e+001  3.800000e+001  0.000000e+000
    endloop
  endfacet
  facet normal  1.000000e+000  0.000000e+000  0.000000e+000
    outer loop
      vertex -1.000000e+001  5.000000e+001 -1.000000e+001
      vertex -1.000000e+001  5.000000e+001  0.000000e+000
      vertex -1.000000e+001  3.800000e+001 -1.000000e+001
    endloop
  endfacet
  facet normal  1.000000e+000  0.000000e+000  0.000000e+000
    outer loop
      vertex -1.000000e+001  3.800000e+001 -1.000000e+001
      vertex -1.000000e+001  5.000000e+001  0.000000e+000
      vertex -1.000000e+001  3.800000e+001  0.000000e+000
    endloop
  endfacet
  facet normal  -0.000000e+000  0.000000e+000  1.000000e+000
    outer loop
      vertex  3.000000e+001  2.800000e+001 -1.000000e+001
      vertex  2.693853e+001  2.739104e+001 -1.000000e+001
      vertex  2.434315e+001  2.565685e+001 -1.000000e+001
    endloop
  endfacet
  facet normal  -0.000000e+000  0.000000e+000  9.999999e-001
    outer loop
      vertex  3.000000e+001  2.800000e+001 -1.000000e+001
      vertex  2.434315e+001  2.565685e+001 -1.000000e+001
      vertex  2.260896e+001  2.306147e+001 -1.000000e+001
    endloop
  endfacet
  facet normal  -0.000000e+000  0.000000e+000  1.000000e+000
    outer loop
      vertex  3.000000e+001  2.800000e+001 -1.000000e+001
      vertex  2.260896e+001  2.306147e+001 -1.000000e+001
      vertex  2.200000e+001  2.000000e+001 -1.000000e+001
    endloop
  endfacet
  facet normal  -0.000000e+000  0.000000e+000  1.000000e+000
    outer loop
      vertex  3.000000e+001  2.800000e+001 -1.000000e+001
      vertex  2.200000e+001  2.000000e+001 -1.000000e+001
      vertex  2.260896e+001  1.693853e+001 -1.000000e+001
    endloop
  endfacet
  facet normal  -0.000000e+000  0.000000e+000  1.000000e+000
    outer loop
      vertex  3.000000e+001  2.800000e+001 -1.000000e+001
      vertex  2.260896e+001  1.693853e+001 -1.000000e+001
      vertex  2.434315e+001  1.434315e+001 -1.000000e+001
    endloop
  endfacet
  facet normal  -0.000000e+000  0.000000e+000  9.999999e-001
    outer loop
      vertex  3.000000e+001  2.800000e+001 -1.000000e+001
      vertex  2.434315e+001  1.434315e+001 -1.000000e+001
      vertex  2.693853e+001  1.260896e+001 -1.000000e+001
    endloop
  endfacet
  facet normal  -0.000000e+000  0.000000e+000  1.000000e+000
    outer loop
      vertex  3.000000e+001  2.800000e+001 -1.000000e+001
      vertex  2.693853e+001  1.260896e+001 -1.000000e+001
      vertex  3.000000e+001  1.200000e+001 -1.000000e+001
    endloop
  endfacet
  facet normal  -0.000000e+000  0.000000e+000  1.000000e+000
    outer loop
      vertex  3.000000e+001 -9.000000e+000 -1.000000e+001
      vertex  1.800000e+001 -9.000000e+000 -1.000000e+001
      vertex  1.493853e+001 -9.608964e+000 -1.000000e+001
    endloop
  endfacet
  facet normal  -0.000000e+000  0.000000e+000  1.000000e+000
    outer loop
      vertex  3.000000e+001 -9.000000e+000 -1.000000e+001
      vertex  1.493853e+001 -9.608964e+000 -1.000000e+001
      vertex  1.234315e+001 -1.134315e+001 -1.000000e+001
    endloop
  endfacet
  facet normal  -0.000000e+000  0.000000e+000  1.000000e+000
    outer loop
      vertex  3.000000e+001 -9.000000e+000 -1.000000e+001
      vertex  1.234315e+001 -1.134315e+001 -1.000000e+001
      vertex  1.060896e+001 -1.393853e+001 -1.000000e+001
    endloop
  endfacet
  facet normal  -0.000000e+000  0.000000e+000  9.999999e-001
    outer loop
      vertex  3.000000e+001 -9.000000e+000 -1.000000e+001
      vertex  1.060896e+001 -1.393853e+001 -1.000000e+001
      vertex  1.000000e+001 -1.700000e+001 -1.000000e+001
    endloop
  endfacet
  facet normal  -0.000000e+000  0.000000e+000  1.000000e+000
    outer loop
      vertex  3.000000e+001 -9.000000e+000 -1.000000e+001
      vertex  1.000000e+001 -1.700000e+001 -1.000000e+001
      vertex  1.060896e+001 -2.006147e+001 -1.000000e+001
    endloop
  endfacet
  facet normal  -0.000000e+000  0.000000e+000  1.000000e+000
    outer loop
      vertex  3.000000e+001 -9.000000e+000 -1.000000e+001
      vertex  1.060896e+001 -2.006147e+001 -1.000000e+001
      vertex  1.234315e+001 -2.265685e+001 -1.000000e+001
    endloop
  endfacet
  facet normal  -0.000000e+000  0.000000e+000  1.000000e+000
    outer loop
      vertex  3.000000e+001 -9.000000e+000 -1.000000e+001
      vertex  1.234315e+001 -2.265685e+001 -1.000000e+001
      vertex  1.493853e+001 -2.439104e+001 -1.000000e+001
    endloop
  endfacet
  facet normal  -0.000000e+000  0.000000e+000  1.000000e+000
    outer loop
      vertex  3.000000e+001 -9.000000e+000 -1.000000e+001
      vertex  1.493853e+001 -2.439104e+001 -1.000000e+001
      vertex  1.800000e+001 -2.500000e+001 -1.000000e+001
    endloop
  endfacet
  facet normal  0.000000e+000  0.000000e+000  1.000000e+000
    outer loop
      vertex  5.000000e+001 -2.500000e+001 -1.000000e+001
      vertex  5.000000e+001  5.000000e+001 -1.000000e+001
      vertex  3.000000e+001  5.000000e+001 -1.000000e+001
    endloop
  endfacet
  facet normal  0.000000e+000  0.000000e+000  9.999999e-001
    outer loop
      vertex  5.000000e+001 -2.500000e+001 -1.000000e+001
      vertex  3.000000e+001  5.000000e+001 -1.000000e+001
      vertex  3.000000e+001  2.800000e+001 -1.000000e+001
    endloop
  endfacet
  facet normal  0.000000e+000  0.000000e+000  1.000000e+000
    outer loop
      vertex  5.000000e+001 -2.500000e+001 -1.000000e+001
      vertex  3.000000e+001  2.800000e+001 -1.000000e+001
      vertex  3.000000e+001  1.200000e+001 -1.000000e+001
    endloop
  endfacet
  facet normal  0.000000e+000  0.000000e+000  1.000000e+000
    outer loop
      vertex  5.000000e+001 -2.500000e+001 -1.000000e+001
      vertex  3.000000e+001  1.200000e+001 -1.000000e+001
      vertex  3.000000e+001 -9.000000e+000 -1.000000e+001
    endloop
  endfacet
  facet normal  0.000000e+000  0.000000e+000  1.000000e+000
    outer loop
      vertex  5.000000e+001 -2.500000e+001 -1.000000e+001
      vertex  3.000000e+001 -9.000000e+000 -1.000000e+001
      vertex  1.800000e+001 -2.500000e+001 -1.000000e+001
    endloop
  endfacet
  facet normal  0.000000e+000  1.000000e+000  0.000000e+000
    outer loop
      vertex  5.000000e+001 -2.500000e+001 -1.000000e+001
      vertex  1.800000e+001 -2.500000e+001 -1.000000e+001
      vertex  5.000000e+001 -2.500000e+001  0.000000e+000
    endloop
  endfacet
  facet normal  0.000000e+000  1.000000e+000  0.000000e+000
    outer loop
      vertex  5.000000e+001 -2.500000e+001  0.000000e+000
      vertex  1.800000e+001 -2.500000e+001 -1.000000e+001
      vertex  1.800000e+001 -2.500000e+001  0.000000e+000
    endloop
  endfacet
  facet normal  5.555702e-001  8.314696e-001  0.000000e+000
    outer loop
      vertex  1.234315e+001 -2.265685e+001 -1.000000e+001
      vertex  1.493853e+001 -2.439104e+001  0.000000e+000
      vertex  1.493853e+001 -2.439104e+001 -1.000000e+001
    endloop
  endfacet
  facet normal  1.950901e-001  9.807853e-001  -0.000000e+000
    outer loop
      vertex  1.493853e+001 -2.439104e+001 -1.000000e+001
      vertex  1.493853e+001 -2.439104e+001  0.000000e+000
      vertex  1.800000e+001 -2.500000e+001  0.000000e+000
    endloop
  endfacet
  facet normal  1.950901e-001  9.807853e-001  0.000000e+000
    outer loop
      vertex  1.493853e+001 -2.439104e+001 -1.000000e+001
      vertex  1.800000e+001 -2.500000e+001  0.000000e+000
      vertex  1.800000e+001 -2.500000e+001 -1.000000e+001
    endloop
  endfacet
  facet normal  5.555702e-001  8.314696e-001  -0.000000e+000
    outer loop
      vertex  1.493853e+001 -2.439104e+001  0.000000e+000
      vertex  1.234315e+001 -2.265685e+001 -1.000000e+001
      vertex  1.234315e+001 -2.265685e+001  0.000000e+000
    endloop
  endfacet
  facet normal  8.314697e-001  5.555701e-001  0.000000e+000
    outer loop
      vertex  1.234315e+001 -2.265685e+001  0.000000e+000
      vertex  1.234315e+001 -2.265685e+001 -1.000000e+001
      vertex  1.060896e+001 -2.006147e+001 -1.000000e+001
    endloop
  endfacet
  facet normal  8.314697e-001  5.555701e-001  -0.000000e+000
    outer loop
      vertex  1.234315e+001 -2.265685e+001  0.000000e+000
      vertex  1.060896e+001 -2.006147e+001 -1.000000e+001
      vertex  1.060896e+001 -2.006147e+001  0.000000e+000
    endloop
  endfacet
  facet normal  9.807853e-001  1.950903e-001  0.000000e+000
    outer loop
      vertex  1.060896e+001 -2.006147e+001  0.000000e+000
      vertex  1.060896e+001 -2.006147e+001 -1.000000e+001
      vertex  1.000000e+001 -1.700000e+001 -1.000000e+001
    endloop
  endfacet
  facet normal  9.807853e-001  1.950903e-001  -0.000000e+000
    outer loop
      vertex  1.060896e+001 -2.006147e+001  0.000000e+000
      vertex  1.000000e+001 -1.700000e+001 -1.000000e+001
      vertex  1.000000e+001 -1.700000e+001  0.000000e+000
    endloop
  endfacet
  facet normal  8.314698e-001 -5.555700e-001  0.000000e+000
    outer loop
      vertex  1.234315e+001 -1.134315e+001 -1.000000e+001
      vertex  1.060896e+001 -1.393853e+001  0.000000e+000
      vertex  1.060896e+001 -1.393853e+001 -1.000000e+001
    endloop
  endfacet
  facet normal  9.807853e-001 -1.950904e-001  0.000000e+000
    outer loop
      vertex  1.060896e+001 -1.393853e+001 -1.000000e+001
      vertex  1.060896e+001 -1.393853e+001  0.000000e+000
      vertex  1.000000e+001 -1.700000e+001  0.000000e+000
    endloop
  endfacet
  facet normal  9.807853e-001 -1.950904e-001  0.000000e+000
    outer loop
      vertex  1.060896e+001 -1.393853e+001 -1.000000e+001
      vertex  1.000000e+001 -1.700000e+001  0.000000e+000
      vertex  1.000000e+001 -1.700000e+001 -1.000000e+001
    endloop
  endfacet
  facet normal  8.314698e-001 -5.555700e-001  0.000000e+000
    outer loop
      vertex  1.060896e+001 -1.393853e+001  0.000000e+000
      vertex  1.234315e+001 -1.134315e+001 -1.000000e+001
      vertex  1.234315e+001 -1.134315e+001  0.000000e+000
    endloop
  endfacet
  facet normal  5.555700e-001 -8.314698e-001  0.000000e+000
    outer loop
      vertex  1.234315e+001 -1.134315e+001  0.000000e+000
      vertex  1.234315e+001 -1.134315e+001 -1.000000e+001
      vertex  1.493853e+001 -9.608964e+000 -1.000000e+001
    endloop
  endfacet
  facet normal  5.555700e-001 -8.314698e-001  0.000000e+000
    outer loop
      vertex  1.234315e+001 -1.134315e+001  0.000000e+000
      vertex  1.493853e+001 -9.608964e+000 -1.000000e+001
      vertex  1.493853e+001 -9.608964e+000  0.000000e+000
    endloop
  endfacet
  facet normal  1.950904e-001 -9.807853e-001  0.000000e+000
    outer loop
      vertex  1.493853e+001 -9.608964e+000  0.000000e+000
      vertex  1.493853e+001 -9.608964e+000 -1.000000e+001
      vertex  1.800000e+001 -9.000000e+000 -1.000000e+001
    endloop
  endfacet
  facet normal  1.950904e-001 -9.807853e-001  0.000000e+000
    outer loop
      vertex  1.493853e+001 -9.608964e+000  0.000000e+000
      vertex  1.800000e+001 -9.000000e+000 -1.000000e+001
      vertex  1.800000e+001 -9.000000e+000  0.000000e+000
    endloop
  endfacet
  facet normal  0.000000e+000 -1.000000e+000  0.000000e+000
    outer loop
      vertex  1.800000e+001 -9.000000e+000 -1.000000e+001
      vertex  3.000000e+001 -9.000000e+000 -1.000000e+001
      vertex  1.800000e+001 -9.000000e+000  0.000000e+000
    endloop
  endfacet
  facet normal  0.000000e+000 -1.000000e+000  0.000000e+000
    outer loop
      vertex  1.800000e+001 -9.000000e+000  0.000000e+000
      vertex  3.000000e+001 -9.000000e+000 -1.000000e+001
      vertex  3.000000e+001 -9.000000e+000  0.000000e+000
    endloop
  endfacet
  facet normal  1.000000e+000  0.000000e+000  0.000000e+000
    outer loop
      vertex  3.000000e+001 -9.000000e+000 -1.000000e+001
      vertex  3.000000e+001  1.200000e+001 -1.000000e+001
      vertex  3.000000e+001 -9.000000e+000  0.000000e+000
    endloop
  endfacet
  facet normal  1.000000e+000  -0.000000e+000  0.000000e+000
    outer loop
      vertex  3.000000e+001 -9.000000e+000  0.000000e+000
      vertex  3.000000e+001  1.200000e+001 -1.000000e+001
      vertex  3.000000e+001  1.200000e+001  0.000000e+000
    endloop
  endfacet
  facet normal  9.807854e-001  1.950901e-001  0.000000e+000
    outer loop
      vertex  2.200000e+001  2.000000e+001 -1.000000e+001
      vertex  2.260896e+001  1.693853e+001  0.000000e+000
      vertex  2.260896e+001  1.693853e+001 -1.000000e+001
    endloop
  endfacet
  facet normal  8.314695e-001  5.555703e-001  -0.000000e+000
    outer loop
      vertex  2.260896e+001  1.693853e+001 -1.000000e+001
      vertex  2.260896e+001  1.693853e+001  0.000000e+000
      vertex  2.434315e+001  1.434315e+001  0.000000e+000
    endloop
  endfacet
  facet normal  8.314695e-001  5.555703e-001  0.000000e+000
    outer loop
      vertex  2.260896e+001  1.693853e+001 -1.000000e+001
      vertex  2.434315e+001  1.434315e+001  0.000000e+000
      vertex  2.434315e+001  1.434315e+001 -1.000000e+001
    endloop
  endfacet
  facet normal  5.555701e-001  8.314697e-001  -0.000000e+000
    outer loop
      vertex  2.434315e+001  1.434315e+001 -1.000000e+001
      vertex  2.434315e+001  1.434315e+001  0.000000e+000
      vertex  2.693853e+001  1.260896e+001  0.000000e+000
    endloop
  endfacet
  facet normal  5.555701e-001  8.314697e-001  0.000000e+000
    outer loop
      vertex  2.434315e+001  1.434315e+001 -1.000000e+001
      vertex  2.693853e+001  1.260896e+001  0.000000e+000
      vertex  2.693853e+001  1.260896e+001 -1.000000e+001
    endloop
  endfacet
  facet normal  1.950903e-001  9.807853e-001  -0.000000e+000
    outer loop
      vertex  2.693853e+001  1.260896e+001 -1.000000e+001
      vertex  2.693853e+001  1.260896e+001  0.000000e+000
      vertex  3.000000e+001  1.200000e+001  0.000000e+000
    endloop
  endfacet
  facet normal  1.950903e-001  9.807853e-001  0.000000e+000
    outer loop
      vertex  2.693853e+001  1.260896e+001 -1.000000e+001
      vertex  3.000000e+001  1.200000e+001  0.000000e+000
      vertex  3.000000e+001  1.200000e+001 -1.000000e+001
    endloop
  endfacet
  facet normal  9.807854e-001  1.950901e-001  -0.000000e+000
    outer loop
      vertex  2.260896e+001  1.693853e+001  0.000000e+000
      vertex  2.200000e+001  2.000000e+001 -1.000000e+001
      vertex  2.200000e+001  2.000000e+001  0.000000e+000
    endloop
  endfacet
  facet normal  9.807854e-001 -1.950901e-001  0.000000e+000
    outer loop
      vertex  2.200000e+001  2.000000e+001  0.000000e+000
      vertex  2.200000e+001  2.000000e+001 -1.000000e+001
      vertex  2.260896e+001  2.306147e+001 -1.000000e+001
    endloop
  endfacet
  facet normal  9.807854e-001 -1.950901e-001  0.000000e+000
    outer loop
      vertex  2.200000e+001  2.000000e+001  0.000000e+000
      vertex  2.260896e+001  2.306147e+001 -1.000000e+001
      vertex  2.260896e+001  2.306147e+001  0.000000e+000
    endloop
  endfacet
  facet normal  8.314695e-001 -5.555703e-001  0.000000e+000
    outer loop
      vertex  2.260896e+001  2.306147e+001  0.000000e+000
      vertex  2.260896e+001  2.306147e+001 -1.000000e+001
      vertex  2.434315e+001  2.565685e+001 -1.000000e+001
    endloop
  endfacet
  facet normal  8.314695e-001 -5.555703e-001  0.000000e+000
    outer loop
      vertex  2.260896e+001  2.306147e+001  0.000000e+000
      vertex  2.434315e+001  2.565685e+001 -1.000000e+001
      vertex  2.434315e+001  2.565685e+001  0.000000e+000
    endloop
  endfacet
  facet normal  5.555703e-001 -8.314695e-001  0.000000e+000
    outer loop
      vertex  2.434315e+001  2.565685e+001  0.000000e+000
      vertex  2.434315e+001  2.565685e+001 -1.000000e+001
      vertex  2.693853e+001  2.739104e+001 -1.000000e+001
    endloop
  endfacet
  facet normal  5.555703e-001 -8.314695e-001  0.000000e+000
    outer loop
      vertex  2.434315e+001  2.565685e+001  0.000000e+000
      vertex  2.693853e+001  2.739104e+001 -1.000000e+001
      vertex  2.693853e+001  2.739104e+001  0.000000e+000
    endloop
  endfacet
  facet normal  1.950901e-001 -9.807854e-001  0.000000e+000
    outer loop
      vertex  2.693853e+001  2.739104e+001  0.000000e+000
      vertex  2.693853e+001  2.739104e+001 -1.000000e+001
      vertex  3.000000e+001  2.800000e+001 -1.000000e+001
    endloop
  endfacet
  facet normal  1.950901e-001 -9.807854e-001  0.000000e+000
    outer loop
      vertex  2.693853e+001  2.739104e+001  0.000000e+000
      vertex  3.000000e+001  2.800000e+001 -1.000000e+001
      vertex  3.000000e+001  2.800000e+001  0.000000e+000
    endloop
  endfacet
  facet normal  9.999999e-001  0.000000e+000  0.000000e+000
    outer loop
      vertex  3.000000e+001  2.800000e+001 -1.000000e+001
      vertex  3.000000e+001  5.000000e+001 -1.000000e+001
      vertex  3.000000e+001  2.800000e+001  0.000000e+000
    endloop
  endfacet
  facet normal  9.999999e-001  -0.000000e+000  0.000000e+000
    outer loop
      vertex  3.000000e+001  2.800000e+001  0.000000e+000
      vertex  3.000000e+001  5.000000e+001 -1.000000e+001
      vertex  3.000000e+001  5.000000e+001  0.000000e+000
    endloop
  endfacet
  facet normal  0.000000e+000  0.000000e+000 -1.000000e+000
    outer loop
      vertex -5.000000e+001 -5.000000e+001 -5.000000e+001
      vertex -5.000000e+001  5.000000e+001 -5.000000e+001
      vertex  5.000000e+001 -5.000000e+001 -5.000000e+001
    endloop
  endfacet
  facet normal  0.000000e+000  0.000000e+000 -1.000000e+000
    outer loop
      vertex  5.000000e+001 -5.000000e+001 -5.000000e+001
      vertex -5.000000e+001  5.000000e+001 -5.000000e+001
      vertex  5.000000e+001  5.000000e+001 -5.000000e+001
    endloop
  endfacet
  facet normal  0.000000e+000 -1.000000e+000  -0.000000e+000
    outer loop
      vertex  5.000000e+001 -5.000000e+001 -5.000000e+001
      vertex  5.000000e+001 -5.000000e+001  0.000000e+000
      vertex -5.000000e+001 -5.000000e+001 -5.000000e+001
    endloop
  endfacet
  facet normal  0.000000e+000 -1.000000e+000  0.000000e+000
    outer loop
      vertex -5.000000e+001 -5.000000e+001 -5.000000e+001
      vertex  5.000000e+001 -5.000000e+001  0.000000e+000
      vertex -5.000000e+001 -5.000000e+001  0.000000e+000
    endloop
  endfacet
endsolid CATIA STL
